<?xml version="1.0" standalone="no"?>
<!DOCTYPE svg PUBLIC "-//W3C//DTD SVG 20010904//EN"
 "http://www.w3.org/TR/2001/REC-SVG-20010904/DTD/svg10.dtd">
<svg version="1.0" xmlns="http://www.w3.org/2000/svg"
 width="1280.000000pt" height="640.000000pt" viewBox="0 0 1280.000000 640.000000"
 preserveAspectRatio="xMidYMid meet">

<g transform="translate(0.000000,640.000000) scale(0.100000,-0.100000)"
fill="#000000" stroke="none">
<path d="M5000 6360 c0 -22 0 -43 0 -47 -1 -5 16 -11 37 -14 21 -3 -47 -7
-150 -8 -202 -1 -265 -11 -294 -44 -18 -21 -18 -21 7 -6 14 9 43 19 65 23 l40
6 -44 -22 c-25 -13 -54 -36 -65 -51 -28 -39 -28 -59 24 -1067 6 -107 19 -393
30 -635 43 -946 39 -896 82 -942 16 -18 17 -22 5 -30 -30 -17 -47 -70 -45
-140 1 -55 2 -59 5 -21 5 60 18 71 66 56 25 -8 37 -17 37 -30 0 -10 6 -18 13
-18 17 0 38 -51 31 -77 -4 -14 -2 -23 5 -23 6 0 11 13 11 30 0 25 4 30 33 34
17 3 929 7 2025 9 1836 4 1994 4 2011 -12 17 -14 20 -41 30 -236 14 -279 22
-514 16 -495 -2 8 -11 148 -20 310 -19 371 -22 402 -38 413 -7 5 -461 6 -1067
3 -580 -3 -1263 -6 -1517 -6 l-462 0 -4 -37 -4 -38 -1 38 -2 37 -130 0 c-112
0 -130 -2 -139 -17 -10 -17 -10 -17 -11 -1 0 17 -22 18 -337 14 -186 -2 -346
-5 -355 -6 -17 -1 -18 -41 -18 -693 0 -418 4 -698 10 -707 8 -13 75 -16 472
-20 439 -5 456 -6 318 -16 -134 -10 -139 -11 -65 -14 54 -1 70 -4 50 -9 -29
-6 -30 -8 -28 -61 1 -30 5 -85 8 -123 7 -64 6 -67 -14 -67 -11 0 -21 5 -21 12
0 6 -2 9 -5 7 -9 -10 8 -47 24 -52 15 -3 17 -17 15 -93 0 -49 3 -97 8 -108 6
-10 7 -33 3 -52 -4 -26 -11 -34 -28 -34 -20 -1 -21 -2 -4 -14 9 -7 17 -19 17
-26 0 -7 -8 -19 -17 -26 -17 -12 -16 -13 6 -14 23 0 24 -2 18 -55 -3 -32 -1
-57 4 -61 16 -9 20 0 29 58 l8 53 1 -70 c1 -44 -7 -96 -19 -140 -25 -89 -24
-120 1 -40 11 33 24 105 30 159 5 55 19 136 30 180 11 47 23 150 29 246 13
214 15 226 47 296 54 115 95 173 139 194 44 22 74 26 74 10 0 -5 -5 -10 -12
-10 -9 0 -9 -3 0 -12 18 -18 15 -47 -12 -103 -40 -87 -47 -397 -9 -412 8 -3
20 0 26 7 9 10 9 14 0 17 -9 3 -13 35 -13 111 1 87 5 117 24 162 21 53 24 55
64 58 37 3 44 7 59 39 9 20 71 91 138 158 l122 122 -123 -1 c-68 -1 -124 2
-124 6 0 4 48 9 108 10 l107 3 6 110 5 110 2 -114 2 -113 68 6 c41 4 62 3 54
-2 -11 -8 -11 -10 2 -15 25 -10 14 -93 -18 -126 -14 -15 -26 -32 -26 -38 0 -6
-6 -13 -12 -16 -7 -3 -20 -20 -29 -38 -8 -19 -25 -54 -37 -79 -12 -25 -22 -53
-22 -62 0 -9 -4 -20 -10 -23 -5 -3 -10 -15 -10 -26 0 -10 -5 -19 -12 -19 -6 0
-9 -3 -5 -6 3 -4 -16 -49 -44 -102 -39 -75 -44 -91 -25 -73 14 13 65 103 115
200 l91 176 127 131 c73 75 145 139 168 150 22 10 53 31 70 46 16 16 35 28 41
28 5 0 23 14 40 31 23 24 35 29 57 25 22 -5 27 -2 27 15 0 11 4 18 8 15 4 -3
8 -27 7 -55 -1 -43 1 -48 13 -38 13 10 14 8 7 -12 -4 -13 -14 -31 -23 -41 -14
-18 -16 -18 -32 2 -11 14 -23 19 -34 15 -22 -9 -11 -27 15 -27 25 0 25 -36 0
-43 -14 -3 -18 -11 -14 -26 3 -11 -2 -39 -11 -61 -9 -22 -13 -40 -10 -40 4 0
1 -7 -6 -15 -8 -9 -10 -27 -6 -46 4 -21 2 -28 -6 -23 -7 5 -9 -1 -6 -19 3 -15
1 -24 -3 -21 -5 3 -9 0 -9 -5 0 -6 6 -11 13 -11 9 0 9 -2 -1 -9 -17 -10 -17
-21 -2 -31 10 -6 10 -14 1 -36 -8 -20 -10 -22 -7 -7 4 23 -9 29 -30 15 -14 -9
-17 -112 -3 -112 6 0 5 -9 -3 -22 -6 -13 -13 -48 -13 -78 -1 -31 -16 -94 -33
-145 -17 -49 -34 -109 -38 -132 -4 -24 -11 -43 -16 -43 -5 0 -7 -24 -4 -58 3
-31 3 -51 0 -44 -3 6 -9 12 -13 12 -8 0 -33 -82 -30 -96 4 -17 -13 -63 -27
-75 -8 -7 -12 -20 -9 -29 3 -10 0 -30 -6 -46 -7 -16 -14 -38 -15 -49 -1 -11
-5 -36 -9 -55 -16 -92 -24 -185 -15 -194 14 -14 83 9 95 32 21 39 52 88 104
166 30 45 59 105 67 134 8 30 21 64 29 75 9 12 15 44 15 74 0 54 11 67 30 36
9 -14 10 -11 5 17 -4 19 -9 43 -12 54 -4 13 -1 16 7 11 7 -4 16 -1 21 6 7 11
9 11 9 -2 0 -9 7 -22 15 -29 12 -10 13 -15 4 -20 -7 -5 -8 -13 -3 -21 4 -7 9
-24 10 -37 2 -20 0 -21 -12 -11 -20 17 -28 5 -13 -20 11 -17 10 -26 -5 -58
-10 -21 -20 -51 -22 -68 -2 -16 -22 -56 -44 -88 -22 -32 -40 -66 -40 -75 0 -9
-7 -26 -15 -36 -16 -22 -20 -56 -6 -56 5 0 8 -25 7 -55 0 -30 -5 -55 -9 -55
-5 0 -6 -4 -3 -9 3 -4 -8 -20 -24 -35 -32 -28 -40 -52 -15 -42 8 3 15 1 15 -4
0 -6 -7 -10 -15 -10 -8 0 -15 -6 -15 -14 0 -8 -6 -16 -14 -19 -19 -7 -49 -71
-44 -93 4 -22 28 -31 28 -10 0 8 9 20 20 26 23 12 25 7 10 -21 -12 -22 -7 -24
21 -9 10 6 19 17 19 25 0 9 6 12 16 8 9 -3 20 0 25 8 7 11 9 10 10 -6 1 -11 1
-26 0 -34 -2 -7 1 -11 6 -9 45 21 63 33 63 40 0 4 7 8 15 8 8 0 15 -5 15 -11
0 -14 25 -6 26 9 1 7 2 18 3 26 1 12 20 18 101 28 8 1 20 7 27 14 26 25 152
34 613 40 261 4 476 8 478 9 3 2 -17 50 -68 160 -89 196 -102 216 -220 340
-143 150 -243 278 -322 409 -34 56 -80 128 -103 161 -55 77 -71 116 -95 236
-20 99 -56 205 -109 328 -16 36 -32 93 -36 126 -7 63 -34 172 -59 240 -26 69
-18 107 28 132 13 7 29 7 55 -1 43 -13 102 -56 95 -68 -3 -4 -1 -8 4 -8 5 0
15 -13 22 -30 7 -17 17 -27 24 -23 6 3 8 3 4 -2 -4 -4 3 -28 16 -54 23 -45 54
-171 60 -241 3 -36 39 -114 82 -178 14 -20 27 -47 31 -61 3 -14 12 -33 19 -42
8 -8 22 -42 33 -75 l20 -59 -3 145 c-2 168 -33 360 -73 455 -14 33 -38 103
-54 157 -28 96 -103 247 -161 320 -42 55 -80 136 -86 183 -3 33 0 47 19 69 27
31 44 28 72 -9 15 -22 16 -25 2 -25 -21 0 -19 -20 3 -20 9 -1 27 -6 38 -13 36
-20 174 -149 174 -162 0 -7 11 -24 25 -39 22 -24 73 -111 65 -111 -11 0 39
-82 71 -117 21 -23 37 -44 36 -47 -2 -10 94 -203 162 -323 59 -106 69 -118 94
-118 15 0 27 5 27 11 0 19 -23 93 -33 106 -5 7 -11 27 -13 45 -2 18 -6 45 -9
60 -3 22 -1 26 15 23 24 -5 68 -33 104 -67 17 -15 33 -28 38 -28 4 0 8 -7 8
-15 0 -8 3 -15 8 -15 4 0 15 -14 25 -31 10 -19 23 -29 31 -26 23 9 52 -19 65
-65 8 -24 16 -50 19 -58 3 -8 6 -42 8 -75 1 -33 8 -61 13 -63 6 -2 11 -21 11
-43 0 -28 -4 -39 -15 -39 -14 0 -14 -3 -1 -22 7 -13 17 -54 20 -93 4 -38 11
-74 15 -80 5 -5 9 -32 10 -58 1 -27 8 -59 16 -70 9 -13 15 -45 15 -84 0 -34 5
-65 10 -68 6 -3 10 -23 10 -44 0 -20 5 -42 12 -49 20 -20 38 -86 32 -119 -5
-25 0 -41 22 -72 16 -22 34 -41 40 -41 27 0 35 -35 44 -187 6 -87 12 -170 15
-185 3 -21 1 -28 -12 -28 -13 0 -14 -3 -5 -12 14 -14 16 -68 3 -68 -4 0 -9
-28 -9 -62 -1 -52 3 -67 21 -86 12 -13 21 -25 20 -28 -1 -2 4 -19 12 -38 8
-20 15 -40 15 -45 0 -5 7 -16 15 -24 8 -9 29 -71 46 -139 17 -68 38 -131 47
-141 9 -10 15 -32 14 -48 l-2 -30 414 1 c306 1 416 5 420 13 3 9 8 8 15 -3 5
-8 13 -11 17 -7 10 10 -44 57 -66 57 -25 0 -49 50 -39 78 11 30 30 28 65 -8
16 -16 34 -30 40 -30 6 0 28 -16 48 -35 21 -19 40 -35 43 -35 3 0 11 -7 17
-16 9 -11 25 -14 61 -12 l49 3 -153 123 c-84 67 -156 120 -161 117 -10 -6 -40
46 -40 70 0 8 4 15 9 15 5 0 11 14 15 32 3 17 17 46 31 63 19 25 21 35 12 45
-10 10 -7 11 10 6 14 -5 24 -2 30 7 4 8 31 41 59 73 29 33 141 163 250 290
110 127 252 292 318 368 65 75 116 139 113 142 -2 3 -146 -156 -318 -353 -172
-197 -325 -371 -341 -388 -15 -16 -35 -39 -45 -50 -10 -12 -14 -14 -9 -5 5 8
-6 -1 -24 -20 -18 -19 -38 -34 -45 -32 -7 1 -18 -5 -25 -13 -7 -8 -23 -15 -36
-15 -17 0 -24 -6 -24 -18 0 -18 -34 -62 -47 -62 -4 0 -22 6 -40 12 -25 9 -36
20 -40 39 -3 15 -16 32 -29 39 -19 11 -21 16 -12 27 8 10 8 17 0 25 -16 16
-15 61 2 103 8 18 12 35 10 38 -3 2 -6 42 -8 88 -5 118 -16 187 -32 200 -8 6
-14 29 -14 50 0 46 -29 112 -46 105 -9 -3 -10 3 -4 25 5 16 5 29 1 29 -11 0
-17 78 -41 485 -6 99 -15 248 -20 330 -14 207 -13 242 5 249 8 3 15 12 15 21
0 8 5 15 11 15 5 0 8 4 4 9 -3 5 -1 12 4 15 5 3 11 -4 14 -16 4 -12 9 -19 12
-16 8 8 -14 89 -31 112 -11 16 -17 17 -26 8 -15 -15 -28 -16 -28 -2 0 6 5 10
11 10 17 0 48 43 48 65 -1 17 -2 17 -6 3 -5 -22 -23 -24 -23 -3 0 8 -7 15 -15
15 -8 0 -15 4 -15 10 0 5 7 7 16 3 11 -4 23 2 35 18 26 33 24 49 -7 49 -14 0
-23 4 -20 9 3 5 15 7 27 4 17 -5 19 -2 14 18 -3 13 -7 43 -8 66 -2 41 -18 56
-32 33 -3 -5 -10 -10 -16 -10 -14 0 -11 27 6 44 19 19 19 36 -1 36 -8 0 -12 5
-9 10 4 6 11 7 17 4 6 -4 14 -1 18 6 11 18 0 50 -19 51 -12 0 -11 2 4 9 18 8
18 9 2 9 -10 1 -20 8 -23 16 -4 8 -12 15 -20 15 -8 0 -14 6 -14 14 0 20 17 29
23 14 3 -7 6 2 6 20 1 44 21 41 21 -3 0 -26 4 -35 16 -35 13 0 15 7 10 31 -3
17 -6 35 -6 40 0 5 -9 9 -20 9 -11 0 -20 5 -20 10 0 6 6 10 14 10 7 0 19 6 25
14 9 11 8 17 -3 29 -14 13 -14 16 1 21 12 5 14 9 5 18 -7 7 -12 20 -12 30 0
11 -7 18 -20 18 -11 0 -20 7 -20 15 0 18 12 19 28 3 9 -9 12 -7 12 11 0 16 -4
21 -15 17 -9 -3 -15 0 -15 9 0 8 4 15 8 15 4 0 8 9 9 20 1 11 -2 18 -7 15 -4
-3 -11 2 -14 11 -9 24 -7 29 6 16 20 -20 28 -14 28 21 0 17 0 41 0 52 1 45 -9
119 -20 145 -6 15 -23 33 -38 41 -15 7 -28 14 -30 15 -6 3 37 82 48 89 5 3 10
15 10 26 0 10 6 19 14 19 8 0 28 16 45 35 17 19 35 35 40 35 5 0 17 12 27 28
29 45 124 132 144 132 13 0 17 5 14 15 -4 8 -1 15 5 15 6 0 11 9 11 19 0 23
23 34 39 18 9 -9 13 -6 17 11 4 13 14 22 26 22 13 0 18 5 15 13 -3 8 -1 20 4
28 7 11 12 12 29 1 17 -10 23 -9 40 8 13 13 33 20 56 20 32 0 35 2 29 23 -4
14 -3 17 3 9 11 -16 51 -10 63 9 5 8 9 9 9 4 0 -6 12 -11 28 -12 25 -2 26 -1
5 7 -26 11 -31 30 -8 30 8 0 15 4 15 9 0 5 12 11 28 13 24 3 27 7 25 38 -2 29
27 285 66 590 10 75 10 74 5 -25 -6 -111 -8 -136 -30 -345 -9 -79 -13 -165 -9
-190 12 -84 83 -174 164 -207 20 -9 81 -21 136 -28 55 -7 285 -39 510 -70 311
-43 430 -56 493 -53 58 3 79 1 72 -6 -25 -25 -165 -18 -445 23 -450 65 -713
94 -748 81 -16 -5 -44 -10 -61 -10 -23 -1 -27 -3 -15 -10 8 -5 31 -5 52 0 20
4 37 5 37 1 0 -3 5 1 10 9 8 12 13 13 29 3 10 -6 28 -9 40 -6 32 8 25 -7 -10
-19 -49 -17 -27 -19 30 -2 54 16 88 11 107 -13 8 -12 17 -13 50 -4 68 19 72
11 6 -10 -77 -24 -78 -34 -2 -14 30 8 56 12 58 10 9 -8 -109 -36 -130 -30 -21
5 -21 5 -5 -6 23 -14 93 -4 153 21 24 11 44 17 44 14 0 -11 -112 -54 -141 -54
-17 0 -28 -4 -24 -10 11 -19 132 10 211 50 21 11 45 20 54 20 26 0 -112 -61
-179 -78 -38 -10 -66 -23 -68 -32 -3 -9 -1 -11 4 -4 4 5 37 15 72 22 36 6 98
27 139 47 41 19 81 35 91 34 9 0 3 -6 -14 -12 -16 -7 -57 -25 -90 -41 -33 -15
-77 -31 -98 -33 -37 -6 -63 -23 -33 -23 9 0 15 -5 13 -11 -1 -6 3 -13 9 -16 7
-2 11 3 10 12 -1 12 15 22 54 34 30 10 84 31 120 48 67 32 127 53 102 35 -8
-5 -12 -13 -10 -18 4 -11 -130 -83 -155 -84 -10 0 -16 -4 -12 -10 3 -5 13 -7
23 -4 14 5 15 4 2 -5 -11 -8 -11 -11 -2 -11 7 0 15 6 18 14 6 15 63 40 72 32
2 -3 -8 -8 -22 -12 -25 -6 -57 -44 -37 -44 5 0 11 7 15 15 3 8 11 15 18 14 10
0 10 -2 1 -6 -7 -2 -13 -9 -13 -14 0 -4 7 -6 15 -3 8 4 15 12 15 20 0 8 4 14
10 14 5 0 6 -7 3 -17 -4 -11 -3 -14 5 -9 7 4 12 13 12 21 0 7 7 16 16 19 12 4
11 -1 -5 -23 -27 -37 -16 -46 23 -19 17 12 26 15 19 7 -14 -17 -1 -45 16 -35
7 5 9 1 5 -8 -4 -9 1 -18 10 -22 23 -9 20 -27 -4 -19 -25 8 -26 -3 -3 -20 15
-11 15 -15 4 -29 -8 -9 -16 -14 -19 -11 -3 2 1 11 8 20 17 20 6 19 -15 -1 -12
-12 -13 -19 -5 -24 9 -5 9 -9 1 -14 -6 -4 -11 -2 -11 4 0 6 -5 8 -11 4 -8 -4
-7 -9 2 -16 10 -7 9 -8 -6 -4 -20 6 -20 6 -1 -9 11 -8 25 -15 30 -15 6 0 5 4
-3 9 -7 5 -9 11 -4 14 5 3 15 2 23 -4 8 -5 12 -9 8 -9 -4 0 6 -13 24 -30 33
-32 49 -40 28 -15 -18 22 -4 31 18 12 30 -27 35 -19 7 10 -25 28 -32 43 -17
43 10 -1 48 -30 38 -30 -4 0 0 -8 10 -17 16 -16 15 -18 -15 -30 -17 -7 -31
-19 -31 -27 0 -15 33 -15 103 0 17 4 27 1 27 -6 0 -9 4 -9 15 0 13 11 13 15 3
23 -9 6 -8 7 5 3 12 -4 36 11 75 46 73 65 109 96 151 131 l34 28 48 -49 c30
-31 51 -46 57 -40 6 6 20 4 36 -7 30 -20 34 -14 9 11 -16 15 -16 17 2 30 10 8
29 12 42 9 22 -3 66 10 121 37 19 10 26 8 52 -17 30 -29 39 -59 20 -70 -12 -7
-4 -25 11 -25 5 0 9 6 9 14 0 8 7 16 15 20 8 3 15 15 15 26 0 25 27 37 43 21
9 -9 8 -14 -3 -22 -12 -8 -12 -12 -2 -16 8 -3 10 -9 4 -16 -5 -7 -7 -27 -5
-46 4 -24 8 -29 15 -20 7 10 8 6 4 -12 -3 -15 1 -40 10 -59 14 -27 14 -34 3
-42 -11 -7 -9 -8 6 -6 16 3 20 11 18 41 -1 21 1 36 5 34 39 -23 85 -38 97 -33
8 3 15 1 15 -4 0 -6 -20 -10 -45 -10 -32 0 -45 -4 -45 -14 0 -8 -3 -21 -6 -30
-3 -9 -1 -16 5 -16 6 0 11 9 11 19 0 26 13 33 42 22 12 -6 17 -10 10 -10 -7
-1 -17 -12 -23 -25 -9 -19 -18 -23 -50 -22 -21 0 -40 -3 -41 -9 -4 -20 -37
-47 -48 -40 -7 4 -16 2 -20 -5 -11 -18 -30 -3 -23 18 4 13 3 14 -6 6 -12 -11
-5 -44 9 -44 4 0 52 -43 106 -95 54 -52 106 -95 114 -95 8 0 67 17 130 36 63
19 135 42 160 49 25 7 73 22 107 33 35 11 65 16 69 11 3 -5 14 -9 25 -9 11 0
17 4 14 10 -3 6 3 10 14 10 11 0 23 5 26 10 3 6 21 10 38 10 18 1 45 7 62 14
29 12 30 12 52 -36 21 -47 23 -48 65 -48 24 0 52 7 62 15 28 21 45 19 56 -7 5
-14 9 614 9 1580 l1 1602 -3900 0 -3900 0 0 -40z m1014 -337 c-33 -111 -8
-188 76 -231 41 -22 54 -23 150 -19 83 4 147 16 304 57 237 61 374 75 451 46
53 -21 75 -48 75 -93 0 -76 -44 -150 -206 -348 -70 -86 -93 -135 -94 -198 0
-115 60 -164 295 -238 50 -16 98 -29 108 -29 14 0 17 -9 17 -58 l0 -58 58 -30
c117 -61 192 -106 192 -115 0 -4 7 -6 15 -3 18 7 20 -12 3 -20 -7 -3 -1 -3 13
0 15 3 40 -1 57 -10 44 -23 52 -20 52 17 0 17 3 56 6 84 l7 53 168 -87 c158
-81 169 -88 169 -115 0 -26 -9 -33 -135 -95 -74 -37 -135 -70 -135 -73 0 -4
16 -14 35 -23 35 -16 61 -59 49 -78 -3 -6 0 -16 6 -24 10 -12 14 -12 28 2 12
12 13 18 4 21 -6 2 -12 14 -12 26 0 17 15 29 73 58 l73 36 38 -20 c35 -18 40
-18 54 -4 11 11 12 16 4 16 -7 0 -12 11 -12 25 0 21 11 31 73 61 l74 36 64
-35 c67 -36 84 -67 50 -87 -10 -6 -11 -10 -3 -10 6 0 12 -12 12 -27 -1 -25 -9
-32 -75 -62 l-74 -33 -35 22 c-32 19 -37 20 -51 6 -9 -9 -11 -17 -5 -21 5 -3
10 -16 10 -28 0 -17 -15 -29 -73 -55 l-72 -34 -36 19 c-30 16 -39 18 -53 7
-11 -8 -13 -14 -7 -19 6 -3 11 -16 11 -29 0 -17 -14 -28 -70 -54 l-70 -32 -50
25 -49 25 -16 -31 c-21 -40 -11 -83 24 -108 36 -26 144 -43 218 -35 67 6 242
39 323 60 30 8 95 14 146 14 78 0 96 -3 124 -22 44 -30 54 -69 35 -133 -8 -27
-19 -56 -24 -64 -7 -11 -296 -12 -1774 -6 l-1766 8 -5 41 c-3 23 -13 205 -21
406 -18 420 -50 1141 -65 1440 -6 113 -10 233 -10 268 l0 62 634 0 634 0 -14
-47z m1502 -105 c4 -7 3 -8 -4 -4 -7 4 -12 2 -12 -5 0 -7 -3 -10 -6 -6 -6 5 3
27 11 27 2 0 7 -5 11 -12z m44 -1 c0 -8 -7 -14 -15 -14 -25 0 -17 17 13 26 1
1 2 -5 2 -12z m17 -9 c-3 -8 -6 -5 -6 6 -1 11 2 17 5 13 3 -3 4 -12 1 -19z
m280 0 c-3 -8 -6 -5 -6 6 -1 11 2 17 5 13 3 -3 4 -12 1 -19z m468 12 c3 -5 1
-10 -4 -10 -6 0 -11 5 -11 10 0 6 2 10 4 10 3 0 8 -4 11 -10z m313 -15 c-3 -3
-9 2 -12 12 -6 14 -5 15 5 6 7 -7 10 -15 7 -18z m62 15 c0 -5 -5 -10 -11 -10
-5 0 -7 5 -4 10 3 6 8 10 11 10 2 0 4 -4 4 -10z m-1220 -10 c0 -5 -7 -7 -15
-4 -8 4 -15 8 -15 10 0 2 7 4 15 4 8 0 15 -4 15 -10z m4010 -189 c0 -13 11
-24 33 -32 l34 -12 -40 -58 c-21 -33 -64 -85 -95 -117 -32 -33 -87 -101 -125
-153 -37 -52 -94 -130 -127 -174 -32 -44 -83 -113 -112 -153 -29 -40 -60 -82
-68 -92 -66 -81 -85 -104 -96 -114 -6 -7 -19 -26 -28 -44 -9 -18 -21 -32 -26
-32 -6 0 -9 -6 -7 -12 1 -7 -4 -12 -11 -10 -8 1 -11 -1 -8 -6 7 -12 -42 -78
-55 -74 -6 1 -8 -2 -4 -8 3 -6 -11 -27 -32 -48 -50 -50 -93 -99 -123 -142 -13
-19 -27 -37 -30 -40 -3 -3 -24 -28 -46 -57 l-41 -52 -1 31 c0 17 13 56 29 87
65 121 80 145 92 153 9 6 9 8 0 8 -7 0 -13 5 -13 11 0 6 6 9 14 6 9 -4 24 10
42 36 15 23 55 81 90 129 43 59 62 93 58 105 -4 12 -3 14 3 6 6 -9 17 -2 37
24 23 29 26 37 15 45 -11 8 -11 9 2 5 19 -6 124 127 114 144 -4 6 2 13 14 16
11 3 26 18 33 34 7 16 16 29 19 29 6 0 141 173 235 303 31 42 62 77 69 77 14
0 45 42 45 62 0 7 16 26 35 41 19 15 35 35 35 43 0 21 19 54 30 54 6 0 10 -9
10 -19z m-1482 -40 c3 -9 11 -20 18 -26 19 -16 35 -80 37 -144 1 -32 6 -57 11
-53 5 3 6 0 3 -5 -6 -10 28 -187 39 -205 4 -5 6 -26 5 -46 0 -46 28 -193 40
-208 5 -6 6 -20 2 -29 -4 -13 -3 -16 5 -11 8 5 10 2 6 -8 -3 -9 -2 -16 4 -16
9 0 7 -48 -4 -82 -4 -13 -1 -16 9 -12 10 4 14 -3 13 -25 -1 -17 -4 -31 -9 -31
-4 0 -3 -8 2 -17 12 -22 50 -168 54 -210 2 -16 7 -35 11 -42 4 -6 9 -26 12
-44 2 -18 6 -43 9 -57 22 -111 65 -339 68 -355 1 -11 6 -26 11 -34 7 -11 -4
-12 -70 -6 -43 4 -81 9 -83 10 -1 2 9 19 23 38 28 37 32 72 16 140 -5 23 -30
137 -55 252 -25 116 -50 228 -55 250 -10 44 -30 143 -30 151 0 3 9 3 20 -1 24
-8 21 5 -23 83 -16 30 -36 81 -43 115 -73 342 -105 507 -108 552 -1 11 -5 26
-10 33 -4 7 -5 24 -2 37 5 19 12 23 37 23 18 -1 33 -7 37 -17z m1756 -115 c30
-40 30 -40 14 -58 -7 -8 -22 -25 -33 -38 l-20 -25 25 20 c14 11 40 33 58 50
l34 30 24 -30 c13 -16 24 -36 24 -43 0 -9 5 -10 19 -2 17 8 24 5 45 -23 15
-19 26 -39 26 -45 0 -15 -31 -31 -48 -25 -15 6 -72 -44 -72 -63 0 -7 -9 -16
-21 -19 -32 -10 -61 -44 -55 -62 4 -10 -3 -24 -16 -37 -20 -18 -305 -283 -334
-311 -6 -5 -110 -98 -230 -205 -120 -107 -248 -223 -284 -257 -36 -35 -72 -69
-80 -76 -40 -36 -306 -282 -310 -287 -6 -8 -46 -30 -54 -30 -11 0 -6 43 10 76
9 18 42 63 75 100 63 71 75 95 34 68 -14 -9 -25 -12 -25 -7 0 41 237 294 644
686 250 241 461 449 425 419 -30 -26 -54 -29 -45 -6 5 12 2 15 -10 10 -8 -3
-19 -6 -23 -6 -9 0 -55 -42 -211 -193 -271 -264 -323 -311 -302 -281 12 17
127 134 257 259 129 125 235 234 235 241 0 7 12 26 28 42 15 16 35 41 45 56
10 14 26 26 35 26 9 1 29 19 44 40 15 22 32 40 37 40 5 0 20 -15 35 -34z
m-4214 -72 l68 -37 -5 -76 c-8 -112 -18 -119 -111 -72 -82 42 -86 48 -78 133
9 102 22 107 126 52z m512 -104 c-3 -25 -7 -28 -18 -19 -8 6 -14 25 -14 41 0
25 3 27 18 19 14 -7 18 -18 14 -41z m38 10 c0 -5 -2 -10 -4 -10 -3 0 -8 5 -11
10 -3 6 -1 10 4 10 6 0 11 -4 11 -10z m-879 -35 c82 -37 87 -42 67 -57 -13
-10 -18 -30 -19 -85 -1 -40 -3 -73 -4 -73 -1 0 -29 14 -63 30 -34 17 -67 30
-72 30 -6 0 -10 36 -10 84 0 107 9 113 101 71z m879 -6 c0 -11 -4 -17 -10 -14
-5 3 -10 13 -10 21 0 8 5 14 10 14 6 0 10 -9 10 -21z m3814 -31 c-7 -11 -34
-10 -34 1 0 6 9 9 19 8 11 0 17 -5 15 -9z m-1239 -54 c204 -26 372 -48 374
-50 17 -15 -50 -9 -375 31 -250 32 -388 45 -429 41 -57 -5 -59 -5 -30 9 17 8
44 14 60 15 17 0 197 -21 400 -46z m-2418 -10 c-3 -3 -12 -4 -19 -1 -8 3 -5 6
6 6 11 1 17 -2 13 -5z m-440 -41 l73 -38 0 -51 c0 -129 -20 -143 -123 -88
l-69 36 6 75 c4 66 17 103 34 103 3 0 39 -17 79 -37z m414 9 c13 -10 39 -24
56 -31 18 -7 30 -17 27 -22 -3 -5 -13 -5 -22 0 -9 4 -37 18 -62 29 -25 12 -53
22 -62 22 -10 0 -18 5 -18 10 0 17 56 11 81 -8z m27 -81 c2 -7 -23 2 -56 20
-33 19 -58 37 -55 42 6 10 105 -45 111 -62z m2217 49 c-3 -5 -11 -10 -16 -10
-6 0 -7 5 -4 10 3 6 11 10 16 10 6 0 7 -4 4 -10z m-145 -4 c0 -2 -7 -7 -16
-10 -8 -3 -12 -2 -9 4 6 10 25 14 25 6z m270 0 c0 -3 -4 -8 -10 -11 -5 -3 -10
-1 -10 4 0 6 5 11 10 11 6 0 10 -2 10 -4z m-160 -16 c0 -5 -5 -10 -11 -10 -5
0 -7 5 -4 10 3 6 8 10 11 10 2 0 4 -4 4 -10z m215 0 c-3 -5 -11 -10 -16 -10
-6 0 -7 5 -4 10 3 6 11 10 16 10 6 0 7 -4 4 -10z m-365 -10 c0 -5 -5 -10 -11
-10 -5 0 -7 5 -4 10 3 6 8 10 11 10 2 0 4 -4 4 -10z m210 6 c0 -3 -4 -8 -10
-11 -5 -3 -10 -1 -10 4 0 6 5 11 10 11 6 0 10 -2 10 -4z m60 -6 c0 -5 -5 -10
-11 -10 -5 0 -7 5 -4 10 3 6 8 10 11 10 2 0 4 -4 4 -10z m210 0 c0 -5 -4 -10
-10 -10 -5 0 -10 5 -10 10 0 6 5 10 10 10 6 0 10 -4 10 -10z m-420 -4 c0 -3
-4 -8 -10 -11 -5 -3 -10 -1 -10 4 0 6 5 11 10 11 6 0 10 -2 10 -4z m270 0 c0
-3 -4 -8 -10 -11 -5 -3 -10 -1 -10 4 0 6 5 11 10 11 6 0 10 -2 10 -4z m210 -6
c0 -5 -7 -10 -16 -10 -8 0 -12 5 -9 10 3 6 10 10 16 10 5 0 9 -4 9 -10z m-360
-4 c0 -3 -4 -8 -10 -11 -5 -3 -10 -1 -10 4 0 6 5 11 10 11 6 0 10 -2 10 -4z
m210 0 c0 -3 -4 -8 -10 -11 -5 -3 -10 -1 -10 4 0 6 5 11 10 11 6 0 10 -2 10
-4z m42 -18 c-7 -7 -12 -8 -12 -2 0 14 12 26 19 19 2 -3 -1 -11 -7 -17z m163
12 c-3 -5 -11 -10 -16 -10 -6 0 -7 5 -4 10 3 6 11 10 16 10 6 0 7 -4 4 -10z
m65 1 c0 -12 -20 -25 -27 -18 -7 7 6 27 18 27 5 0 9 -4 9 -9z m-690 -5 c0 -3
-4 -8 -10 -11 -5 -3 -10 -1 -10 4 0 6 5 11 10 11 6 0 10 -2 10 -4z m55 -6 c-3
-5 -11 -10 -16 -10 -6 0 -7 5 -4 10 3 6 11 10 16 10 6 0 7 -4 4 -10z m265 0
c0 -5 -5 -10 -11 -10 -5 0 -7 5 -4 10 3 6 8 10 11 10 2 0 4 -4 4 -10z m210 0
c0 -5 -4 -10 -10 -10 -5 0 -10 5 -10 10 0 6 5 10 10 10 6 0 10 -4 10 -10z
m210 0 c0 -5 -5 -10 -11 -10 -5 0 -7 5 -4 10 3 6 8 10 11 10 2 0 4 -4 4 -10z
m-360 -4 c0 -3 -4 -8 -10 -11 -5 -3 -10 -1 -10 4 0 6 5 11 10 11 6 0 10 -2 10
-4z m205 -6 c-3 -5 -11 -10 -16 -10 -6 0 -7 5 -4 10 3 6 11 10 16 10 6 0 7 -4
4 -10z m65 1 c0 -5 -7 -12 -16 -15 -14 -5 -15 -4 -4 9 14 17 20 19 20 6z
m-630 -11 c0 -5 -5 -10 -11 -10 -5 0 -7 5 -4 10 3 6 8 10 11 10 2 0 4 -4 4
-10z m470 0 c0 -5 -5 -10 -11 -10 -5 0 -7 5 -4 10 3 6 8 10 11 10 2 0 4 -4 4
-10z m215 0 c-3 -5 -11 -10 -16 -10 -6 0 -7 5 -4 10 3 6 11 10 16 10 6 0 7 -4
4 -10z m-625 -4 c0 -3 -4 -8 -10 -11 -5 -3 -10 -1 -10 4 0 6 5 11 10 11 6 0
10 -2 10 -4z m60 -6 c0 -5 -4 -10 -10 -10 -5 0 -10 5 -10 10 0 6 5 10 10 10 6
0 10 -4 10 -10z m470 -4 c0 -3 -4 -8 -10 -11 -5 -3 -10 -1 -10 4 0 6 5 11 10
11 6 0 10 -2 10 -4z m55 -6 c3 -5 -1 -10 -10 -10 -9 0 -13 5 -10 10 3 6 8 10
10 10 2 0 7 -4 10 -10z m-565 -10 c0 -5 -5 -10 -11 -10 -5 0 -7 5 -4 10 3 6 8
10 11 10 2 0 4 -4 4 -10z m60 -4 c0 -3 -4 -8 -10 -11 -5 -3 -10 -1 -10 4 0 6
5 11 10 11 6 0 10 -2 10 -4z m-90 -16 c0 -5 -5 -10 -11 -10 -5 0 -7 5 -4 10 3
6 8 10 11 10 2 0 4 -4 4 -10z m60 -4 c0 -3 -4 -8 -10 -11 -5 -3 -10 -1 -10 4
0 6 5 11 10 11 6 0 10 -2 10 -4z m-3122 -50 c3 -20 0 -27 -10 -24 -7 3 -14 17
-16 32 -3 20 0 27 10 24 7 -3 14 -17 16 -32z m54 2 c7 -7 33 -23 58 -35 38
-19 40 -22 15 -17 l-30 5 29 -17 c29 -16 47 -22 76 -23 13 -1 13 -2 0 -12 -11
-8 -12 -12 -2 -16 21 -8 13 -23 -13 -23 -14 0 -34 9 -45 20 -11 11 -20 18 -20
15 0 -9 -60 25 -81 46 -25 25 -25 47 1 24 11 -10 23 -15 27 -12 3 4 -7 18 -23
32 -16 14 -24 25 -17 25 6 0 18 -6 25 -12z m2688 -83 c-6 -67 -7 -71 -9 -29
-1 48 8 118 14 112 2 -2 0 -39 -5 -83z m39 43 c0 -28 -2 -30 -9 -13 -12 28
-12 45 0 45 6 0 10 -15 9 -32z m241 28 c0 -3 -4 -8 -10 -11 -5 -3 -10 -1 -10
4 0 6 5 11 10 11 6 0 10 -2 10 -4z m50 -6 c0 -5 -5 -10 -11 -10 -5 0 -7 5 -4
10 3 6 8 10 11 10 2 0 4 -4 4 -10z m60 -4 c0 -3 -4 -8 -10 -11 -5 -3 -10 -1
-10 4 0 6 5 11 10 11 6 0 10 -2 10 -4z m-90 -16 c0 -5 -5 -10 -11 -10 -5 0 -7
5 -4 10 3 6 8 10 11 10 2 0 4 -4 4 -10z m-2220 -35 l70 -35 0 -78 c0 -72 -2
-80 -24 -91 -21 -11 -31 -9 -92 26 l-69 39 4 74 c2 54 7 78 19 87 22 16 12 18
92 -22z m2270 25 c0 -5 -5 -10 -11 -10 -5 0 -7 5 -4 10 3 6 8 10 11 10 2 0 4
-4 4 -10z m280 6 c0 -3 -4 -8 -10 -11 -5 -3 -10 -1 -10 4 0 6 5 11 10 11 6 0
10 -2 10 -4z m50 -6 c0 -5 -5 -10 -11 -10 -5 0 -7 5 -4 10 3 6 8 10 11 10 2 0
4 -4 4 -10z m150 0 c0 -5 -5 -10 -11 -10 -5 0 -7 5 -4 10 3 6 8 10 11 10 2 0
4 -4 4 -10z m-3570 -22 c0 -13 -23 -5 -28 10 -2 7 2 10 12 6 9 -3 16 -11 16
-16z m3010 12 c0 -5 -5 -10 -11 -10 -5 0 -7 5 -4 10 3 6 8 10 11 10 2 0 4 -4
4 -10z m50 -10 c0 -5 -4 -10 -10 -10 -5 0 -10 5 -10 10 0 6 5 10 10 10 6 0 10
-4 10 -10z m270 0 c0 -5 -5 -10 -11 -10 -5 0 -7 5 -4 10 3 6 8 10 11 10 2 0 4
-4 4 -10z m210 6 c0 -3 -4 -8 -10 -11 -5 -3 -10 -1 -10 4 0 6 5 11 10 11 6 0
10 -2 10 -4z m-510 -20 c0 -3 -4 -8 -10 -11 -5 -3 -10 -1 -10 4 0 6 5 11 10
11 6 0 10 -2 10 -4z m470 0 c0 -3 -4 -8 -10 -11 -5 -3 -10 -1 -10 4 0 6 5 11
10 11 6 0 10 -2 10 -4z m-250 -10 c0 -3 -4 -8 -10 -11 -5 -3 -10 -1 -10 4 0 6
5 11 10 11 6 0 10 -2 10 -4z m100 -6 c0 -5 -5 -10 -11 -10 -5 0 -7 5 -4 10 3
6 8 10 11 10 2 0 4 -4 4 -10z m60 6 c0 -3 -4 -8 -10 -11 -5 -3 -10 -1 -10 4 0
6 5 11 10 11 6 0 10 -2 10 -4z m145 -6 c-3 -5 -11 -10 -16 -10 -6 0 -7 5 -4
10 3 6 11 10 16 10 6 0 7 -4 4 -10z m-3511 -15 c8 -9 19 -16 23 -16 37 0 113
-34 113 -50 0 -6 -9 -5 -22 3 -13 7 -26 11 -31 10 -10 -3 -87 37 -105 54 -7 8
-9 14 -3 14 5 0 16 -7 25 -15z m2956 11 c0 -3 -4 -8 -10 -11 -5 -3 -10 -1 -10
4 0 6 5 11 10 11 6 0 10 -2 10 -4z m465 -6 c-3 -5 -11 -10 -16 -10 -6 0 -7 5
-4 10 3 6 11 10 16 10 6 0 7 -4 4 -10z m-3195 -10 c13 -9 13 -11 0 -20 -8 -5
-19 -9 -25 -9 -5 0 -4 3 3 6 10 4 10 8 1 19 -13 16 -1 18 21 4z m3042 -12 c-7
-7 -12 -8 -12 -2 0 14 12 26 19 19 2 -3 -1 -11 -7 -17z m63 3 c-3 -6 -11 -11
-17 -11 -6 0 -6 6 2 15 14 17 26 13 15 -4z m145 9 c0 -5 -4 -10 -10 -10 -5 0
-10 5 -10 10 0 6 5 10 10 10 6 0 10 -4 10 -10z m-3525 -10 c3 -5 -1 -10 -9
-10 -9 0 -16 5 -16 10 0 6 4 10 9 10 6 0 13 -4 16 -10z m3275 6 c0 -3 -4 -8
-10 -11 -5 -3 -10 -1 -10 4 0 6 5 11 10 11 6 0 10 -2 10 -4z m140 -26 c-37
-28 -50 -24 -15 4 17 13 32 22 35 19 3 -2 -6 -13 -20 -23z m-340 10 c0 -5 -5
-10 -11 -10 -5 0 -7 5 -4 10 3 6 8 10 11 10 2 0 4 -4 4 -10z m410 -5 c-7 -9
-15 -13 -17 -11 -7 7 7 26 19 26 6 0 6 -6 -2 -15z m-3370 -40 c50 -25 90 -50
90 -55 0 -10 -164 71 -184 91 -19 18 6 8 94 -36z m3180 35 c0 -5 -5 -10 -11
-10 -5 0 -7 5 -4 10 3 6 8 10 11 10 2 0 4 -4 4 -10z m50 -10 c0 -5 -4 -10 -10
-10 -5 0 -10 5 -10 10 0 6 5 10 10 10 6 0 10 -4 10 -10z m102 -12 c-7 -7 -12
-8 -12 -2 0 14 12 26 19 19 2 -3 -1 -11 -7 -17z m-3172 -8 c8 -5 12 -11 9 -14
-3 -3 -14 1 -25 9 -21 16 -8 20 16 5z m10 -70 c0 -15 -36 -3 -37 12 -2 15 1
16 18 5 10 -6 19 -14 19 -17z m-3 -56 c-7 -7 -37 7 -37 17 0 6 9 5 21 -1 11
-7 19 -14 16 -16z m3053 -88 c0 -3 -4 -8 -10 -11 -5 -3 -10 -1 -10 4 0 6 5 11
10 11 6 0 10 -2 10 -4z m-20 -60 c0 -3 -4 -8 -10 -11 -5 -3 -10 -1 -10 4 0 6
5 11 10 11 6 0 10 -2 10 -4z m-660 -396 c0 -5 -7 -10 -16 -10 -8 0 -12 5 -9
10 3 6 10 10 16 10 5 0 9 -4 9 -10z m2457 -6 c-3 -3 -12 -4 -19 -1 -8 3 -5 6
6 6 11 1 17 -2 13 -5z m33 -34 c0 -5 -4 -10 -10 -10 -5 0 -10 5 -10 10 0 6 5
10 10 10 6 0 10 -4 10 -10z m-2010 -210 c-8 -5 -22 -10 -30 -10 -13 0 -13 1 0
10 8 5 22 10 30 10 13 0 13 -1 0 -10z m120 -10 c-20 -13 -33 -13 -25 0 3 6 14
10 23 10 15 0 15 -2 2 -10z m55 -10 c-28 -12 -37 -12 -30 0 3 6 16 10 28 9 21
0 21 -1 2 -9z m1824 -4 c-12 -10 -59 -15 -59 -6 0 5 14 10 32 10 17 0 29 -2
27 -4z m-1594 -26 c-28 -12 -37 -12 -30 0 3 6 16 10 28 9 21 0 21 -1 2 -9z
m62 -6 c-3 -3 -12 -4 -19 -1 -8 3 -5 6 6 6 11 1 17 -2 13 -5z m-62 -16 c-16
-6 -38 -17 -47 -26 -12 -10 -18 -11 -18 -3 0 13 55 40 80 40 8 0 2 -5 -15 -11z
m103 5 c-38 -10 -16 -20 23 -12 23 6 47 8 53 5 6 -2 1 -5 -10 -5 -12 -1 -24
-8 -28 -16 -3 -8 -10 -15 -16 -15 -6 0 -8 5 -5 10 3 6 1 10 -4 10 -6 0 -11 -4
-11 -9 0 -5 -7 -11 -14 -14 -10 -4 -13 -1 -9 9 4 10 0 12 -12 8 -16 -6 -16 -5
1 14 10 12 25 21 34 21 11 -1 11 -2 -2 -6z m-58 -15 c-14 -6 -36 -15 -50 -21
-43 -19 -45 -20 -34 -8 6 7 29 19 50 26 45 16 71 19 34 3z m189 -25 c-13 -16
-28 -30 -33 -32 -4 -2 -3 -7 4 -11 8 -5 7 -11 -4 -23 -11 -11 -12 -17 -4 -19
13 -5 2 -28 -13 -28 -6 0 -8 4 -5 9 4 5 1 11 -5 13 -8 3 -6 10 5 21 10 9 13
17 8 17 -16 0 -44 -38 -32 -42 8 -2 6 -9 -6 -18 -11 -9 -15 -10 -10 -2 4 6 2
12 -3 12 -6 0 -11 -4 -11 -9 0 -16 21 -24 32 -13 12 12 41 4 32 -9 -3 -5 1 -6
9 -3 9 3 16 -3 20 -15 7 -27 -3 -27 -32 0 -16 15 -26 18 -33 11 -6 -6 -17 -8
-24 -5 -17 6 -19 -13 -2 -23 6 -4 16 0 23 9 11 15 14 15 30 -3 19 -22 13 -42
-7 -22 -21 21 -29 13 -13 -11 13 -20 13 -24 1 -24 -8 0 -15 3 -14 6 2 20 -3
31 -12 26 -5 -3 -10 -1 -10 5 0 6 -5 8 -12 4 -6 -4 -8 -3 -4 4 3 6 -3 13 -14
17 -11 4 -18 11 -15 16 4 5 2 9 -4 9 -6 0 -7 8 -4 18 6 15 5 16 -13 2 -18 -14
-18 -14 -4 5 25 33 60 66 60 57 0 -4 -5 -13 -12 -20 -7 -7 -8 -12 -3 -12 13 0
66 63 59 70 -3 3 -11 -3 -18 -13 -14 -18 -32 -24 -21 -7 14 23 -8 7 -45 -32
-44 -45 -48 -56 -25 -64 24 -10 17 -26 -7 -20 -13 3 -17 3 -10 0 6 -3 10 -10
6 -15 -3 -5 0 -9 5 -9 6 0 11 -4 11 -9 0 -5 -10 -7 -22 -3 -20 5 -20 4 -7 -10
7 -9 18 -13 23 -8 11 11 38 1 30 -11 -3 -5 1 -7 8 -4 7 2 21 -7 31 -20 23 -32
6 -32 -28 -1 -15 14 -34 24 -43 24 -9 0 -26 3 -37 8 -15 6 -13 2 7 -18 15 -14
25 -28 21 -31 -11 -12 -20 -7 -38 19 -16 25 -16 27 6 50 14 15 18 24 9 24 -10
0 -8 5 4 19 12 13 14 20 5 23 -8 3 -6 9 5 21 11 11 13 17 5 17 -6 0 -18 -8
-26 -17 -13 -16 -13 -16 -3 5 6 12 19 22 29 22 10 0 28 14 41 30 14 18 32 30
46 30 13 0 27 6 31 14 8 14 35 22 82 25 l24 1 -24 -27z m698 21 c-3 -3 -12 -4
-19 -1 -8 3 -5 6 6 6 11 1 17 -2 13 -5z m-634 -21 c-3 -7 -9 -13 -15 -13 -5 0
-6 5 -3 10 3 6 2 10 -4 10 -16 0 -22 -18 -9 -23 10 -3 10 -7 -1 -20 -11 -14
-11 -18 3 -23 9 -3 13 -11 9 -17 -3 -6 -1 -7 6 -3 6 4 9 11 6 16 -3 5 -1 11 5
15 6 4 8 11 4 16 -3 5 0 16 6 24 15 18 50 20 50 4 0 -8 5 -8 15 1 8 7 15 10
15 6 0 -10 -34 -46 -43 -46 -5 0 -4 6 2 14 9 10 8 15 -3 19 -9 4 -18 1 -22 -5
-4 -7 -3 -8 4 -4 18 11 14 -5 -5 -28 -17 -20 -17 -20 0 -7 12 9 17 10 17 2 0
-6 -7 -14 -15 -17 -8 -4 -12 -11 -8 -17 3 -5 1 -7 -4 -4 -14 9 -37 -19 -28
-32 3 -6 0 -8 -8 -5 -8 3 -21 -1 -28 -8 -11 -12 -15 -12 -29 1 -15 14 -15 18
-2 34 12 13 12 17 2 17 -8 0 -2 13 15 30 16 17 23 30 17 30 -7 0 -12 -4 -12
-10 0 -5 -5 -10 -12 -10 -6 0 1 13 16 29 28 29 68 39 59 14z m-263 3 c0 -7
-63 -37 -67 -32 -2 2 11 11 29 19 37 18 38 19 38 13z m11 -25 c-10 -10 -20
-24 -22 -30 -2 -6 -14 -13 -27 -16 -19 -3 -21 -1 -12 15 6 10 16 22 23 26 8 5
7 2 -2 -9 -8 -10 -11 -20 -9 -23 3 -3 16 9 28 25 12 17 26 31 31 31 5 0 1 -8
-10 -19z m244 -21 c-3 -5 -11 -10 -16 -10 -6 0 -7 5 -4 10 3 6 11 10 16 10 6
0 7 -4 4 -10z m535 -4 c0 -2 -7 -7 -16 -10 -8 -3 -12 -2 -9 4 6 10 25 14 25 6z
m90 -26 c0 -5 -9 -14 -20 -20 -17 -9 -20 -8 -20 10 0 13 7 20 20 20 11 0 20
-4 20 -10z m-75 -20 c-3 -5 -10 -10 -16 -10 -5 0 -9 5 -9 10 0 6 7 10 16 10 8
0 12 -4 9 -10z m55 -44 c0 -3 -4 -8 -10 -11 -5 -3 -10 -1 -10 4 0 6 5 11 10
11 6 0 10 -2 10 -4z m-800 -31 c0 -1 -8 -9 -17 -16 -11 -10 -14 -10 -9 -1 4 7
2 12 -4 12 -6 0 -9 4 -5 10 5 8 35 4 35 -5z m1000 5 c0 -5 -4 -10 -10 -10 -5
0 -10 5 -10 10 0 6 5 10 10 10 6 0 10 -4 10 -10z m-970 -35 c14 -8 21 -14 16
-15 -5 0 -3 -7 4 -15 19 -23 -2 -17 -32 10 -42 36 -35 47 12 20z m-5771 -77
c-1 -19 -2 -20 -6 -5 -5 18 -16 19 -176 15 -114 -2 -180 -8 -194 -16 -14 -8
-23 -9 -23 -3 0 6 10 13 23 15 12 3 31 7 42 9 11 3 91 5 178 6 157 1 157 1
156 -21z m214 -25 c-35 -2 -91 -2 -125 0 -35 2 -7 3 62 3 69 0 97 -1 63 -3z
m130 -10 c-13 -2 -33 -2 -45 0 -13 2 -3 4 22 4 25 0 35 -2 23 -4z m-769 -27
c-21 -15 -30 -14 -19 3 3 6 14 11 23 11 13 0 13 -2 -4 -14z m126 -126 c0 -5
-4 -10 -10 -10 -5 0 -10 5 -10 10 0 6 5 10 10 10 6 0 10 -4 10 -10z m573 3
c-7 -2 -21 -2 -30 0 -10 3 -4 5 12 5 17 0 24 -2 18 -5z m54 1 c-3 -3 -12 -4
-19 -1 -8 3 -5 6 6 6 11 1 17 -2 13 -5z m660 -66 c-3 -8 -6 -5 -6 6 -1 11 2
17 5 13 3 -3 4 -12 1 -19z m-137 -22 c0 -5 -7 -3 -15 4 -8 7 -12 17 -9 22 7
10 24 -9 24 -26z m257 12 c-3 -8 -6 -5 -6 6 -1 11 2 17 5 13 3 -3 4 -12 1 -19z
m-812 2 c3 -5 1 -10 -4 -10 -6 0 -11 5 -11 10 0 6 2 10 4 10 3 0 8 -4 11 -10z
m285 0 c0 -5 -4 -10 -10 -10 -5 0 -10 5 -10 10 0 6 5 10 10 10 6 0 10 -4 10
-10z m-760 -20 c0 -5 -4 -10 -10 -10 -5 0 -10 5 -10 10 0 6 5 10 10 10 6 0 10
-4 10 -10z m30 0 c0 -5 -4 -10 -10 -10 -5 0 -10 5 -10 10 0 6 5 10 10 10 6 0
10 -4 10 -10z m304 -5 c3 -8 1 -15 -4 -15 -6 0 -10 7 -10 15 0 8 2 15 4 15 2
0 6 -7 10 -15z m411 -55 c91 -4 107 -7 65 -10 l-55 -5 -3 -95 c-5 -150 -14
-140 137 -140 94 0 131 3 135 13 5 10 7 10 12 0 4 -9 43 -14 137 -15 73 -1
104 -3 70 -5 l-63 -4 0 -119 c0 -119 0 -120 25 -126 13 -3 47 -4 75 -2 27 1
50 0 50 -4 0 -5 -18 -8 -40 -8 l-40 0 -2 -97 -2 -98 -3 96 c-4 114 9 106 -166
101 l-108 -3 3 -117 3 -117 129 -3 c113 -2 130 -1 142 15 11 14 14 14 12 3 -3
-13 18 -15 130 -18 130 -3 133 -2 142 20 l9 23 0 -22 c1 -23 4 -23 134 -25 72
-1 107 -3 77 -5 -30 -3 -60 -9 -67 -15 -9 -7 -13 -7 -13 1 0 15 -234 15 -261
0 -15 -7 -24 -7 -34 1 -15 12 -247 11 -259 -1 -4 -3 -3 -58 0 -122 6 -105 9
-117 26 -117 10 0 18 -5 18 -11 0 -5 -4 -8 -9 -4 -5 3 -16 -2 -24 -10 -10 -9
-17 -11 -19 -4 -4 12 -319 16 -337 4 -7 -3 -8 -49 -4 -120 4 -82 3 -115 -5
-115 -7 0 -11 14 -10 33 1 17 1 72 0 120 l-2 88 -132 -3 -133 -3 -3 -109 c-2
-71 1 -113 9 -122 12 -15 1 -19 -16 -6 -6 4 -10 57 -10 122 l0 115 -130 0
-130 0 -3 -114 c-2 -85 1 -117 10 -123 9 -5 5 -8 -12 -8 l-25 0 0 122 0 123
-133 0 c-124 0 -132 1 -132 20 0 15 3 16 12 7 8 -8 59 -12 165 -12 140 0 153
2 163 19 12 23 13 200 1 219 -6 10 -46 12 -174 10 -107 -2 -167 1 -167 7 0 6
82 9 232 7 212 -3 234 -2 245 14 15 20 18 201 4 222 -6 10 -58 12 -243 10
-152 -2 -235 1 -235 7 0 6 71 9 198 7 191 -3 198 -2 209 18 17 31 11 198 -8
216 -12 13 -41 14 -178 10 -107 -4 -164 -3 -164 4 0 6 42 10 105 10 l106 0 -3
118 -3 117 -127 3 c-71 1 -128 6 -128 10 0 4 93 6 206 5 177 -2 205 0 200 12
-3 8 -1 15 4 15 6 0 10 -7 10 -15 0 -14 19 -16 133 -14 l134 1 -4 26 -4 27 13
-25 c13 -24 18 -25 133 -30z m142 20 c-3 -12 -1 -20 6 -19 33 4 250 -2 245 -7
-7 -7 -246 -6 -258 1 -8 5 -2 45 7 45 3 0 3 -9 0 -20z m274 -13 c-10 -9 -11
-8 -5 6 3 10 9 15 12 12 3 -3 0 -11 -7 -18z m72 -14 c-7 -2 -19 -2 -25 0 -7 3
-2 5 12 5 14 0 19 -2 13 -5z m104 1 c-3 -3 -12 -4 -19 -1 -8 3 -5 6 6 6 11 1
17 -2 13 -5z m-310 -116 c-2 -18 -4 -4 -4 32 0 36 2 50 4 33 2 -18 2 -48 0
-65z m280 -20 c-2 -24 -4 -7 -4 37 0 44 2 63 4 43 2 -21 2 -57 0 -80z m280 60
c-3 -7 -5 -2 -5 12 0 14 2 19 5 13 2 -7 2 -19 0 -25z m1110 26 c-3 -4 -2 -15
4 -25 7 -15 6 -19 -5 -19 -8 0 -18 5 -22 11 -4 8 -9 7 -15 -2 -4 -7 -11 -11
-14 -7 -8 8 31 48 47 48 6 0 8 -3 5 -6z m-1857 -25 c0 -5 -7 -9 -15 -9 -9 0
-12 6 -9 15 6 15 24 11 24 -6z m273 -12 c-3 -5 -9 -3 -14 4 -4 7 -5 17 -2 22
3 5 9 3 14 -4 4 -7 5 -17 2 -22z m277 18 c11 -13 10 -14 -4 -9 -9 3 -16 10
-16 15 0 13 6 11 20 -6z m564 -1 c4 -10 1 -14 -6 -12 -15 5 -23 28 -10 28 5 0
13 -7 16 -16z m-1944 -4 c0 -5 -4 -10 -10 -10 -5 0 -10 5 -10 10 0 6 5 10 10
10 6 0 10 -4 10 -10z m107 -5 c0 -8 -4 -12 -9 -9 -5 3 -6 10 -3 15 9 13 12 11
12 -6z m1750 -32 c-3 -10 -5 -2 -5 17 0 19 2 27 5 18 2 -10 2 -26 0 -35z
m2362 1 c-6 -7 -15 -11 -20 -8 -5 3 -3 11 4 18 16 18 31 8 16 -10z m-37 -44
c-2 -16 -6 -30 -8 -30 -2 0 -4 14 -4 30 0 17 4 30 8 30 5 0 7 -13 4 -30z
m-3352 -7 c0 -21 -3 -24 -9 -13 -6 8 -8 17 -5 21 2 4 -2 10 -8 12 -8 3 -6 6 5
6 12 1 17 -7 17 -26z m279 0 c0 -25 -1 -26 -9 -8 -5 12 -9 14 -9 6 -1 -8 -3
-12 -6 -9 -8 7 5 38 16 38 5 0 9 -12 8 -27z m285 -15 c-3 -4 -13 -8 -22 -7
-14 0 -13 2 3 9 17 7 17 9 3 9 -10 1 -18 8 -18 16 0 12 3 12 19 -2 11 -9 18
-20 15 -25z m261 32 c-3 -5 2 -11 12 -11 16 -1 16 -2 -1 -6 -15 -4 -16 -7 -5
-14 9 -6 10 -9 2 -9 -6 0 -15 5 -18 10 -7 12 0 40 10 40 4 0 3 -4 0 -10z m202
-12 c-3 -8 -6 -5 -6 6 -1 11 2 17 5 13 3 -3 4 -12 1 -19z m84 -9 c-5 -13 -10
-19 -10 -12 -1 15 10 45 15 40 3 -2 0 -15 -5 -28z m282 22 c3 8 6 1 6 -16 0
-21 -2 -26 -8 -16 -7 11 -9 11 -14 0 -3 -8 -6 0 -6 16 0 21 2 26 8 16 7 -11 9
-11 14 0z m-2225 -29 c5 -31 -15 -27 -21 3 -3 16 0 24 7 22 6 -2 12 -13 14
-25z m111 14 c9 -10 8 -15 -2 -19 -8 -3 -13 3 -14 14 -2 23 1 24 16 5z m804
-11 c-7 -21 -13 -19 -13 6 0 11 4 18 10 14 5 -3 7 -12 3 -20z m47 14 c0 -5 -4
-7 -10 -4 -5 3 -10 -1 -10 -10 0 -9 -4 -14 -10 -10 -13 8 -1 35 16 35 8 0 14
-5 14 -11z m264 -4 c11 -8 18 -17 15 -19 -2 -3 -15 4 -29 14 -14 11 -20 20
-15 19 6 0 19 -6 29 -14z m2983 -27 c-3 -7 -5 -2 -5 12 0 14 2 19 5 13 2 -7 2
-19 0 -25z m-2770 -53 c73 0 128 -4 124 -8 -13 -13 -241 -9 -257 4 -8 6 -14
21 -13 33 1 19 2 18 8 -4 l7 -25 131 0z m1543 28 c34 -23 37 -29 35 -64 -2
-26 2 -31 27 -36 15 -3 28 -9 28 -13 0 -5 16 -23 35 -41 19 -19 35 -39 35 -46
0 -7 5 -13 11 -13 6 0 8 -7 5 -15 -4 -10 2 -19 18 -25 32 -12 69 -78 107 -193
39 -116 33 -136 -28 -95 -21 14 -53 40 -71 58 -33 34 -119 201 -129 254 -8 38
-51 107 -90 144 -51 48 -75 80 -68 91 10 17 57 13 85 -6z m-3030 -42 c0 -5
-11 -11 -25 -13 -24 -5 -32 2 -18 15 9 10 43 8 43 -2z m1743 2 c-18 -2 -48 -2
-65 0 -18 2 -4 4 32 4 36 0 50 -2 33 -4z m80 0 c-7 -2 -21 -2 -30 0 -10 3 -4
5 12 5 17 0 24 -2 18 -5z m44 1 c-3 -3 -12 -4 -19 -1 -8 3 -5 6 6 6 11 1 17
-2 13 -5z m196 -1 c-7 -2 -19 -2 -25 0 -7 3 -2 5 12 5 14 0 19 -2 13 -5z
m-566 -180 c-2 -32 -3 -8 -3 52 0 61 1 87 3 58 2 -29 2 -78 0 -110z m83 127
c0 -5 -4 -10 -10 -10 -5 0 -10 5 -10 10 0 6 5 10 10 10 6 0 10 -4 10 -10z
m213 -192 c7 -5 0 -7 -18 -7 -16 0 -24 3 -17 6 8 3 13 36 14 106 l2 102 3
-100 c3 -63 8 -102 16 -107z m70 174 c-8 -21 -9 -21 -21 -2 -10 16 -9 18 3 14
8 -4 15 -1 15 7 0 7 2 10 5 7 3 -3 2 -15 -2 -26z m-586 -14 c-3 -7 -5 -2 -5
12 0 14 2 19 5 13 2 -7 2 -19 0 -25z m28 2 c1 -10 -2 -17 -6 -14 -4 2 -7 13
-6 24 2 23 10 17 12 -10z m812 -2 c-3 -7 -5 -2 -5 12 0 14 2 19 5 13 2 -7 2
-19 0 -25z m25 -10 c-6 -6 -7 0 -4 19 5 21 7 23 10 9 2 -10 0 -22 -6 -28z
m275 10 c-3 -7 -5 -2 -5 12 0 14 2 19 5 13 2 -7 2 -19 0 -25z m-80 -40 c-2
-13 -4 -3 -4 22 0 25 2 35 4 23 2 -13 2 -33 0 -45z m-757 42 c0 -5 -4 -10 -10
-10 -5 0 -10 5 -10 10 0 6 5 10 10 10 6 0 10 -4 10 -10z m477 -82 c-2 -18 -4
-6 -4 27 0 33 2 48 4 33 2 -15 2 -42 0 -60z m-346 13 c-8 -5 -12 -18 -8 -30 3
-12 1 -19 -4 -15 -17 10 -10 54 9 54 13 0 14 -2 3 -9z m289 -18 c0 -21 -3 -24
-9 -14 -5 8 -7 20 -4 28 8 21 13 15 13 -14z m262 2 c-2 -14 -6 -25 -8 -25 -2
0 -4 11 -4 25 0 14 4 25 9 25 4 0 6 -11 3 -25z m-835 -17 c-3 -7 -5 -2 -5 12
0 14 2 19 5 13 2 -7 2 -19 0 -25z m910 10 c-3 -8 -6 -5 -6 6 -1 11 2 17 5 13
3 -3 4 -12 1 -19z m170 -10 c-3 -7 -5 -2 -5 12 0 14 2 19 5 13 2 -7 2 -19 0
-25z m-2422 0 c-19 -11 -30 -5 -21 11 4 6 14 7 22 4 15 -5 14 -7 -1 -15z
m1428 -65 c-7 -2 -21 -2 -30 0 -10 3 -4 5 12 5 17 0 24 -2 18 -5z m964 1 c-3
-3 -12 -4 -19 -1 -8 3 -5 6 6 6 11 1 17 -2 13 -5z m-1034 -11 c-13 -2 -33 -2
-45 0 -13 2 -3 4 22 4 25 0 35 -2 23 -4z m150 0 c-21 -4 -23 -11 -25 -66 l-2
-62 -3 62 c-3 48 -8 63 -21 66 -9 2 3 3 28 4 25 0 35 -2 23 -4z m-498 -73 c0
-16 -6 -26 -17 -28 -14 -3 -18 3 -18 28 0 25 4 31 18 28 11 -2 17 -12 17 -28z
m268 10 c-8 -31 -23 -34 -23 -6 0 16 6 26 14 26 9 0 12 -7 9 -20z m290 10
c-15 -6 -21 -15 -17 -25 7 -18 20 -20 27 -2 4 9 6 9 6 0 2 -20 -20 -26 -35
-11 -19 19 -7 48 20 47 21 0 21 0 -1 -9z m297 -17 c0 -21 -3 -24 -9 -14 -5 8
-7 20 -4 28 8 21 13 15 13 -14z m120 13 c0 -7 -7 -19 -15 -26 -13 -11 -15 -8
-15 14 0 16 5 26 15 26 8 0 15 -6 15 -14z m150 -11 c0 -17 -5 -25 -17 -24 -11
0 -13 3 -5 6 6 2 12 13 12 24 0 10 2 19 5 19 3 0 5 -11 5 -25z m2050 -8 c0 -5
-4 -5 -10 -2 -5 3 -10 14 -10 23 0 15 2 15 10 2 5 -8 10 -19 10 -23z m-4230
19 c0 -3 -4 -8 -10 -11 -5 -3 -10 -1 -10 4 0 6 5 11 10 11 6 0 10 -2 10 -4z
m1877 -18 c-3 -8 -6 -5 -6 6 -1 11 2 17 5 13 3 -3 4 -12 1 -19z m-1849 -66 c9
-7 10 -15 3 -35 -12 -32 -31 -36 -31 -7 0 11 -5 20 -11 20 -8 0 -8 5 1 15 14
17 20 18 38 7z m2069 -44 c-2 -13 -4 -5 -4 17 -1 22 1 32 4 23 2 -10 2 -28 0
-40z m-912 12 c0 -16 -6 -26 -17 -28 -14 -3 -18 3 -18 28 0 25 4 31 18 28 11
-2 17 -12 17 -28z m284 -10 c1 -3 -8 -6 -19 -6 -23 0 -24 1 -8 29 11 21 11 21
19 2 4 -11 8 -22 8 -25z m254 20 c-3 -11 -7 -20 -9 -20 -2 0 -4 9 -4 20 0 11
4 20 9 20 5 0 7 -9 4 -20z m35 -16 c-3 -14 -5 -12 -10 9 -3 19 -2 25 4 19 6
-6 8 -18 6 -28z m59 -11 c-3 -10 -5 -2 -5 17 0 19 2 27 5 18 2 -10 2 -26 0
-35z m190 15 c-3 -7 -5 -2 -5 12 0 14 2 19 5 13 2 -7 2 -19 0 -25z m28 23 c3
-5 2 -12 -3 -15 -5 -3 -9 1 -9 9 0 17 3 19 12 6z m562 -23 c-3 -7 -5 -2 -5 12
0 14 2 19 5 13 2 -7 2 -19 0 -25z m1410 -50 c-2 -13 -4 -5 -4 17 -1 22 1 32 4
23 2 -10 2 -28 0 -40z m-1949 -24 c-7 -7 -229 -6 -236 1 -3 3 50 5 118 5 68 0
121 -2 118 -6z m109 0 c-3 -3 -12 -4 -19 -1 -8 3 -5 6 6 6 11 1 17 -2 13 -5z
m-490 -91 c-3 -10 -5 -2 -5 17 0 19 2 27 5 18 2 -10 2 -26 0 -35z m-484 30
c-7 -2 -13 -13 -13 -24 0 -13 5 -17 18 -12 13 5 14 3 5 -7 -16 -17 -33 -4 -33
26 0 16 5 24 18 23 10 0 12 -3 5 -6z m287 -14 c0 8 2 12 5 9 3 -3 2 -13 -1
-23 -7 -17 -8 -17 -21 1 -7 10 -13 22 -13 28 0 5 7 1 15 -10 10 -13 14 -15 15
-5z m265 11 c-3 -5 -2 -10 4 -10 5 0 12 6 14 13 3 6 6 0 6 -15 1 -22 -4 -28
-19 -28 -15 0 -20 7 -20 25 0 14 5 25 11 25 5 0 7 -4 4 -10z m315 -30 c0 -5
-4 -10 -10 -10 -5 0 -10 5 -10 10 0 6 5 10 10 10 6 0 10 -4 10 -10z m-383 -67
c-3 -10 -5 -2 -5 17 0 19 2 27 5 18 2 -10 2 -26 0 -35z m2573 1 c0 -2 -7 -4
-15 -4 -8 0 -15 4 -15 10 0 5 7 7 15 4 8 -4 15 -8 15 -10z m-4219 -36 c-10
-11 -11 -10 -6 5 4 10 2 17 -4 17 -6 0 -11 5 -11 12 0 8 6 6 17 -5 14 -14 15
-19 4 -29z m1292 32 c-13 -5 -23 -14 -23 -20 0 -5 10 -11 23 -11 18 -1 19 -2
3 -6 -10 -3 -23 0 -28 5 -16 16 -1 42 24 41 l23 0 -22 -9z m283 -3 c13 17 13
17 14 -6 0 -20 4 -23 30 -19 l29 4 -22 -20 c-12 -12 -35 -22 -52 -24 l-30 -2
23 18 c25 19 20 37 -7 22 -14 -7 -17 -3 -19 18 -1 24 0 25 9 9 10 -18 11 -18
25 0z m-1602 -23 c3 -8 2 -12 -4 -9 -6 3 -10 10 -10 16 0 14 7 11 14 -7z
m1139 -149 c12 -6 23 -17 25 -26 3 -14 -7 -17 -59 -16 l-62 0 32 26 c17 14 32
33 32 41 1 13 2 13 5 0 3 -9 15 -20 27 -25z m-1156 -117 c-3 -8 -6 -5 -6 6 -1
11 2 17 5 13 3 -3 4 -12 1 -19z m1983 2 c-6 -11 -13 -20 -16 -20 -2 0 0 9 6
20 6 11 13 20 16 20 2 0 0 -9 -6 -20z m-1950 0 c0 -5 -2 -10 -4 -10 -3 0 -8 5
-11 10 -3 6 -1 10 4 10 6 0 11 -4 11 -10z m743 -127 c-7 -2 -21 -2 -30 0 -10
3 -4 5 12 5 17 0 24 -2 18 -5z m29 -45 c-8 -8 -9 -4 -5 13 4 13 8 18 11 10 2
-7 -1 -18 -6 -23z m1418 -189 c-11 -8 -12 -12 -2 -16 19 -7 14 -67 -8 -96 -11
-14 -20 -32 -20 -40 0 -33 -11 -45 -38 -41 -45 8 -55 24 -49 73 5 42 4 43 -8
21 -7 -13 -11 -30 -8 -37 3 -7 1 -13 -5 -13 -5 0 -10 -33 -11 -72 -1 -40 -6
-77 -11 -82 -14 -14 -70 43 -70 70 0 13 4 25 9 28 4 3 11 18 14 33 9 44 81
142 118 162 37 20 116 29 89 10z m-1493 -31 c-3 -8 -6 -5 -6 6 -1 11 2 17 5
13 3 -3 4 -12 1 -19z m-50 -135 c-3 -10 -5 -2 -5 17 0 19 2 27 5 18 2 -10 2
-26 0 -35z m3050 -105 c-3 -8 -6 -5 -6 6 -1 11 2 17 5 13 3 -3 4 -12 1 -19z
m-2993 -77 c-4 -17 -9 -30 -11 -27 -3 2 -2 19 2 36 9 41 17 33 9 -9z m1321 -1
c3 -5 2 -10 -4 -10 -5 0 -13 5 -16 10 -3 6 -2 10 4 10 5 0 13 -4 16 -10z
m-1354 -43 c-8 -8 -11 -5 -11 9 0 27 14 41 18 19 2 -9 -1 -22 -7 -28z m3629
-162 c0 -8 -4 -17 -10 -20 -6 -4 -10 5 -10 20 0 15 4 24 10 20 6 -3 10 -12 10
-20z m6 -100 c14 -13 13 -15 -5 -15 -12 0 -21 6 -21 15 0 8 3 15 6 15 3 0 12
-7 20 -15z m14 -44 c0 -12 -20 -25 -27 -18 -7 7 6 27 18 27 5 0 9 -4 9 -9z
m-605 -31 c3 -5 -1 -10 -10 -10 -9 0 -13 5 -10 10 3 6 8 10 10 10 2 0 7 -4 10
-10z m-718 -157 c-2 -16 -4 -5 -4 22 0 28 2 40 4 28 2 -13 2 -35 0 -50z
m-1022 -253 c13 -6 15 -9 5 -9 -8 0 -22 4 -30 9 -18 12 -2 12 25 0z"/>
<path d="M5106 5971 c-7 -11 18 -33 27 -24 4 3 7 12 7 20 0 15 -26 18 -34 4z"/>
<path d="M5090 5107 c-54 -27 -64 -94 -21 -138 59 -58 161 -26 161 51 0 44
-16 70 -55 86 -42 17 -53 17 -85 1z m78 -33 c25 -17 31 -71 10 -92 -20 -20
-65 -14 -82 10 -21 30 -20 54 4 78 24 24 38 25 68 4z"/>
<path d="M5595 5113 c-71 -17 -55 -80 25 -100 20 -5 35 -16 35 -24 0 -20 -49
-23 -65 -5 -15 20 -40 21 -40 3 0 -25 36 -47 74 -47 53 0 76 15 76 49 0 23 -7
32 -32 44 -18 8 -42 17 -53 19 -11 2 -20 10 -20 18 0 21 39 24 55 5 16 -19 40
-20 40 -1 0 27 -53 48 -95 39z"/>
<path d="M4960 5040 c0 -63 -2 -70 -20 -70 -11 0 -20 7 -20 15 0 8 -9 15 -20
15 -25 0 -26 -22 -2 -43 22 -20 73 -22 90 -5 7 7 12 42 12 85 0 66 -2 73 -20
73 -18 0 -20 -7 -20 -70z"/>
<path d="M5270 5025 l0 -85 63 0 c36 1 69 6 80 14 21 16 22 49 2 66 -11 9 -12
16 -2 31 22 36 -2 54 -77 57 l-66 3 0 -86z m110 39 c0 -8 -6 -14 -12 -15 -7 0
-23 -2 -34 -5 -15 -2 -23 2 -27 16 -3 14 1 20 17 22 32 5 56 -3 56 -18z m-1
-53 c25 -16 4 -41 -34 -41 -31 0 -35 3 -35 25 0 21 5 25 28 25 15 0 33 -4 41
-9z"/>
<path d="M5740 5025 l0 -85 75 0 c60 0 75 3 75 15 0 12 -13 15 -56 15 -52 0
-55 1 -52 23 3 19 10 22 51 25 62 4 58 26 -4 27 -33 0 -45 4 -47 18 -3 14 5
17 47 17 39 0 51 4 51 15 0 12 -14 15 -70 15 l-70 0 0 -85z"/>
<path d="M5952 5038 c-18 -40 -32 -79 -32 -85 0 -20 28 -15 40 7 8 15 21 20
50 20 30 0 40 -5 45 -20 4 -11 15 -20 27 -20 12 0 18 5 15 13 -2 6 -19 45 -37
85 -26 57 -37 72 -55 72 -17 0 -28 -14 -53 -72z m56 -26 c-27 -5 -32 2 -18 29
l13 22 13 -24 c11 -22 11 -24 -8 -27z"/>
<path d="M6130 5025 c0 -78 2 -85 20 -85 16 0 20 7 20 35 0 47 26 47 63 0 15
-19 37 -35 47 -35 27 0 25 10 -6 43 l-26 29 21 14 c26 19 27 60 2 74 -11 5
-47 10 -80 10 l-61 0 0 -85z m118 38 c-2 -13 -14 -19 -41 -21 -32 -3 -37 0
-37 17 0 18 6 21 41 21 33 0 40 -3 37 -17z"/>
<path d="M6351 5084 c-12 -15 -21 -41 -21 -59 0 -18 9 -44 21 -59 35 -45 139
-31 139 20 0 19 -29 18 -36 -1 -7 -18 -55 -20 -72 -3 -7 7 -12 26 -12 43 0 17
5 36 12 43 14 14 68 16 68 2 0 -5 9 -10 20 -10 26 0 26 26 1 40 -11 5 -38 10
-60 10 -31 0 -44 -6 -60 -26z"/>
<path d="M6540 5025 c0 -78 2 -85 20 -85 16 0 20 7 20 34 0 30 3 34 30 38 40
6 52 -4 48 -38 -2 -21 2 -30 15 -32 14 -3 17 4 17 45 0 26 3 65 6 86 6 33 4
37 -14 37 -16 0 -21 -7 -24 -32 -3 -30 -6 -33 -40 -36 -37 -3 -38 -3 -38 32 0
29 -4 36 -20 36 -18 0 -20 -7 -20 -85z"/>
<path d="M6966 4875 c-41 -14 -56 -29 -56 -57 0 -55 36 -62 99 -21 45 29 59
56 41 78 -15 18 -33 18 -84 0z"/>
<path d="M7275 4751 c15 -15 128 -72 133 -67 2 2 -29 21 -70 41 -40 20 -68 32
-63 26z"/>
<path d="M5484 4725 c-3 -8 -3 -19 1 -25 8 -13 801 -14 809 -1 4 5 3 16 0 25
-5 14 -50 16 -405 16 -340 0 -400 -2 -405 -15z"/>
<path d="M7144 4712 l-31 -18 47 -22 c36 -17 56 -21 92 -16 29 4 48 2 52 -5 9
-14 26 -15 26 -1 0 9 -132 81 -147 79 -5 0 -22 -8 -39 -17z"/>
<path d="M5305 4710 c3 -5 8 -10 11 -10 2 0 4 5 4 10 0 6 -5 10 -11 10 -5 0
-7 -4 -4 -10z"/>
<path d="M5345 4710 c3 -5 8 -10 11 -10 2 0 4 5 4 10 0 6 -5 10 -11 10 -5 0
-7 -4 -4 -10z"/>
<path d="M5400 4709 c0 -5 5 -7 10 -4 6 3 10 8 10 11 0 2 -4 4 -10 4 -5 0 -10
-5 -10 -11z"/>
<path d="M7332 4635 c-35 -19 -46 -32 -33 -39 6 -4 11 -3 11 3 0 7 8 7 25 1
16 -6 27 -6 31 2 5 7 3 8 -6 3 -9 -6 -11 -4 -6 4 5 7 14 10 22 7 20 -8 17 12
-3 22 -11 6 -27 4 -41 -3z"/>
<path d="M7531 4601 c-11 -7 -9 -10 8 -16 24 -7 44 2 36 16 -8 11 -26 11 -44
0z"/>
<path d="M6720 4576 c0 -7 12 -45 26 -82 15 -38 26 -77 26 -87 -1 -12 25 -30
89 -62 66 -34 89 -50 89 -65 0 -13 -10 -22 -32 -28 -67 -17 -36 -42 52 -42 74
0 95 31 30 45 -38 8 -38 30 0 50 37 19 40 19 40 -4 0 -22 19 -31 67 -31 19 0
41 -7 49 -15 18 -17 70 -20 108 -5 37 14 32 30 -8 30 l-33 0 1 105 c0 62 5
105 11 105 11 1 -175 99 -188 99 -5 1 -5 -28 -2 -63 l7 -65 -40 -10 c-46 -13
-68 -7 -75 19 -3 12 -43 38 -106 69 -55 28 -103 51 -106 51 -3 0 -5 -6 -5 -14z
m433 -93 c-7 -2 -19 -2 -25 0 -7 3 -2 5 12 5 14 0 19 -2 13 -5z m-7 -169 c-3
-8 -12 -14 -21 -14 -21 0 -20 49 3 70 16 16 17 15 20 -13 2 -16 1 -35 -2 -43z"/>
<path d="M11495 5649 c-11 -17 1 -21 15 -4 8 9 8 15 2 15 -6 0 -14 -5 -17 -11z"/>
<path d="M11380 5500 c0 -5 5 -10 10 -10 6 0 10 5 10 10 0 6 -4 10 -10 10 -5
0 -10 -4 -10 -10z"/>
<path d="M9990 5624 c0 -8 5 -12 10 -9 6 3 10 10 10 16 0 5 -4 9 -10 9 -5 0
-10 -7 -10 -16z"/>
<path d="M10161 4884 c0 -11 3 -14 6 -6 3 7 2 16 -1 19 -3 4 -6 -2 -5 -13z"/>
<path d="M11710 5489 c0 -5 5 -7 10 -4 6 3 10 8 10 11 0 2 -4 4 -10 4 -5 0
-10 -5 -10 -11z"/>
<path d="M11620 5399 c0 -5 5 -7 10 -4 6 3 10 8 10 11 0 2 -4 4 -10 4 -5 0
-10 -5 -10 -11z"/>
<path d="M11006 3815 c-17 -17 -30 -20 -21 -5 3 6 1 10 -5 10 -16 0 -6 -24 11
-28 8 -1 20 7 27 18 14 24 9 26 -12 5z"/>
<path d="M10937 3745 c-15 -19 -33 -33 -40 -31 -7 1 -9 1 -4 -1 4 -3 5 -9 2
-14 -4 -5 -2 -16 3 -25 8 -14 10 -13 23 2 13 16 12 17 -5 11 -12 -5 -5 8 19
35 21 24 43 46 49 50 7 5 5 7 -4 7 -8 0 -28 -16 -43 -34z"/>
<path d="M11034 3733 c4 -9 1 -20 -6 -25 -11 -6 -10 -8 0 -8 7 0 10 -5 6 -11
-5 -8 -1 -8 14 0 31 16 35 29 12 36 -11 4 -18 11 -15 16 4 5 1 9 -5 9 -7 0 -9
-7 -6 -17z m26 -23 c0 -5 -5 -10 -11 -10 -5 0 -7 5 -4 10 3 6 8 10 11 10 2 0
4 -4 4 -10z"/>
<path d="M5176 3174 c-9 -23 -7 -197 3 -212 6 -10 38 -13 122 -12 63 1 121 2
129 2 13 1 15 20 12 120 l-3 118 -129 0 c-107 0 -129 -3 -134 -16z m84 -144
c0 -11 -2 -20 -4 -20 -2 0 -6 9 -9 20 -3 11 -1 20 4 20 5 0 9 -9 9 -20z"/>
<path d="M5455 3180 c-7 -11 -4 -183 3 -212 4 -16 19 -18 133 -18 l129 0 0
120 0 120 -129 0 c-77 0 -132 -4 -136 -10z m83 -61 c-2 -6 -8 -10 -13 -10 -5
0 -11 4 -13 10 -2 6 4 11 13 11 9 0 15 -5 13 -11z m-1 -89 c-2 -30 -11 -38
-22 -21 -3 5 -1 12 5 16 5 3 10 11 10 16 0 6 -5 7 -12 3 -7 -4 -8 -3 -4 4 13
22 25 12 23 -18z"/>
<path d="M5332 2932 c-9 -6 -12 -38 -10 -123 l3 -114 119 -3 c78 -2 123 1 132
9 18 15 20 209 2 227 -14 14 -225 17 -246 4z m76 -70 c3 -16 -2 -22 -17 -22
-24 0 -35 15 -27 36 9 23 40 13 44 -14z m93 -115 c-8 -8 -11 -3 -11 19 1 25 2
27 11 11 8 -14 8 -22 0 -30z m32 23 c3 -11 1 -20 -4 -20 -5 0 -9 9 -9 20 0 11
2 20 4 20 2 0 6 -9 9 -20z"/>
<path d="M5370 2865 c0 -8 7 -15 15 -15 8 0 15 7 15 15 0 8 -7 15 -15 15 -8 0
-15 -7 -15 -15z"/>
<path d="M5612 2932 c-9 -6 -12 -38 -10 -123 l3 -114 110 -3 c167 -4 156 -13
153 126 l-3 117 -120 3 c-66 1 -126 -2 -133 -6z m61 -70 c-5 -22 -23 -31 -23
-12 0 10 23 40 27 36 1 -1 0 -12 -4 -24z m29 2 c-3 -17 -8 -22 -15 -15 -7 7
-6 15 3 26 17 20 18 19 12 -11z m93 -114 c7 0 16 10 18 23 4 18 4 17 6 -6 1
-24 -2 -28 -21 -25 -15 2 -23 10 -24 23 -1 15 0 16 3 3 3 -10 11 -18 18 -18z"/>
<path d="M5887 2934 c-4 -4 -7 -58 -7 -120 0 -93 3 -113 16 -118 23 -9 227 -7
242 2 9 6 12 38 10 123 l-3 114 -126 3 c-69 1 -128 -1 -132 -4z m53 -70 c-1
-4 4 -11 12 -15 10 -7 9 -9 -4 -9 -13 0 -18 8 -17 28 0 15 3 21 6 15 2 -7 4
-15 3 -19z m150 -84 c0 -3 -7 -15 -16 -26 -8 -10 -13 -13 -9 -6 4 7 1 19 -5
27 -9 11 -7 14 9 12 12 -1 21 -4 21 -7z"/>
<path d="M5390 2561 c0 -116 1 -119 23 -125 32 -8 229 2 240 13 4 4 6 57 5
117 l-3 109 -132 3 -133 3 0 -120z m84 53 c9 -22 8 -24 -9 -18 -8 4 -15 1 -15
-7 0 -7 -3 -10 -6 -6 -8 7 5 47 16 47 4 0 11 -7 14 -16z m131 -104 c0 -9 -11
-16 -27 -18 -23 -3 -28 1 -28 18 0 17 5 21 28 18 16 -2 27 -9 27 -18z"/>
<path d="M5580 2509 c0 -5 5 -7 10 -4 6 3 10 8 10 11 0 2 -4 4 -10 4 -5 0 -10
-5 -10 -11z"/>
<path d="M5674 2667 c-2 -7 -3 -60 -2 -118 l3 -104 133 -3 132 -3 0 121 0 120
-130 0 c-99 0 -132 -3 -136 -13z m82 -39 c4 -7 3 -8 -4 -4 -7 4 -12 2 -12 -3
0 -6 5 -11 10 -11 6 0 10 -7 10 -15 0 -9 -9 -15 -22 -14 -21 0 -22 1 -3 8 18
7 18 8 1 18 -11 6 -16 15 -12 22 9 14 23 14 32 -1z m104 -123 c8 19 9 19 9 -2
1 -14 -5 -23 -14 -23 -11 0 -15 10 -14 33 l2 32 5 -30 c4 -26 5 -28 12 -10z
m27 -2 c-3 -10 -5 -4 -5 12 0 17 2 24 5 18 2 -7 2 -21 0 -30z"/>
<path d="M5600 2420 l-65 -5 -3 -109 c-1 -60 2 -114 7 -119 9 -9 226 -18 249
-9 9 3 12 37 12 123 0 88 -3 119 -12 120 -84 3 -134 3 -188 -1z m20 -48 c0 -4
-6 -14 -12 -20 -10 -10 -10 -15 2 -22 13 -8 12 -10 -2 -10 -13 0 -17 7 -15 30
1 16 8 30 15 30 6 0 12 -4 12 -8z m129 -119 l-1 -28 -8 25 c-5 16 -8 19 -9 8
-1 -9 -5 -19 -10 -22 -4 -3 -7 5 -6 17 3 28 2 27 20 27 10 0 15 -9 14 -27z"/>
<path d="M5853 2422 l-43 -3 0 -114 c0 -63 4 -116 8 -119 5 -3 64 -6 133 -7
76 0 130 -6 139 -13 12 -9 13 -8 5 4 -6 8 -12 67 -14 130 -2 71 -7 118 -14
122 -11 7 -126 7 -214 0z m36 -58 c4 3 7 -3 8 -13 1 -10 -4 -18 -10 -18 -7 0
-13 12 -13 26 -1 14 1 20 3 13 3 -6 8 -10 12 -8z m132 -98 c5 3 9 -2 9 -10 0
-10 -6 -13 -15 -10 -8 4 -15 14 -14 23 0 10 2 11 6 3 2 -6 9 -10 14 -6z"/>
<path d="M5250 2301 c0 -99 3 -120 16 -125 31 -12 220 -6 237 7 15 11 17 27
15 122 l-3 110 -132 3 -133 3 0 -120z m195 49 c0 -16 -3 -30 -7 -30 -10 0 -10
44 -1 53 3 4 7 7 7 7 1 0 1 -13 1 -30z m15 -94 c0 -14 -3 -27 -7 -29 -5 -3 -8
8 -8 24 0 16 3 29 8 29 4 0 7 -11 7 -24z"/>
<path d="M6010 2610 c0 -11 5 -20 10 -20 6 0 10 9 10 20 0 11 -4 20 -10 20 -5
0 -10 -9 -10 -20z"/>
<path d="M4980 2531 c0 -6 5 -13 10 -16 6 -3 10 1 10 9 0 9 -4 16 -10 16 -5 0
-10 -4 -10 -9z"/>
<path d="M6145 2500 c3 -5 8 -10 11 -10 2 0 4 5 4 10 0 6 -5 10 -11 10 -5 0
-7 -4 -4 -10z"/>
<path d="M1956 6245 c13 -37 31 -57 39 -45 4 7 -4 23 -19 39 -22 22 -26 23
-20 6z"/>
<path d="M2021 6163 c-1 -6 7 -24 16 -41 20 -34 13 -59 -22 -72 -14 -5 -25
-12 -25 -15 0 -4 57 -87 83 -120 23 -30 110 -151 162 -225 32 -47 79 -111 103
-144 25 -32 46 -70 48 -84 1 -14 9 -29 16 -33 7 -5 13 -20 13 -33 1 -14 -1
-23 -4 -21 -7 8 -33 -34 -27 -44 4 -5 -4 -7 -15 -4 -19 5 -21 3 -17 -20 3 -18
1 -24 -8 -20 -7 2 -17 -5 -24 -16 -6 -12 -18 -21 -26 -21 -11 0 -13 -6 -9 -20
3 -11 2 -20 -3 -20 -5 0 -29 -18 -53 -40 -49 -44 -53 -46 -71 -27 -6 8 -22 12
-33 9 -12 -2 -101 21 -199 52 -97 31 -181 56 -186 56 -5 0 2 -11 16 -25 28
-28 25 -41 -14 -56 -41 -16 -44 -15 270 -110 54 -16 102 -29 108 -29 6 0 16
-5 23 -10 7 -6 59 -43 117 -83 58 -40 143 -99 190 -132 47 -32 168 -115 270
-183 102 -69 196 -133 209 -144 l24 -19 79 82 c43 45 78 86 78 92 0 5 -17 30
-37 55 -21 26 -30 43 -21 39 9 -3 35 -11 58 -17 39 -11 41 -12 26 -29 -9 -10
-16 -21 -16 -25 0 -5 27 20 60 55 33 34 60 66 60 70 0 3 -46 21 -102 38 -57
18 -121 38 -142 45 -22 7 -42 18 -44 25 -3 9 6 8 33 -3 46 -20 65 -21 41 -3
-17 12 -17 14 -2 20 10 4 16 18 16 37 0 23 4 30 20 30 11 0 20 -4 20 -10 0 -5
12 -10 28 -10 17 0 40 -13 64 -35 43 -41 50 -43 46 -12 -3 23 -1 23 62 14 14
-2 31 3 39 10 7 8 20 12 27 9 7 -3 20 5 29 17 17 24 20 41 5 32 -5 -3 -12 4
-16 17 -3 13 -23 37 -44 53 -22 17 -39 36 -40 43 0 6 -7 12 -16 12 -14 0 -44
29 -84 83 -8 11 -25 31 -38 44 -13 14 -34 42 -47 63 -21 34 -100 124 -165 190
-14 14 -36 42 -49 63 -27 43 -36 46 -39 12 -2 -33 -42 -155 -56 -174 -6 -8
-28 -32 -50 -53 -25 -26 -36 -45 -33 -58 3 -13 1 -17 -10 -13 -13 5 -13 1 2
-23 l17 -29 -21 25 c-12 14 -28 32 -34 40 -28 34 -279 384 -357 495 -79 115
-107 154 -209 291 -25 34 -51 70 -58 80 -6 11 -12 14 -12 7z m486 -873 c21
-30 40 -57 43 -60 17 -15 50 -70 42 -70 -5 0 -14 11 -20 25 -8 17 -16 23 -28
18 -12 -4 -15 -3 -10 6 5 7 1 20 -7 29 -7 9 -17 26 -21 37 -5 14 -9 16 -15 7
-5 -9 -14 3 -26 35 -10 26 -20 42 -23 35 -2 -7 2 -19 8 -27 9 -11 9 -15 1 -15
-11 0 -13 6 -15 53 l-2 28 18 -23 c10 -13 35 -48 55 -78z m-69 15 c12 -14 22
-32 22 -41 0 -11 6 -15 20 -11 20 5 26 -3 13 -17 -5 -4 -8 -11 -9 -14 -4 -31
-17 -40 -40 -30 -13 6 -21 14 -19 18 3 5 -2 11 -11 14 -9 4 -14 9 -11 12 3 3
2 17 -3 30 -6 14 -6 26 0 29 6 4 10 1 10 -6 0 -7 3 -10 6 -7 3 4 1 16 -6 27
-15 29 2 26 28 -4z m279 -7 c-3 -8 -6 -5 -6 6 -1 11 2 17 5 13 3 -3 4 -12 1
-19z m-340 -10 c-3 -8 -6 -5 -6 6 -1 11 2 17 5 13 3 -3 4 -12 1 -19z m143 -68
c0 -5 -4 -10 -10 -10 -5 0 -10 5 -10 10 0 6 5 10 10 10 6 0 10 -4 10 -10z
m418 -316 c-4 -3 -12 5 -18 18 -12 22 -12 22 6 6 10 -10 15 -20 12 -24z m-33
-170 c9 -15 12 -23 6 -20 -11 7 -35 46 -28 46 3 0 12 -12 22 -26z m79 -109 c9
-14 13 -25 8 -25 -5 0 -14 11 -20 25 -6 14 -10 25 -8 25 2 0 11 -11 20 -25z
m34 -60 c-3 -3 -9 2 -12 12 -6 14 -5 15 5 6 7 -7 10 -15 7 -18z"/>
<path d="M2950 6035 c-7 -8 -25 -15 -41 -15 -16 0 -29 -4 -29 -10 0 -5 -6 -7
-12 -5 -10 4 -13 -10 -13 -50 0 -30 3 -55 6 -55 4 0 10 -7 13 -16 6 -15 4 -15
-21 0 l-28 17 25 -21 c78 -66 186 -141 600 -421 l245 -166 16 -79 c9 -43 37
-181 62 -305 26 -124 49 -233 53 -242 3 -10 1 -17 -5 -17 -6 0 -92 -98 -191
-217 -100 -120 -189 -227 -198 -238 -9 -11 -50 -60 -91 -110 -180 -221 -201
-245 -212 -245 -7 0 -71 193 -113 343 -9 31 -19 57 -22 57 -4 0 -3 -12 1 -27
4 -16 9 -44 12 -63 2 -19 8 -39 12 -45 14 -17 22 -65 11 -65 -5 0 -10 8 -10
18 0 11 -9 27 -21 38 -19 17 -49 65 -49 79 0 3 10 0 23 -6 19 -10 19 -9 -4 13
-15 14 -30 39 -34 57 -4 18 -9 30 -12 28 -5 -6 40 -186 68 -271 11 -32 18 -61
15 -63 -3 -3 -18 4 -34 16 -32 23 -52 27 -52 11 0 -5 -15 -10 -32 -11 l-33 -1
35 -13 c19 -7 29 -14 22 -14 -7 -1 -10 -6 -6 -13 5 -8 11 -6 19 5 16 23 20 21
21 -7 2 -21 -2 -24 -30 -23 -17 0 -39 -3 -48 -7 -11 -5 -18 -4 -18 3 0 6 7 11
15 11 9 0 12 6 8 16 -3 8 -11 13 -18 10 -7 -2 -16 3 -19 12 -26 74 -34 107
-29 115 3 5 0 13 -7 17 -7 4 -45 101 -85 216 -120 342 -103 308 -160 312 -28
2 -192 -1 -365 -7 -173 -6 -515 -18 -760 -26 -611 -20 -654 -23 -685 -47 l-25
-19 0 -376 0 -375 45 -83 c24 -46 53 -98 63 -117 10 -18 63 -112 117 -208 54
-96 110 -195 123 -219 l25 -44 66 7 c36 3 91 6 122 6 50 0 58 3 64 23 6 18 8
19 12 5 6 -23 22 -27 77 -21 47 6 48 6 25 19 -24 13 -23 13 11 14 25 0 31 3
23 11 -8 8 -20 9 -43 1 -17 -6 -40 -8 -51 -4 -19 7 -19 9 -5 21 9 7 22 11 29
8 8 -3 20 -1 28 5 11 8 10 9 -3 4 -10 -3 -18 -1 -18 4 0 5 18 7 43 4 23 -3 92
-11 152 -19 61 -7 94 -13 75 -14 -32 -1 -33 -3 -17 -15 14 -11 15 -15 5 -19
-7 -3 37 -5 97 -6 115 0 174 11 125 23 -14 3 -52 7 -85 9 -57 3 -56 3 15 5 93
2 157 -7 138 -20 -14 -10 292 -4 572 12 91 5 196 11 234 12 68 3 69 3 105 48
20 25 41 48 46 52 6 4 10 13 10 20 0 7 9 14 21 16 24 3 58 68 41 79 -6 4 7 12
29 18 21 6 37 13 35 15 -8 9 20 50 34 50 18 0 19 4 3 31 -11 18 -10 23 0 26
29 11 51 45 42 64 -12 22 -14 50 -2 32 4 -7 17 -10 30 -6 12 3 19 10 15 16 -4
6 0 8 10 4 10 -4 21 3 32 19 22 34 9 51 -20 24 -13 -12 -31 -20 -41 -18 -33 6
-24 25 18 39 l43 13 -32 4 c-29 3 -49 22 -23 22 6 0 10 13 10 29 0 16 4 31 9
33 4 2 12 14 16 27 5 16 4 21 -4 17 -7 -4 -11 1 -11 13 0 34 11 51 34 51 28 0
39 9 53 43 7 15 17 27 23 27 6 0 6 9 0 25 -9 24 -8 25 23 21 27 -3 31 -7 29
-27 -4 -20 -2 -21 12 -10 19 16 21 15 30 -16 6 -18 3 -23 -11 -23 -11 0 -23 4
-28 9 -6 5 -19 5 -30 2 -16 -7 -14 -9 13 -14 19 -4 32 -13 32 -22 0 -21 23
-19 37 4 13 21 8 74 -8 79 -5 2 -9 8 -9 13 0 4 8 5 18 2 14 -5 15 -4 6 8 -18
22 -12 62 9 65 10 1 21 -5 24 -14 8 -23 43 -55 51 -48 3 4 1 15 -6 26 -13 21
-2 33 22 24 9 -3 16 -1 16 5 0 10 -27 16 -57 12 -8 -1 -13 9 -13 25 0 23 -3
26 -25 22 -27 -6 -34 6 -10 16 8 3 15 10 15 17 0 6 -7 9 -15 5 -22 -8 -19 0
16 35 26 26 30 28 24 11 -3 -12 -4 -22 -1 -22 8 0 27 38 31 62 6 27 15 36 15
14 0 -9 4 -14 10 -11 6 3 7 -1 4 -9 -7 -17 4 -20 24 -7 10 6 10 10 -3 21 -16
14 -21 45 -5 35 6 -3 10 5 10 19 0 42 17 38 23 -5 3 -22 7 -43 10 -45 6 -7 87
72 87 85 0 6 -8 15 -19 20 -22 12 -36 52 -15 44 10 -4 13 0 9 13 -3 11 2 6 10
-11 l15 -30 -6 33 c-4 24 -2 34 10 38 9 3 16 13 16 21 0 8 7 13 18 11 9 -2 17
-12 17 -22 0 -30 22 -30 29 -1 6 22 9 25 21 15 10 -8 15 -9 15 -2 0 6 -4 13
-8 16 -5 3 -9 24 -10 46 -2 34 1 41 15 38 22 -4 30 -38 12 -49 -10 -6 -9 -9 5
-15 10 -4 21 -2 25 5 4 6 15 9 24 5 9 -3 17 -2 17 2 -1 14 -26 44 -33 38 -3
-3 -11 4 -17 16 -12 23 -4 43 8 23 5 -8 13 -9 22 -3 23 15 32 12 26 -7 -4 -12
2 -22 19 -30 22 -10 25 -9 25 8 0 10 5 19 10 19 6 0 10 -7 10 -15 0 -8 4 -15
9 -15 15 0 20 27 11 59 -8 29 -7 31 16 27 16 -3 24 0 24 10 0 8 -5 14 -11 14
-5 0 -7 5 -4 11 5 6 12 4 20 -8 17 -23 33 -8 18 16 -10 16 -9 18 9 13 11 -3
24 1 29 9 7 11 9 10 9 -3 0 -22 18 -24 26 -3 4 8 10 13 14 10 10 -6 35 23 26
32 -3 3 -6 1 -6 -5 0 -22 -20 -12 -26 13 -3 14 -14 29 -22 34 -14 8 -12 11 11
16 21 6 26 12 22 26 -5 14 -1 19 13 19 11 0 23 -6 25 -12 3 -8 6 -7 6 4 1 9 9
19 19 22 10 4 29 16 41 28 23 21 23 21 17 0 -7 -21 8 -39 19 -22 3 5 18 10 33
10 25 0 25 1 6 14 -14 10 -21 11 -26 3 -4 -6 -10 -8 -14 -4 -4 4 -2 13 4 19
20 20 14 48 -10 48 -20 1 -21 2 -6 10 17 11 48 4 48 -11 0 -4 6 -6 14 -3 8 3
17 0 21 -5 10 -17 25 -3 25 22 0 12 9 28 20 35 11 7 20 19 20 27 0 9 10 15 25
15 18 0 25 5 25 19 0 13 8 21 23 23 15 2 21 9 19 21 -2 12 4 17 19 17 18 0 19
2 9 15 -16 20 -6 45 19 45 22 0 35 30 26 59 -3 11 -1 22 5 26 6 4 11 -10 11
-37 2 -42 2 -42 9 12 9 68 -30 741 -43 733 -5 -3 -7 -16 -4 -29 5 -29 -8 -41
-17 -17 -5 13 -9 14 -15 5 -6 -10 -19 -10 -62 0 -30 6 -130 12 -224 14 -179 2
-257 9 -287 25 -12 6 -18 6 -18 -1 0 -14 -26 -13 -51 3 -16 9 -23 9 -26 0 -3
-8 -13 -8 -40 3 -19 8 -38 13 -41 10 -3 -3 -10 -1 -17 4 -6 5 -43 11 -81 14
-38 2 -77 7 -88 11 -11 5 -27 3 -37 -4 -11 -6 -19 -8 -19 -3 0 4 -8 8 -17 9
-10 0 -65 7 -123 15 -58 7 -122 11 -142 7 -21 -3 -38 -3 -38 2 0 4 -28 5 -62
3 -92 -6 -157 -6 -167 0 -5 3 -14 -1 -21 -9z m1596 -789 c14 -15 9 -46 -8 -46
-17 0 -38 28 -32 44 8 20 21 20 40 2z m-84 -58 c-6 -6 -15 -7 -22 -3 -8 5 -6
11 7 20 20 15 32 0 15 -17z m-57 -48 c-3 -5 -13 -10 -21 -10 -8 0 -14 5 -14
10 0 6 9 10 21 10 11 0 17 -4 14 -10z m-40 -60 c8 -13 -5 -13 -25 0 -13 8 -13
10 2 10 9 0 20 -4 23 -10z m25 -44 c0 -11 -19 -15 -25 -6 -3 5 1 10 9 10 9 0
16 -2 16 -4z m-291 -310 c-2 -2 -20 -7 -39 -11 -24 -5 -32 -4 -25 3 6 6 21 12
35 14 25 4 37 1 29 -6z m-189 -100 c0 -3 -4 -8 -10 -11 -5 -3 -10 -1 -10 4 0
6 5 11 10 11 6 0 10 -2 10 -4z m-255 -297 c4 -6 -2 -13 -14 -16 -12 -3 -21 -9
-21 -14 0 -5 -7 -9 -15 -9 -19 0 -19 6 3 29 19 22 38 26 47 10z m-657 -264
c-3 -3 -9 2 -12 12 -6 14 -5 15 5 6 7 -7 10 -15 7 -18z m378 -32 c15 -20 18
-33 7 -33 -5 0 -13 11 -20 25 -13 29 -6 33 13 8z m-387 -209 c9 -9 -45 -3 -59
6 -11 8 -5 9 20 5 19 -3 36 -8 39 -11z m191 -34 c0 -5 -5 -10 -11 -10 -5 0 -7
5 -4 10 3 6 8 10 11 10 2 0 4 -4 4 -10z m-660 -26 c0 -10 -6 -11 -22 -5 -31
11 -34 29 -3 24 14 -3 25 -11 25 -19z m26 -1 c-10 -10 -19 5 -10 18 6 11 8 11
12 0 2 -7 1 -15 -2 -18z m-110 -24 c15 -5 24 -12 21 -15 -5 -6 -107 43 -107
51 0 3 13 -1 30 -10 16 -8 42 -20 56 -26z m-729 -1 c-3 -8 -6 -5 -6 6 -1 11 2
17 5 13 3 -3 4 -12 1 -19z m413 -69 c-14 -6 -99 -28 -190 -50 -226 -54 -216
-52 -205 -41 6 5 64 22 130 37 66 15 149 36 185 46 74 20 122 25 80 8z m280
-66 c27 -16 50 -31 50 -34 0 -14 -574 -169 -626 -169 -58 0 -104 18 -104 40 0
10 6 21 13 23 7 4 6 6 -4 6 -19 1 -31 -22 -23 -44 4 -8 1 -15 -5 -15 -6 0 -12
15 -12 33 -1 29 -2 30 -8 7 -4 -16 -13 -25 -26 -25 -11 0 -21 -4 -21 -10 -5
-36 -18 -55 -38 -55 -36 0 -257 59 -302 80 -22 11 -46 20 -52 20 -7 0 -12 4
-12 8 0 5 17 9 37 10 21 1 39 6 41 12 2 5 8 10 14 10 6 0 8 -6 5 -14 -3 -8 -3
-17 1 -21 4 -4 7 -12 7 -18 0 -15 54 -29 84 -21 20 4 22 7 10 16 -11 8 -11 9
4 4 10 -3 37 3 60 13 23 11 51 21 62 23 11 2 -18 8 -65 12 -47 4 -105 11 -130
16 -25 5 -52 4 -61 -1 -11 -5 -19 -5 -21 1 -2 6 -30 14 -63 18 -59 7 -60 8
-57 37 2 17 5 32 8 34 2 2 66 -1 141 -8 228 -20 271 -22 243 -12 -23 8 -23 9
-4 10 12 1 27 -6 34 -14 7 -8 29 -15 49 -15 48 -1 124 -19 132 -31 4 -7 13 -7
27 2 29 18 41 2 14 -17 -12 -8 -22 -21 -22 -27 0 -7 8 -3 16 8 11 14 18 16 21
8 7 -18 42 -16 49 2 4 10 20 15 46 15 22 0 49 5 61 12 12 6 29 12 37 13 23 3
167 41 235 64 81 26 97 25 155 -6z m-933 -9 c-3 -3 -12 -4 -19 -1 -8 3 -5 6 6
6 11 1 17 -2 13 -5z m-73 -123 c3 -5 -5 -8 -18 -7 -13 0 -22 4 -19 9 6 10 31
9 37 -2z m801 -11 c3 -5 1 -10 -4 -10 -6 0 -11 5 -11 10 0 6 2 10 4 10 3 0 8
-4 11 -10z m95 0 c0 -5 -4 -10 -9 -10 -6 0 -13 5 -16 10 -3 6 1 10 9 10 9 0
16 -4 16 -10z m50 0 c0 -5 -4 -10 -10 -10 -5 0 -10 5 -10 10 0 6 5 10 10 10 6
0 10 -4 10 -10z m-40 -31 c0 -5 4 -8 9 -5 5 3 11 0 14 -8 6 -14 -39 -33 -51
-21 -3 3 -1 5 5 5 6 0 9 9 6 20 -3 11 0 20 6 20 6 0 11 -5 11 -11z m360 -29
c0 -5 -4 -10 -10 -10 -5 0 -10 5 -10 10 0 6 5 10 10 10 6 0 10 -4 10 -10z
m-915 -10 c3 -5 1 -10 -4 -10 -6 0 -11 5 -11 10 0 6 2 10 4 10 3 0 8 -4 11
-10z m165 -5 c-7 -9 -15 -13 -19 -10 -3 3 1 10 9 15 21 14 24 12 10 -5z m844
-1 c3 -9 4 -20 0 -25 -3 -5 0 -9 5 -9 6 0 11 -4 11 -9 0 -5 -10 -7 -22 -3 -16
4 -20 1 -16 -9 3 -8 0 -19 -7 -26 -17 -15 -28 -4 -14 14 6 7 9 23 6 35 -10 36
24 65 37 32z m-994 -4 c8 13 10 12 10 -3 0 -23 -17 -29 -80 -25 -49 3 -52 4
-35 18 11 9 16 10 11 3 -10 -17 4 -16 28 2 14 11 22 11 37 2 16 -10 21 -9 29
3z m42 -5 c0 -5 -5 -11 -11 -13 -6 -2 -11 4 -11 13 0 9 5 15 11 13 6 -2 11 -8
11 -13z m226 -22 c6 -19 -45 -16 -52 3 -5 12 0 15 21 12 14 -2 28 -9 31 -15z
m-99 -9 c2 -2 -29 -3 -70 -3 -54 1 -66 3 -44 9 27 7 104 2 114 -6z m184 9 c-7
-2 -21 -2 -30 0 -10 3 -4 5 12 5 17 0 24 -2 18 -5z m675 -58 c17 -37 15 -41
-8 -12 -22 27 -25 37 -12 37 5 0 14 -11 20 -25z m-133 -15 c3 -5 1 -10 -4 -10
-6 0 -11 5 -11 10 0 6 2 10 4 10 3 0 8 -4 11 -10z m125 -10 c0 -5 -4 -10 -10
-10 -5 0 -10 5 -10 10 0 6 5 10 10 10 6 0 10 -4 10 -10z m-1565 -20 c3 -5 1
-10 -4 -10 -6 0 -11 5 -11 10 0 6 2 10 4 10 3 0 8 -4 11 -10z m1597 -25 c3
-13 1 -22 -3 -19 -9 5 -13 44 -5 44 2 0 6 -11 8 -25z m-268 0 c-4 -8 -13 -15
-20 -15 -12 0 -12 3 -2 15 17 19 29 19 22 0z m-1224 -10 c44 -15 44 -15 8 -10
-41 6 -48 -1 -20 -21 14 -10 15 -15 4 -26 -11 -11 -15 -10 -23 5 -6 9 -21 17
-34 17 -27 0 -35 19 -10 21 8 1 20 3 25 4 6 1 13 3 18 4 4 1 0 6 -8 11 -21 13
-13 12 40 -5z m1440 5 c0 -5 -4 -10 -9 -10 -6 0 -13 5 -16 10 -3 6 1 10 9 10
9 0 16 -4 16 -10z m25 -27 c-8 -33 -2 -29 -48 -36 -22 -3 -35 -2 -32 4 4 5 21
9 38 9 22 0 28 3 18 9 -12 8 -12 11 0 25 21 24 32 19 24 -11z m-1380 -3 c3 -5
1 -10 -4 -10 -6 0 -11 -7 -11 -15 0 -21 -13 -19 -27 4 -10 15 -10 21 0 24 20
9 36 7 42 -3z m912 4 c-3 -3 -12 -4 -19 -1 -8 3 -5 6 6 6 11 1 17 -2 13 -5z
m263 -34 c0 -5 -4 -10 -10 -10 -5 0 -10 5 -10 10 0 6 5 10 10 10 6 0 10 -4 10
-10z m-1300 -10 c0 -5 -4 -10 -10 -10 -5 0 -10 5 -10 10 0 6 5 10 10 10 6 0
10 -4 10 -10z m1397 4 c-3 -3 -12 -4 -19 -1 -8 3 -5 6 6 6 11 1 17 -2 13 -5z
m-464 -21 c-7 -2 -19 -2 -25 0 -7 3 -2 5 12 5 14 0 19 -2 13 -5z m-953 -19 c0
-2 -7 -4 -15 -4 -8 0 -15 4 -15 10 0 5 7 7 15 4 8 -4 15 -8 15 -10z m513 -1
c-7 -2 -19 -2 -25 0 -7 3 -2 5 12 5 14 0 19 -2 13 -5z m-500 -20 c-7 -2 -21
-2 -30 0 -10 3 -4 5 12 5 17 0 24 -2 18 -5z"/>
<path d="M1603 3473 c9 -2 25 -2 35 0 9 3 1 5 -18 5 -19 0 -27 -2 -17 -5z"/>
<path d="M1288 3453 c7 -3 16 -2 19 1 4 3 -2 6 -13 5 -11 0 -14 -3 -6 -6z"/>
<path d="M1550 3449 c0 -5 5 -7 10 -4 6 3 10 8 10 11 0 2 -4 4 -10 4 -5 0 -10
-5 -10 -11z"/>
<path d="M1445 3424 c-16 -8 -21 -12 -11 -9 11 3 23 0 27 -6 4 -7 14 -9 25 -4
18 8 18 8 1 12 -9 3 -15 9 -12 14 8 11 6 11 -30 -7z"/>
<path d="M2730 3364 c0 -8 5 -12 10 -9 6 3 10 10 10 16 0 5 -4 9 -10 9 -5 0
-10 -7 -10 -16z"/>
<path d="M4467 5963 c-11 -11 -8 -20 7 -20 8 0 12 6 9 14 -6 15 -7 15 -16 6z"/>
<path d="M0 5371 l0 -31 278 -1 c152 0 302 -2 332 -4 30 -2 404 -6 831 -10
l777 -6 16 23 c9 12 16 25 16 28 0 3 -152 5 -337 5 -186 0 -527 3 -758 8 -231
4 -585 10 -787 13 l-368 6 0 -31z"/>
<path d="M2667 5299 c4 -13 8 -18 11 -10 2 7 -1 18 -6 23 -8 8 -9 4 -5 -13z"/>
<path d="M1654 5279 c32 -11 60 -18 63 -15 5 5 -93 36 -111 35 -6 0 15 -9 48
-20z"/>
<path d="M1585 5220 c-3 -5 -1 -10 4 -10 6 0 11 5 11 10 0 6 -2 10 -4 10 -3 0
-8 -4 -11 -10z"/>
<path d="M1645 5190 c-3 -5 3 -10 14 -10 11 0 23 5 26 10 3 6 -3 10 -14 10
-11 0 -23 -4 -26 -10z"/>
<path d="M4511 5084 c0 -11 3 -14 6 -6 3 7 2 16 -1 19 -3 4 -6 -2 -5 -13z"/>
<path d="M4420 5011 c0 -5 14 -12 31 -16 22 -5 36 -3 47 9 10 10 12 16 5 16
-7 0 -14 -4 -18 -10 -4 -6 -15 -6 -31 0 -31 12 -34 12 -34 1z"/>
<path d="M4410 4940 c0 -5 5 -10 11 -10 5 0 7 5 4 10 -3 6 -8 10 -11 10 -2 0
-4 -4 -4 -10z"/>
<path d="M3277 4859 c-28 -32 -34 -45 -17 -34 10 6 54 65 48 65 -2 0 -16 -14
-31 -31z"/>
<path d="M3170 4860 c8 -5 20 -10 25 -10 6 0 3 5 -5 10 -8 5 -19 10 -25 10 -5
0 -3 -5 5 -10z"/>
<path d="M3232 4849 c-19 -30 -8 -34 12 -4 9 14 13 25 9 25 -5 0 -14 -9 -21
-21z"/>
<path d="M3148 4843 c7 -3 16 -2 19 1 4 3 -2 6 -13 5 -11 0 -14 -3 -6 -6z"/>
<path d="M4165 4750 c-3 -5 1 -10 9 -10 9 0 16 5 16 10 0 6 -4 10 -9 10 -6 0
-13 -4 -16 -10z"/>
<path d="M3091 4703 c7 -12 15 -20 18 -17 3 2 -3 12 -13 22 -17 16 -18 16 -5
-5z"/>
<path d="M3820 4463 c0 -13 5 -23 10 -23 13 0 13 11 0 30 -8 12 -10 11 -10 -7z"/>
<path d="M3905 4450 c-3 -5 -1 -10 4 -10 6 0 11 5 11 10 0 6 -2 10 -4 10 -3 0
-8 -4 -11 -10z"/>
<path d="M3682 4424 c4 -21 22 -23 26 -1 2 10 -3 17 -13 17 -10 0 -15 -6 -13
-16z"/>
<path d="M3770 4413 c-17 -20 -19 -25 -5 -20 9 4 23 7 31 7 8 0 14 6 14 14 0
26 -17 26 -40 -1z"/>
<path d="M3600 4200 c0 -6 7 -10 15 -10 8 0 15 2 15 4 0 2 -7 6 -15 10 -8 3
-15 1 -15 -4z"/>
<path d="M3530 4189 c0 -6 -7 -18 -16 -26 -12 -13 -18 -13 -24 -4 -5 9 -10 10
-14 2 -9 -14 16 -52 31 -47 6 3 17 -2 23 -9 7 -8 17 -12 23 -8 6 4 1 10 -11
14 -31 12 -27 26 8 34 17 4 30 13 30 21 0 18 -14 18 -30 -1 -7 -8 -17 -15 -22
-15 -5 0 -2 7 6 16 9 8 14 20 11 25 -8 12 -15 11 -15 -2z"/>
<path d="M9934 4137 c18 -55 18 -65 -1 -70 -15 -4 -15 -5 -1 -6 20 -1 32 -46
24 -93 -9 -63 -10 -183 -2 -197 6 -10 5 -12 -2 -7 -7 4 -12 2 -12 -3 0 -6 6
-11 13 -11 9 0 9 -2 0 -8 -10 -7 -10 -12 0 -26 27 -37 189 -8 200 35 4 15 2
19 -10 15 -8 -3 -26 -9 -39 -12 -13 -3 -24 -12 -24 -19 0 -23 -81 -34 -110
-15 -11 7 -5 9 21 5 19 -3 46 -1 60 4 21 9 19 10 -19 9 -23 -1 -46 2 -52 8 -6
6 5 9 33 7 41 -2 41 -2 9 6 -18 5 -36 12 -40 16 -4 5 3 5 15 2 13 -3 25 -1 28
3 3 5 -8 11 -25 15 -16 4 -32 11 -35 16 -4 5 5 5 20 -1 34 -13 55 -13 55 0 0
6 -9 10 -19 10 -27 0 -51 10 -51 21 0 6 8 5 19 -1 11 -5 35 -10 53 -9 26 0 29
2 14 8 -19 7 -18 8 5 16 21 7 19 9 -20 14 -25 3 -46 11 -48 18 -3 7 4 10 19 7
17 -4 14 0 -12 16 -32 20 -23 22 25 6 19 -7 19 -6 2 6 -10 7 -26 19 -35 26
-16 13 -16 13 1 8 9 -3 24 -9 32 -12 8 -3 15 -1 15 5 0 6 -6 11 -14 11 -7 0
-19 6 -25 14 -10 12 -6 12 26 0 45 -16 93 -18 93 -4 0 6 -19 10 -42 10 -26 0
-55 8 -73 20 -35 23 -29 26 11 5 32 -17 68 -20 59 -6 -3 5 -19 12 -36 16 -17
4 -33 14 -36 23 -4 10 -10 19 -14 22 -4 3 -19 25 -34 50 -15 25 -24 37 -21 27z
m78 -277 c10 0 18 -4 18 -9 0 -6 -12 -6 -30 0 -16 6 -30 16 -30 22 0 7 4 7 12
-1 7 -7 20 -12 30 -12z"/>
<path d="M3590 4045 c0 -8 7 -15 16 -15 14 0 14 3 4 15 -7 8 -14 15 -16 15 -2
0 -4 -7 -4 -15z"/>
<path d="M2850 4016 c0 -9 5 -16 10 -16 6 0 10 4 10 9 0 6 -4 13 -10 16 -5 3
-10 -1 -10 -9z"/>
<path d="M3520 4020 c0 -5 5 -10 10 -10 6 0 10 5 10 10 0 6 -4 10 -10 10 -5 0
-10 -4 -10 -10z"/>
<path d="M9780 4020 c0 -5 7 -10 15 -10 8 0 15 5 15 10 0 6 -7 10 -15 10 -8 0
-15 -4 -15 -10z"/>
<path d="M3447 3999 c7 -7 15 -10 18 -7 3 3 -2 9 -12 12 -14 6 -15 5 -6 -5z"/>
<path d="M2875 3989 c-4 -6 -5 -13 -2 -16 7 -7 27 6 27 18 0 12 -17 12 -25 -2z"/>
<path d="M10075 3920 c-30 -8 -30 -8 8 -9 20 0 37 4 37 9 0 11 -2 11 -45 0z"/>
<path d="M10220 3905 c-19 -7 -34 -18 -32 -24 3 -15 -15 -14 -20 1 -3 9 -6 9
-12 0 -12 -19 38 -25 75 -8 l34 16 -35 -5 c-25 -4 -31 -2 -20 5 8 5 23 10 32
10 9 0 20 5 23 10 8 13 -1 12 -45 -5z"/>
<path d="M10040 3889 c0 -8 59 -3 68 5 3 3 -12 5 -32 4 -20 -1 -36 -5 -36 -9z"/>
<path d="M10301 3878 c-1 -21 -17 -24 -24 -5 -4 9 -6 9 -6 -1 -1 -7 8 -16 20
-20 18 -7 17 -9 -16 -19 -31 -10 -37 -9 -47 6 -10 16 -15 17 -52 6 -23 -7 -40
-18 -38 -24 2 -12 -14 -15 -21 -3 -2 4 -2 1 -1 -5 2 -7 -4 -13 -13 -13 -9 0
-14 -2 -11 -5 3 -3 19 -2 36 1 20 4 29 11 25 20 -3 8 0 14 7 14 6 0 8 -4 5
-10 -3 -5 3 -10 14 -10 11 0 23 5 27 12 5 8 2 9 -10 5 -10 -4 -15 -3 -11 3 3
6 12 10 19 10 18 0 48 -35 39 -44 -5 -4 6 -5 22 -2 27 6 27 5 -5 -7 -29 -11
-37 -11 -48 0 -7 7 -21 13 -30 12 -28 -1 -128 -37 -106 -38 12 -1 36 4 54 10
25 9 34 9 40 -1 5 -9 9 -9 14 -1 4 6 2 11 -5 11 -7 0 -10 3 -6 6 3 4 14 4 23
0 14 -5 14 -9 3 -23 -12 -15 -12 -16 4 -10 9 3 17 2 17 -3 0 -6 5 -10 11 -10
5 0 8 4 5 9 -3 5 1 12 9 15 13 5 14 2 5 -15 -8 -14 -17 -18 -33 -14 -12 4 -30
9 -40 12 -10 3 -16 0 -15 -8 2 -7 -28 -22 -75 -38 -65 -21 -82 -23 -107 -14
-17 6 -30 7 -30 2 0 -8 12 -12 70 -23 14 -3 2 -4 -26 -2 -33 2 -51 -1 -51 -9
0 -12 87 -13 122 -1 11 3 4 -1 -15 -10 -19 -9 -46 -13 -62 -10 -15 3 -28 1
-28 -4 0 -6 17 -10 38 -11 31 0 34 -2 17 -10 -15 -7 -10 -8 20 -4 22 2 34 2
28 -1 -7 -3 -13 -15 -13 -27 0 -18 2 -19 10 -7 8 13 14 8 12 -10 0 -3 7 -6 16
-6 9 0 40 -3 67 -7 l50 -6 -40 15 -40 14 38 -5 c45 -7 63 1 46 21 -9 11 -6 16
16 24 15 6 32 13 38 17 6 3 7 1 3 -5 -4 -7 -1 -12 7 -12 7 0 14 6 14 14 0 19
-39 28 -71 16 -20 -7 -24 -6 -20 5 3 7 11 12 18 9 6 -2 17 8 24 23 8 21 11 22
8 6 -4 -22 10 -33 45 -33 13 0 17 -5 13 -17 -5 -16 -4 -16 8 -2 11 12 107 51
186 75 43 13 -50 -32 -108 -52 -36 -13 -56 -23 -44 -23 24 -1 110 28 167 55
32 15 35 19 20 25 -16 7 -15 8 5 8 12 1 22 6 22 11 0 13 6 14 -80 -16 -96 -33
-173 -55 -177 -50 -4 4 97 41 157 56 24 7 52 20 61 31 9 10 36 26 60 34 65 23
173 79 160 83 -6 2 -42 -12 -80 -32 -37 -19 -89 -40 -115 -47 -25 -6 -49 -15
-52 -20 -3 -5 3 -6 13 -3 16 5 16 4 -1 -10 -23 -18 -32 -20 -41 -6 -3 5 -13 6
-22 3 -11 -4 -14 -3 -9 5 9 15 5 15 -31 1 -22 -8 -24 -12 -13 -19 8 -6 20 -10
25 -10 6 0 3 5 -5 10 -13 9 -13 10 0 9 18 -1 59 -17 45 -18 -5 -1 -45 -12 -88
-26 -66 -20 -78 -21 -73 -8 5 11 2 14 -9 9 -9 -3 -13 -2 -10 4 3 6 12 10 20
10 7 0 15 7 19 15 3 8 13 14 23 14 16 -1 16 -2 1 -6 -16 -4 -33 -32 -24 -40 2
-3 13 0 23 6 14 8 15 11 3 11 -9 0 -5 6 10 15 l25 13 -27 7 c-15 4 -37 4 -50
1 -17 -4 -16 -2 5 6 30 13 37 38 10 38 -11 0 -14 3 -7 8 14 10 26 42 14 42 -5
0 -11 10 -13 23 -3 14 -5 16 -6 5z m-66 -167 c-17 -15 -86 -34 -139 -37 l-51
-3 40 14 c22 8 47 12 56 10 8 -3 33 1 55 9 48 18 50 18 39 7z m41 -30 c-4 -5
-1 -12 4 -14 6 -3 5 -4 -2 -3 -15 3 -23 26 -8 26 6 0 9 -4 6 -9z m-101 -39
c-3 -3 -11 0 -18 7 -9 10 -8 11 6 5 10 -3 15 -9 12 -12z m-40 2 c13 -5 14 -8
3 -15 -19 -13 -36 -11 -18 2 12 8 10 9 -10 5 -63 -15 -74 -16 -40 -2 42 17 44
18 65 10z m30 -44 c-3 -5 -12 -10 -18 -10 -7 0 -6 4 3 10 19 12 23 12 15 0z"/>
<path d="M3210 3850 c0 -5 9 -10 20 -10 24 0 26 -13 5 -34 -22 -21 -19 -35 10
-42 14 -3 22 -10 19 -15 -3 -5 0 -9 5 -9 13 0 13 3 5 24 -3 9 -12 16 -20 16
-18 0 -18 5 2 36 19 28 19 29 -18 38 -17 4 -28 2 -28 -4z"/>
<path d="M10240 3850 c8 -5 20 -10 25 -10 6 0 3 5 -5 10 -8 5 -19 10 -25 10
-5 0 -3 -5 5 -10z"/>
<path d="M3270 3810 c0 -5 7 -10 16 -10 8 0 12 5 9 10 -3 6 -10 10 -16 10 -5
0 -9 -4 -9 -10z"/>
<path d="M9440 3810 c0 -5 5 -10 10 -10 6 0 10 5 10 10 0 6 -4 10 -10 10 -5 0
-10 -4 -10 -10z"/>
<path d="M10550 3759 c0 -5 5 -7 10 -4 6 3 10 1 10 -4 0 -6 7 -11 16 -11 14 0
14 3 4 15 -14 17 -40 20 -40 4z"/>
<path d="M10686 3741 c-9 -15 -58 -23 -66 -11 -9 14 -55 -3 -63 -24 -6 -14
-70 -48 -132 -70 -16 -6 -17 -9 -5 -16 27 -17 55 -11 135 30 52 26 69 39 50
36 -16 -3 -24 -3 -17 0 18 8 15 27 -4 20 -8 -3 -12 -2 -9 4 3 6 15 10 26 10
11 0 17 -5 14 -10 -4 -7 2 -9 19 -4 43 10 30 -13 -24 -42 -28 -15 -48 -29 -45
-32 7 -8 97 40 102 55 3 7 9 13 15 13 5 0 6 -5 2 -12 -5 -8 -2 -9 10 -5 10 4
15 3 11 -3 -3 -6 -11 -10 -17 -10 -15 0 -77 -31 -76 -38 2 -21 -3 -32 -13 -26
-8 4 -7 9 2 16 10 6 6 7 -11 2 -14 -4 -29 -12 -33 -18 -6 -7 -7 -4 -3 7 3 9 1
17 -4 17 -6 0 -10 -7 -10 -15 0 -8 -5 -15 -11 -15 -5 0 -7 5 -4 10 3 6 1 10
-4 10 -6 0 -11 -4 -11 -10 0 -5 -6 -7 -14 -4 -8 3 -16 1 -20 -4 -3 -5 13 -8
34 -8 34 1 41 -3 51 -26 10 -24 13 -26 35 -16 16 8 21 14 13 19 -26 16 6 29
51 20 3 -1 -2 -6 -10 -11 -13 -9 -13 -12 0 -23 20 -16 22 -34 5 -34 -8 0 -13
5 -12 10 1 5 -4 12 -12 15 -8 2 -11 0 -8 -5 4 -6 -4 -9 -18 -8 -13 2 -31 -5
-41 -16 -16 -18 -16 -19 12 -19 22 0 26 3 14 10 -13 8 -12 10 3 10 10 0 20 -7
23 -15 7 -17 34 -21 34 -4 0 6 7 3 16 -6 11 -10 20 -13 26 -7 6 6 20 5 36 -4
35 -18 46 -18 38 1 -5 14 -4 14 16 0 31 -21 70 -20 66 3 -2 9 -13 18 -26 20
-12 1 -32 4 -44 6 -13 2 -27 4 -32 5 -5 0 -4 7 2 14 9 10 6 18 -9 31 -16 13
-18 20 -9 31 6 8 9 19 6 24 -4 5 -1 13 5 17 8 4 9 3 5 -4 -4 -7 -3 -12 2 -12
11 0 26 30 23 44 -1 4 4 15 10 23 10 11 8 15 -9 19 -12 4 -19 11 -15 20 6 16
-13 19 -22 4 -7 -12 20 -42 29 -32 4 3 4 -1 0 -11 -3 -9 -10 -17 -16 -17 -5 0
-6 5 -3 10 3 6 1 10 -4 10 -16 0 -13 -20 4 -26 23 -9 18 -19 -11 -21 -14 0
-31 -7 -38 -13 -8 -10 -7 -12 5 -7 9 3 16 0 16 -8 0 -11 -5 -11 -19 -4 -15 8
-17 13 -7 25 6 8 18 14 25 14 8 0 14 5 14 11 0 5 -5 7 -11 3 -8 -5 -8 -1 0 14
14 27 14 35 -1 26 -7 -4 -8 -3 -4 5 5 8 1 11 -16 8 -12 -2 -17 -2 -10 0 6 3
12 11 12 19 0 16 -6 18 -14 5z m-116 -65 c0 -9 -78 -44 -110 -50 -30 -5 -29
-3 10 11 25 9 54 22 65 29 19 14 35 18 35 10z m115 -26 c-3 -5 -12 -10 -20
-10 -8 0 -17 -5 -21 -12 -5 -8 -2 -9 12 -4 10 4 15 4 11 0 -4 -4 8 -18 25 -31
18 -12 28 -23 22 -23 -5 -1 2 -7 16 -15 21 -12 23 -15 8 -20 -10 -4 -15 -13
-11 -23 4 -14 3 -15 -5 -2 -6 8 -9 17 -6 21 2 4 0 11 -6 14 -6 4 -10 3 -9 -2
1 -4 -2 -19 -8 -32 l-10 -25 -5 27 c-3 16 -1 27 6 27 6 1 0 7 -13 14 -14 8
-19 16 -13 20 6 3 13 2 17 -4 9 -14 25 -12 20 3 -7 16 -55 38 -67 31 -6 -4 -5
3 1 14 11 21 38 41 54 42 5 0 5 -4 2 -10z m-90 -68 c1 -13 -4 -22 -12 -22 -8
0 -12 4 -9 9 4 5 1 11 -6 13 -6 2 -8 10 -4 17 11 18 29 8 31 -17z"/>
<path d="M10368 3723 c7 -3 16 -2 19 1 4 3 -2 6 -13 5 -11 0 -14 -3 -6 -6z"/>
<path d="M3200 3710 c0 -5 7 -10 15 -10 8 0 15 5 15 10 0 6 -7 10 -15 10 -8 0
-15 -4 -15 -10z"/>
<path d="M3250 3706 c0 -2 7 -6 15 -10 8 -3 15 -1 15 4 0 6 -7 10 -15 10 -8 0
-15 -2 -15 -4z"/>
<path d="M11520 3660 c0 -5 7 -10 16 -10 8 0 12 5 9 10 -3 6 -10 10 -16 10 -5
0 -9 -4 -9 -10z"/>
<path d="M10377 3616 c-7 -18 18 -54 30 -43 4 5 0 13 -10 19 -14 8 -16 13 -6
24 7 8 7 14 1 14 -5 0 -12 -6 -15 -14z"/>
<path d="M10317 3614 c-4 -4 -24 -8 -44 -10 -71 -4 -69 -3 -54 -13 10 -7 11
-13 1 -32 -10 -20 -10 -22 1 -11 15 14 49 16 49 2 0 -5 -6 -7 -14 -4 -8 3 -17
1 -20 -4 -7 -13 33 -10 42 3 9 13 32 17 32 6 0 -5 -6 -11 -12 -13 -7 -3 -3 -7
9 -10 16 -4 20 -2 16 8 -6 17 16 18 37 3 13 -9 12 -10 -2 -5 -10 3 -18 1 -18
-3 0 -5 20 -9 44 -8 24 1 42 5 40 9 -2 4 0 9 6 13 9 5 14 -7 11 -27 0 -4 13
-6 29 -6 16 1 27 5 24 10 -3 5 -12 7 -20 4 -11 -4 -12 -2 -1 14 14 23 29 27
21 5 -5 -13 6 -20 28 -16 4 0 5 -6 2 -14 -8 -20 1 -19 25 2 22 18 19 35 -5 26
-9 -3 -21 3 -31 16 -11 17 -18 19 -28 11 -9 -8 -15 -8 -20 0 -3 5 -11 10 -18
10 -6 0 -2 -7 9 -15 18 -14 17 -14 -8 -5 -15 5 -33 7 -40 5 -7 -3 -25 6 -40
20 -16 14 -28 22 -28 18 0 -4 -4 -2 -8 5 -5 7 -11 9 -15 6z m-54 -28 c4 -10 1
-13 -9 -9 -15 6 -19 23 -5 23 5 0 11 -7 14 -14z m81 -2 c9 -8 16 -18 16 -22 0
-3 -5 -1 -12 6 -15 15 -32 16 -22 1 4 -8 0 -7 -15 1 -22 11 -20 30 4 30 7 0
21 -7 29 -16z"/>
<path d="M9200 3600 c0 -5 5 -10 11 -10 5 0 7 5 4 10 -3 6 -8 10 -11 10 -2 0
-4 -4 -4 -10z"/>
<path d="M11697 3603 c-12 -11 -8 -23 8 -23 8 0 15 7 15 15 0 16 -12 20 -23 8z"/>
<path d="M10020 3575 c0 -8 5 -15 10 -15 6 0 10 7 10 15 0 8 -4 15 -10 15 -5
0 -10 -7 -10 -15z"/>
<path d="M11184 3542 c-27 -26 -107 -99 -179 -162 -71 -63 -141 -126 -155
-140 -14 -14 -65 -62 -115 -106 -49 -43 -104 -94 -123 -112 l-34 -33 94 -91
c51 -50 142 -136 203 -192 94 -87 177 -166 364 -346 85 -81 58 -89 237 68 161
141 482 449 454 436 -13 -6 -13 -5 0 9 17 17 139 61 148 52 3 -3 -4 -15 -15
-28 -11 -12 -43 -56 -71 -97 -28 -41 -78 -113 -112 -160 -33 -47 -69 -97 -78
-112 -10 -15 -47 -52 -82 -84 -36 -31 -101 -91 -145 -133 -45 -42 -137 -128
-205 -191 -212 -195 -276 -260 -258 -260 9 0 32 16 51 35 19 19 38 35 43 35 5
0 2 -5 -6 -10 -12 -8 -11 -10 7 -10 12 0 27 9 33 21 7 12 18 18 26 15 9 -4 14
1 14 15 0 18 2 19 29 5 26 -14 30 -14 49 7 21 22 21 23 2 35 -32 20 -23 32 24
32 34 0 46 4 50 18 7 20 60 44 73 32 4 -4 28 -3 51 2 36 8 43 13 39 29 -3 10
-1 19 3 19 5 0 10 -7 12 -16 3 -17 68 -49 68 -34 0 6 -7 10 -16 10 -9 0 -14 6
-11 13 6 16 49 11 63 -8 15 -21 23 -19 34 8 7 17 9 18 9 5 1 -10 8 -18 16 -18
9 0 15 -9 15 -22 0 -25 14 -14 24 18 5 16 2 23 -14 27 -11 3 -20 12 -20 21 0
20 14 20 45 0 13 -9 29 -13 36 -9 8 5 9 1 4 -16 -8 -24 -7 -24 13 -6 16 15 29
17 66 12 50 -8 67 -22 45 -36 -8 -5 -9 -9 -3 -9 18 0 37 28 31 44 -7 17 39 51
48 36 3 -5 13 -6 23 -3 15 6 15 5 3 -10 -9 -11 -10 -17 -2 -17 18 0 26 5 23
13 -1 5 7 11 18 14 14 4 20 14 20 34 0 24 4 29 25 29 15 0 25 -6 25 -14 0 -17
19 -25 51 -20 28 4 94 -26 94 -43 0 -6 3 -15 8 -19 4 -4 7 0 7 8 0 9 12 18 29
21 19 4 28 12 27 23 -1 13 10 17 57 20 32 2 57 -1 57 -6 0 -6 -4 -10 -10 -10
-5 0 -10 -7 -10 -15 0 -8 -15 -21 -32 -29 -20 -9 -26 -15 -15 -15 9 -1 17 -5
17 -11 0 -6 9 -6 25 0 16 6 26 6 30 -1 4 -5 16 -7 27 -3 16 5 20 3 15 -9 -5
-14 11 -27 34 -27 11 0 -9 42 -25 52 -6 4 -21 5 -34 1 -20 -5 -23 -2 -20 18 2
17 13 27 38 35 19 7 34 17 32 23 -1 6 7 11 19 11 15 0 19 5 15 15 -3 9 0 15 9
15 8 0 15 8 15 17 0 13 3 14 12 5 7 -7 20 -12 30 -12 10 0 18 -5 18 -11 0 -6
9 -8 22 -4 17 6 20 4 15 -9 -4 -10 1 -20 13 -26 28 -15 30 -13 30 35 0 38 -3
45 -20 45 -11 0 -20 5 -20 11 0 6 9 9 20 6 23 -6 26 3 8 21 -9 9 -9 12 0 12 9
0 12 98 12 411 0 328 -3 409 -12 402 -7 -6 -26 -13 -43 -17 -16 -4 -38 -9 -47
-12 -12 -4 -18 0 -18 12 0 10 -3 14 -7 10 -5 -4 -8 -13 -8 -19 0 -6 -22 -16
-49 -23 -44 -12 -52 -11 -73 6 -23 18 -25 18 -81 0 -126 -41 -709 -210 -742
-215 l-35 -5 40 14 c22 8 123 39 225 70 451 135 555 167 562 174 4 4 9 19 10
32 3 22 -1 25 -33 28 -43 4 -100 -15 -80 -27 13 -8 -23 -21 -209 -76 -41 -12
-151 -46 -245 -74 -407 -125 -508 -151 -599 -151 -59 0 -76 3 -76 14 0 23 55
51 188 95 68 23 135 48 150 57 15 8 19 13 9 10 -12 -4 -32 8 -62 39 -25 24
-45 47 -45 49 0 3 -11 17 -24 31 -14 15 -36 39 -50 54 -14 15 -26 30 -26 34 0
3 -13 26 -30 50 -30 45 -81 167 -83 202 -2 20 -53 85 -67 85 -4 0 -29 -22 -56
-48z m496 -662 c0 -5 -8 -10 -17 -10 -15 0 -16 2 -3 10 19 12 20 12 20 0z
m1060 -555 c0 -8 -4 -15 -9 -15 -13 0 -22 16 -14 24 11 11 23 6 23 -9z m-285
-65 c39 -26 15 -26 -27 0 -18 11 -26 20 -18 20 8 0 29 -9 45 -20z m285 10 c0
-5 -4 -10 -9 -10 -6 0 -13 5 -16 10 -3 6 1 10 9 10 9 0 16 -4 16 -10z m-146
-16 c12 -5 13 -10 5 -25 -12 -23 -52 -25 -69 -4 -10 13 -9 15 9 15 11 0 21 5
21 10 0 11 11 13 34 4z m-579 -44 c-3 -5 -16 -10 -28 -9 -21 0 -21 1 -2 9 28
12 37 12 30 0z m325 -14 c0 -3 -4 -8 -10 -11 -5 -3 -10 -1 -10 4 0 6 5 11 10
11 6 0 10 -2 10 -4z m-466 -35 c-2 -3 -12 3 -22 13 -16 17 -16 18 5 5 12 -7
20 -15 17 -18z m-164 -11 c0 -11 -7 -20 -15 -20 -8 0 -15 9 -15 20 0 11 7 20
15 20 8 0 15 -9 15 -20z m-265 0 c3 -5 1 -10 -4 -10 -6 0 -11 5 -11 10 0 6 2
10 4 10 3 0 8 -4 11 -10z m502 4 c-3 -3 -12 -4 -19 -1 -8 3 -5 6 6 6 11 1 17
-2 13 -5z m48 -14 c3 -5 2 -10 -4 -10 -5 0 -13 5 -16 10 -3 6 -2 10 4 10 5 0
13 -4 16 -10z"/>
<path d="M11405 3580 c3 -5 8 -10 11 -10 2 0 4 5 4 10 0 6 -5 10 -11 10 -5 0
-7 -4 -4 -10z"/>
<path d="M11436 3575 c-9 -26 -7 -32 5 -12 6 10 9 21 6 23 -2 3 -7 -2 -11 -11z"/>
<path d="M10527 3565 c3 -8 9 -12 14 -9 12 7 11 11 -5 17 -10 4 -13 1 -9 -8z"/>
<path d="M10792 3534 c10 -10 20 -16 22 -13 3 3 -5 11 -17 18 -21 13 -21 12
-5 -5z"/>
<path d="M11498 3543 c7 -3 16 -2 19 1 4 3 -2 6 -13 5 -11 0 -14 -3 -6 -6z"/>
<path d="M11453 3533 c9 -2 17 -9 17 -14 0 -5 5 -9 11 -9 8 0 8 5 -1 15 -7 8
-20 14 -29 14 -13 -1 -13 -2 2 -6z"/>
<path d="M11675 3530 c-6 -10 0 -14 43 -23 26 -6 30 8 5 17 -10 3 -23 8 -30
12 -6 3 -14 0 -18 -6z"/>
<path d="M11595 3510 c3 -5 10 -10 16 -10 5 0 9 5 9 10 0 6 -7 10 -16 10 -8 0
-12 -4 -9 -10z"/>
<path d="M11645 3510 c3 -5 8 -10 11 -10 2 0 4 5 4 10 0 6 -5 10 -11 10 -5 0
-7 -4 -4 -10z"/>
<path d="M11650 3473 c0 -5 6 -18 14 -28 13 -18 13 -18 12 5 -1 21 -26 43 -26
23z"/>
<path d="M11630 3421 c0 -5 7 -11 15 -15 9 -3 15 0 15 9 0 8 -7 15 -15 15 -8
0 -15 -4 -15 -9z"/>
<path d="M11600 3390 c0 -6 7 -10 15 -10 8 0 15 2 15 4 0 2 -7 6 -15 10 -8 3
-15 1 -15 -4z"/>
<path d="M4800 3349 c0 -5 5 -7 10 -4 6 3 10 8 10 11 0 2 -4 4 -10 4 -5 0 -10
-5 -10 -11z"/>
<path d="M4810 3315 c-6 -8 -10 -20 -7 -27 3 -8 6 -5 7 7 l1 20 9 -20 c8 -18
9 -17 9 8 1 31 -2 33 -19 12z"/>
<path d="M4805 3240 c-3 -5 -1 -10 4 -10 6 0 11 5 11 10 0 6 -2 10 -4 10 -3 0
-8 -4 -11 -10z"/>
<path d="M4830 3241 c0 -5 5 -13 10 -16 6 -3 10 -2 10 4 0 5 -4 13 -10 16 -5
3 -10 2 -10 -4z"/>
<path d="M12568 3233 c6 -2 18 -2 25 0 6 3 1 5 -13 5 -14 0 -19 -2 -12 -5z"/>
<path d="M4680 3161 c0 -5 5 -13 10 -16 6 -3 10 -2 10 4 0 5 -4 13 -10 16 -5
3 -10 2 -10 -4z"/>
<path d="M1498 3153 c7 -3 16 -2 19 1 4 3 -2 6 -13 5 -11 0 -14 -3 -6 -6z"/>
<path d="M1595 3123 c9 -36 7 -36 46 -24 l34 9 -30 2 -30 1 25 11 25 11 -25 7
c-47 15 -53 12 -45 -17z"/>
<path d="M12700 3140 c0 -13 11 -13 30 0 12 8 11 10 -7 10 -13 0 -23 -4 -23
-10z"/>
<path d="M1512 3118 c-21 -21 -13 -28 31 -28 27 0 37 3 29 9 -8 4 -12 12 -10
17 5 14 -36 16 -50 2z"/>
<path d="M4843 3080 c0 -25 2 -35 4 -22 2 12 2 32 0 45 -2 12 -4 2 -4 -23z"/>
<path d="M12561 3111 c-9 -6 -10 -11 -2 -15 6 -4 18 0 27 8 12 12 12 16 2 16
-7 0 -19 -4 -27 -9z"/>
<path d="M4685 3077 c-4 -10 -5 -21 -1 -24 10 -10 18 4 13 24 -4 17 -4 17 -12
0z"/>
<path d="M4680 3014 c0 -14 4 -23 10 -19 6 3 10 15 10 26 0 10 -4 19 -10 19
-5 0 -10 -12 -10 -26z"/>
<path d="M4685 2957 c-3 -7 -4 -127 -3 -267 l3 -255 5 268 c3 147 4 267 2 267
-1 0 -5 -6 -7 -13z"/>
<path d="M2700 2531 c0 -13 39 -45 46 -38 4 4 -1 9 -10 13 -9 3 -14 10 -11 14
3 4 -2 10 -10 14 -8 3 -15 2 -15 -3z"/>
<path d="M2767 2445 c20 -27 29 -30 39 -13 8 12 -22 38 -43 38 -11 0 -10 -6 4
-25z"/>
<path d="M4681 2414 c0 -11 3 -14 6 -6 3 7 2 16 -1 19 -3 4 -6 -2 -5 -13z"/>
<path d="M2813 2403 c-10 -4 -10 -8 1 -19 8 -7 16 -19 19 -26 3 -10 10 -8 23
6 17 17 17 18 2 13 -12 -4 -18 -1 -18 8 0 17 -11 24 -27 18z"/>
<path d="M2862 2332 c-10 -3 -10 -7 -1 -18 6 -8 15 -11 20 -8 5 3 6 -2 3 -10
-7 -18 1 -19 31 -6 11 5 14 9 7 9 -7 1 -11 4 -8 9 6 10 -36 30 -52 24z"/>
<path d="M2910 2264 c0 -3 5 -14 10 -25 16 -28 32 -23 18 6 -10 22 -28 35 -28
19z"/>
<path d="M9260 2250 c0 -5 5 -10 11 -10 5 0 7 5 4 10 -3 6 -8 10 -11 10 -2 0
-4 -4 -4 -10z"/>
<path d="M6810 2230 c0 -5 5 -10 10 -10 6 0 10 5 10 10 0 6 -4 10 -10 10 -5 0
-10 -4 -10 -10z"/>
<path d="M12711 2201 c-11 -7 -10 -15 9 -41 22 -31 22 -31 41 -11 23 24 24 31
4 31 -8 0 -15 7 -15 15 0 17 -18 19 -39 6z"/>
<path d="M2968 2174 c9 -13 23 -24 30 -24 9 0 8 7 -5 23 -23 32 -47 32 -25 1z"/>
<path d="M12625 2190 c-4 -6 6 -15 20 -20 32 -12 35 -12 35 -2 0 14 -48 33
-55 22z"/>
<path d="M12565 2161 c-4 -7 5 -11 24 -11 17 0 31 -4 31 -9 0 -5 7 -11 15 -15
16 -6 19 2 7 20 -10 16 -69 27 -77 15z"/>
<path d="M4683 2120 c0 -25 2 -35 4 -22 2 12 2 32 0 45 -2 12 -4 2 -4 -23z"/>
<path d="M12298 2153 c7 -3 16 -2 19 1 4 3 -2 6 -13 5 -11 0 -14 -3 -6 -6z"/>
<path d="M3022 2105 c6 -13 15 -22 19 -19 5 2 1 14 -9 24 -22 26 -24 25 -10
-5z"/>
<path d="M12380 2126 c0 -2 7 -7 16 -10 8 -3 12 -2 9 4 -6 10 -25 14 -25 6z"/>
<path d="M12290 2110 c0 -5 4 -10 9 -10 6 0 13 5 16 10 3 6 -1 10 -9 10 -9 0
-16 -4 -16 -10z"/>
<path d="M12138 2083 c7 -3 16 -2 19 1 4 3 -2 6 -13 5 -11 0 -14 -3 -6 -6z"/>
<path d="M12260 2083 c8 -4 23 -15 33 -26 9 -11 20 -17 24 -13 5 4 0 12 -10
17 -9 6 -15 14 -12 20 4 5 -6 9 -22 8 -16 0 -22 -3 -13 -6z"/>
<path d="M12411 2063 c-19 -13 -27 -23 -18 -23 8 0 23 -3 31 -6 12 -5 15 -2 9
11 -5 15 -2 17 20 13 19 -4 27 -1 27 8 0 8 5 14 10 14 6 0 10 -4 10 -10 0 -5
5 -10 11 -10 6 0 9 6 7 13 -8 21 -70 15 -107 -10z"/>
<path d="M12777 2070 c3 -11 7 -20 8 -20 1 0 5 9 8 20 3 12 0 20 -8 20 -8 0
-11 -8 -8 -20z"/>
<path d="M11710 2070 c0 -7 24 -20 36 -20 13 0 1 19 -16 23 -11 3 -20 2 -20
-3z"/>
<path d="M11665 2060 c3 -5 10 -10 16 -10 5 0 9 5 9 10 0 6 -7 10 -16 10 -8 0
-12 -4 -9 -10z"/>
<path d="M3066 2048 c15 -28 27 -38 36 -32 5 3 -1 14 -13 25 -26 22 -33 24
-23 7z"/>
<path d="M11922 2040 c0 -14 2 -19 5 -12 2 6 2 18 0 25 -3 6 -5 1 -5 -13z"/>
<path d="M9280 2042 c0 -6 -8 -8 -19 -5 -23 6 -32 -17 -21 -54 7 -25 8 -26 9
-5 1 19 5 22 24 17 15 -4 18 -3 9 3 -11 7 -11 12 2 25 10 10 12 18 6 22 -5 3
-10 2 -10 -3z"/>
<path d="M11535 2040 c-22 -9 -21 -10 13 -14 13 -2 22 3 22 11 0 15 -6 15 -35
3z"/>
<path d="M12594 2015 c1 -23 17 -32 18 -10 0 6 4 16 10 23 8 9 5 12 -10 12
-15 0 -20 -6 -18 -25z"/>
<path d="M12365 2020 c-3 -5 1 -10 10 -10 9 0 13 5 10 10 -3 6 -8 10 -10 10
-2 0 -7 -4 -10 -10z"/>
<path d="M12235 2010 c-3 -5 -1 -10 4 -10 6 0 11 5 11 10 0 6 -2 10 -4 10 -3
0 -8 -4 -11 -10z"/>
<path d="M12300 2009 c0 -5 5 -7 10 -4 6 3 10 8 10 11 0 2 -4 4 -10 4 -5 0
-10 -5 -10 -11z"/>
<path d="M12260 2006 c0 -2 7 -6 15 -10 8 -3 15 -1 15 4 0 6 -7 10 -15 10 -8
0 -15 -2 -15 -4z"/>
<path d="M3110 1995 c0 -15 24 -53 32 -49 4 3 1 12 -7 20 -8 9 -13 20 -10 25
4 5 1 9 -4 9 -6 0 -11 -2 -11 -5z"/>
<path d="M12237 1972 c-19 -23 -29 -52 -17 -52 6 0 10 7 10 15 0 9 11 20 25
25 29 11 31 16 11 23 -8 3 -21 -2 -29 -11z"/>
<path d="M12310 1960 c0 -5 5 -10 11 -10 5 0 7 5 4 10 -3 6 -8 10 -11 10 -2 0
-4 -4 -4 -10z"/>
<path d="M6645 1949 c-4 -6 -5 -12 -2 -15 2 -3 7 2 10 11 7 17 1 20 -8 4z"/>
<path d="M12170 1950 c0 -5 5 -10 10 -10 6 0 10 5 10 10 0 6 -4 10 -10 10 -5
0 -10 -4 -10 -10z"/>
<path d="M12317 1929 c7 -7 15 -10 18 -7 3 3 -2 9 -12 12 -14 6 -15 5 -6 -5z"/>
<path d="M12178 1923 c7 -3 16 -2 19 1 4 3 -2 6 -13 5 -11 0 -14 -3 -6 -6z"/>
<path d="M3160 1913 c1 -17 29 -45 39 -39 6 4 3 14 -9 26 -21 21 -30 25 -30
13z"/>
<path d="M9240 1899 c0 -18 2 -19 15 -9 8 7 15 16 15 21 0 5 -7 9 -15 9 -9 0
-15 -9 -15 -21z"/>
<path d="M12560 1900 c0 -5 5 -10 10 -10 6 0 10 5 10 10 0 6 -4 10 -10 10 -5
0 -10 -4 -10 -10z"/>
<path d="M12250 1870 c0 -5 7 -10 16 -10 8 0 12 5 9 10 -3 6 -10 10 -16 10 -5
0 -9 -4 -9 -10z"/>
<path d="M3222 1821 c7 -11 16 -17 20 -14 10 5 -10 33 -23 33 -5 0 -4 -9 3
-19z"/>
<path d="M12580 1800 c0 -5 5 -10 11 -10 5 0 7 5 4 10 -3 6 -8 10 -11 10 -2 0
-4 -4 -4 -10z"/>
<path d="M12235 1780 c3 -5 13 -10 21 -10 8 0 12 5 9 10 -3 6 -13 10 -21 10
-8 0 -12 -4 -9 -10z"/>
<path d="M3272 1755 c6 -13 15 -22 19 -19 5 2 1 14 -9 24 -22 26 -24 25 -10
-5z"/>
<path d="M10727 1743 c-10 -9 -9 -23 2 -23 5 0 11 7 15 15 5 15 -5 20 -17 8z"/>
<path d="M10980 1736 c0 -8 211 -180 405 -331 168 -130 191 -153 215 -213 11
-28 10 -39 -4 -75 -9 -24 -31 -59 -49 -78 -17 -20 -41 -47 -51 -60 -11 -13
-52 -62 -92 -109 -40 -47 -103 -121 -141 -166 -37 -44 -115 -136 -173 -204
-58 -68 -114 -135 -125 -150 -19 -25 -70 -86 -160 -189 -65 -74 -125 -148
-125 -155 0 -3 23 -6 50 -6 36 0 50 4 50 14 0 8 14 28 30 46 17 18 30 36 30
41 0 5 4 9 8 9 5 0 15 12 22 26 10 17 20 24 33 20 15 -4 16 -2 6 10 -9 11 -8
14 5 14 11 0 16 7 14 17 -2 11 6 22 20 28 13 5 25 20 28 32 6 21 56 48 68 36
3 -4 6 1 6 10 0 10 -5 17 -12 17 -15 0 0 15 15 15 7 1 11 6 9 13 -2 11 63 82
75 82 11 0 42 46 43 64 0 11 15 34 33 52 60 60 97 103 97 113 0 6 12 20 28 31
15 11 41 40 57 65 17 25 35 43 42 40 7 -2 15 0 18 5 3 5 -3 11 -12 13 -11 3
-7 5 10 6 24 1 27 4 22 21 -6 19 -3 22 28 24 19 2 42 36 56 84 12 42 25 54 34
30 2 -7 7 2 11 20 4 18 11 30 15 27 12 -7 51 34 51 53 0 9 9 31 20 49 10 18
15 35 10 38 -5 3 -6 13 -3 21 11 28 -65 144 -95 144 -8 0 -24 7 -34 17 -11 9
-18 11 -18 5 0 -7 -4 -12 -9 -12 -5 0 -7 8 -4 19 3 13 -2 20 -17 24 -12 3 -19
10 -16 15 4 6 -3 8 -15 5 -14 -4 -25 1 -35 16 -8 11 -22 21 -30 21 -8 0 -14 3
-14 8 0 4 -12 21 -26 37 -25 29 -25 30 -20 5 3 -14 3 -19 0 -12 -3 7 -17 17
-31 23 -26 10 -23 29 5 29 13 0 13 3 4 12 -10 10 -15 10 -23 -2 -8 -13 -11
-13 -19 2 -6 9 -23 19 -40 23 -29 6 -35 22 -15 38 6 4 -1 5 -15 2 -19 -5 -40
4 -83 35 -32 22 -56 36 -52 30 12 -19 -7 -10 -48 23 -48 38 -67 51 -67 43z
m154 -105 c-2 -3 -12 3 -22 13 -16 17 -16 18 5 5 12 -7 20 -15 17 -18z m36
-26 c11 -13 10 -14 -4 -9 -9 3 -16 10 -16 15 0 13 6 11 20 -6z"/>
<path d="M6066 1713 c-6 -14 -5 -15 5 -6 7 7 10 15 7 18 -3 3 -9 -2 -12 -12z"/>
<path d="M3318 1714 c-12 -11 14 -53 28 -47 8 3 14 9 14 15 0 5 -4 7 -9 4 -5
-3 -8 2 -7 11 1 17 -16 28 -26 17z"/>
<path d="M10823 1710 c-12 -5 -32 -23 -44 -39 -13 -17 -28 -31 -35 -31 -7 0
-29 -19 -48 -42 -39 -45 -45 -80 -20 -116 8 -12 13 -26 10 -31 -3 -5 1 -12 10
-15 22 -8 26 -8 20 3 -4 5 3 7 14 4 41 -11 70 8 139 93 39 48 71 92 71 98 0
15 -28 57 -48 74 -18 14 -38 15 -69 2z m4 -127 c2 -6 -4 -18 -13 -28 -15 -15
-18 -15 -32 -1 -12 12 -13 18 -3 30 13 16 43 15 48 -1z"/>
<path d="M10605 1601 c-49 -60 -95 -108 -102 -107 -13 1 -135 -135 -128 -143
3 -2 11 1 18 7 8 7 16 9 19 6 6 -6 298 326 298 338 0 20 -21 -1 -105 -101z
m-115 -141 c-12 -16 -24 -30 -26 -30 -3 0 4 14 16 30 12 17 24 30 26 30 3 0
-4 -13 -16 -30z m-40 -43 c0 -2 -10 -12 -22 -23 l-23 -19 19 23 c18 21 26 27
26 19z"/>
<path d="M12247 1674 c-8 -8 1 -24 14 -24 5 0 9 7 9 15 0 15 -12 20 -23 9z"/>
<path d="M6041 1634 c0 -11 3 -14 6 -6 3 7 2 16 -1 19 -3 4 -6 -2 -5 -13z"/>
<path d="M3360 1630 c0 -5 6 -10 14 -10 8 0 18 5 21 10 3 6 -3 10 -14 10 -12
0 -21 -4 -21 -10z"/>
<path d="M12140 1611 c0 -6 5 -13 10 -16 6 -3 10 1 10 9 0 9 -4 16 -10 16 -5
0 -10 -4 -10 -9z"/>
<path d="M6022 1575 c-17 -37 -14 -45 4 -12 9 16 14 31 11 33 -2 2 -9 -7 -15
-21z"/>
<path d="M12745 1570 c-3 -5 1 -10 9 -10 9 0 16 5 16 10 0 6 -4 10 -9 10 -6 0
-13 -4 -16 -10z"/>
<path d="M3410 1561 c0 -5 5 -13 10 -16 6 -3 10 -2 10 4 0 5 -4 13 -10 16 -5
3 -10 2 -10 -4z"/>
<path d="M12340 1544 c0 -8 5 -12 10 -9 6 4 8 11 5 16 -9 14 -15 11 -15 -7z"/>
<path d="M8370 1510 c0 -5 5 -10 10 -10 6 0 10 -12 10 -27 0 -16 5 -35 11 -43
8 -11 9 -5 5 25 -3 22 -6 46 -6 53 0 6 -7 12 -15 12 -8 0 -15 -4 -15 -10z"/>
<path d="M3461 1495 c0 -22 25 -44 40 -34 12 7 11 9 -3 9 -9 0 -22 8 -27 18
-6 9 -10 13 -10 7z"/>
<path d="M12432 1450 c0 -14 2 -19 5 -12 2 6 2 18 0 25 -3 6 -5 1 -5 -13z"/>
<path d="M3515 1427 c-11 -25 19 -57 37 -39 9 9 8 12 -4 12 -9 0 -18 10 -21
23 -3 20 -4 20 -12 4z"/>
<path d="M12386 1425 c4 -8 1 -22 -6 -30 -13 -16 -7 -45 10 -45 6 0 8 5 5 10
-3 6 -2 10 4 10 6 0 10 16 9 35 -1 21 -6 35 -14 35 -8 0 -11 -6 -8 -15z"/>
<path d="M1729 1377 c-73 -49 -123 -201 -100 -307 16 -76 57 -144 119 -201 56
-51 88 -71 132 -83 14 -4 0 7 -30 24 -61 34 -131 98 -162 148 -82 133 -52 343
61 419 19 13 29 23 24 23 -6 0 -25 -10 -44 -23z"/>
<path d="M2147 1334 c87 -54 136 -97 189 -164 36 -47 52 -59 82 -64 20 -3 52
-15 70 -26 29 -18 31 -23 21 -41 -9 -17 -7 -23 10 -35 11 -8 27 -21 35 -29 21
-21 29 -19 48 15 13 23 24 30 48 30 28 0 45 20 18 20 -14 0 -68 39 -56 40 10
0 82 -33 88 -41 3 -3 46 -9 97 -12 98 -7 227 -43 216 -60 -4 -6 2 -8 16 -4 13
3 21 3 18 0 -3 -2 31 -23 76 -46 99 -51 177 -124 202 -190 45 -118 -35 -289
-160 -341 -92 -39 -226 -27 -344 29 -86 41 -147 100 -186 180 -25 53 -29 71
-29 155 -1 80 3 102 22 142 27 54 70 85 146 105 l51 13 -49 -6 c-85 -10 -163
-69 -187 -142 -7 -20 -10 -71 -7 -121 6 -134 59 -233 164 -308 139 -98 308
-120 440 -56 33 15 62 32 66 38 5 6 11 6 19 -2 10 -10 9 -14 -4 -19 -26 -9
-20 -21 13 -27 29 -6 44 -37 18 -37 -8 0 -5 -7 6 -15 23 -17 62 -20 71 -4 8
13 -10 60 -46 117 l-28 44 30 48 c39 63 53 73 107 80 42 5 49 9 70 48 18 32
21 46 13 56 -6 7 -8 16 -4 19 3 4 -1 7 -10 7 -9 0 -68 33 -129 74 -204 134
-359 205 -494 226 -38 6 -87 19 -109 30 -148 68 -445 183 -453 175 -10 -9 12
-24 76 -49 38 -15 78 -36 88 -48 l19 -21 -40 20 c-22 11 -51 24 -65 28 -25 8
-25 8 -6 -14 43 -48 4 -16 -75 62 -46 45 -109 96 -139 114 -81 47 -105 52 -33
7z m1263 -650 c0 -17 -22 -14 -28 4 -2 7 3 12 12 12 9 0 16 -7 16 -16z m41
-17 c-1 -12 -15 -9 -19 4 -3 6 1 10 8 8 6 -3 11 -8 11 -12z"/>
<path d="M6743 1355 c-3 -9 -3 -18 -1 -21 3 -3 8 4 11 16 6 23 -1 27 -10 5z"/>
<path d="M12665 1360 c-3 -5 -1 -10 4 -10 6 0 11 5 11 10 0 6 -2 10 -4 10 -3
0 -8 -4 -11 -10z"/>
<path d="M3560 1344 c0 -6 7 -17 15 -24 13 -11 18 -11 28 0 9 10 9 11 -1 5 -8
-4 -19 0 -27 11 -8 11 -15 14 -15 8z"/>
<path d="M3613 1282 c-8 -5 -6 -13 7 -29 16 -20 19 -21 36 -7 18 14 18 15 -2
9 -23 -6 -42 20 -21 29 7 2 8 5 2 5 -5 0 -15 -3 -22 -7z"/>
<path d="M3660 1202 c0 -5 6 -16 13 -25 9 -13 16 -14 27 -6 13 9 12 10 -3 5
-15 -5 -17 -2 -12 14 5 14 2 20 -9 20 -9 0 -16 -4 -16 -8z"/>
<path d="M3555 1170 c3 -5 8 -10 11 -10 2 0 4 5 4 10 0 6 -5 10 -11 10 -5 0
-7 -4 -4 -10z"/>
<path d="M12760 1154 c0 -8 5 -12 10 -9 6 3 10 10 10 16 0 5 -4 9 -10 9 -5 0
-10 -7 -10 -16z"/>
<path d="M3722 1132 c-17 -12 -4 -44 17 -40 9 2 14 8 13 13 -2 6 -8 9 -13 8
-14 -4 -11 15 4 20 6 3 8 6 2 6 -5 0 -16 -3 -23 -7z"/>
<path d="M3605 1100 c3 -5 8 -10 11 -10 2 0 4 5 4 10 0 6 -5 10 -11 10 -5 0
-7 -4 -4 -10z"/>
<path d="M1566 1081 c-3 -5 5 -8 19 -7 14 0 25 4 25 9 0 10 -38 9 -44 -2z"/>
<path d="M3768 1038 c17 -17 24 -20 34 -10 9 9 8 12 -6 12 -9 0 -14 5 -11 10
3 6 -4 10 -17 10 l-22 0 22 -22z"/>
<path d="M1581 1036 c-20 -11 -21 -14 -6 -19 34 -14 53 -8 48 13 -6 23 -10 24
-42 6z"/>
<path d="M3650 1030 c0 -5 5 -10 10 -10 6 0 10 5 10 10 0 6 -4 10 -10 10 -5 0
-10 -4 -10 -10z"/>
<path d="M5640 1018 c0 -19 2 -20 10 -8 13 19 13 30 0 30 -5 0 -10 -10 -10
-22z"/>
<path d="M2342 958 c-27 -40 -70 -94 -96 -120 -25 -27 -42 -48 -37 -48 28 0
204 220 189 236 -4 3 -29 -27 -56 -68z"/>
<path d="M3810 986 c0 -22 29 -41 42 -28 8 8 7 14 -3 24 -20 18 -39 20 -39 4z"/>
<path d="M11620 990 c0 -5 5 -10 10 -10 6 0 10 5 10 10 0 6 -4 10 -10 10 -5 0
-10 -4 -10 -10z"/>
<path d="M3700 960 c0 -5 5 -10 10 -10 6 0 10 5 10 10 0 6 -4 10 -10 10 -5 0
-10 -4 -10 -10z"/>
<path d="M3871 921 c-12 -8 -12 -12 3 -26 13 -13 20 -15 29 -6 8 8 8 11 -2 11
-8 0 -11 6 -7 15 6 17 -2 19 -23 6z"/>
<path d="M3105 900 c6 -10 78 -50 90 -50 15 0 -10 22 -45 40 -44 22 -54 25
-45 10z"/>
<path d="M3750 891 c0 -5 5 -13 10 -16 6 -3 10 -2 10 4 0 5 -4 13 -10 16 -5 3
-10 2 -10 -4z"/>
<path d="M5614 879 c-4 -8 -3 -9 5 -5 8 6 10 0 6 -18 -14 -68 -15 -81 -6 -66
24 41 19 128 -5 89z"/>
<path d="M3910 853 c0 -5 7 -17 15 -27 11 -15 18 -17 27 -8 8 8 8 15 -2 27
-13 15 -40 21 -40 8z"/>
<path d="M3800 815 c0 -8 5 -15 10 -15 6 0 10 7 10 15 0 8 -4 15 -10 15 -5 0
-10 -7 -10 -15z"/>
<path d="M3089 805 c-4 -3 17 -54 46 -113 29 -59 64 -133 79 -164 30 -63 39
-69 56 -37 9 16 7 27 -8 52 -10 18 -39 76 -65 131 l-47 98 30 -6 c41 -8 38 1
-7 19 -49 21 -77 27 -84 20z"/>
<path d="M3976 782 c-2 -4 2 -15 9 -25 8 -12 15 -14 20 -8 3 6 1 11 -5 11 -7
0 -10 7 -6 15 5 15 -9 21 -18 7z"/>
<path d="M3856 751 c-4 -7 -5 -15 -2 -18 9 -9 19 4 14 18 -4 11 -6 11 -12 0z"/>
<path d="M5601 744 c0 -11 3 -14 6 -6 3 7 2 16 -1 19 -3 4 -6 -2 -5 -13z"/>
<path d="M3280 726 c0 -2 7 -7 16 -10 8 -3 12 -2 9 4 -6 10 -25 14 -25 6z"/>
<path d="M4028 715 c-3 -6 0 -18 7 -28 8 -12 15 -14 20 -8 3 6 2 11 -4 11 -5
0 -11 8 -13 18 -2 9 -6 12 -10 7z"/>
<path d="M3900 670 c0 -5 5 -10 10 -10 6 0 10 5 10 10 0 6 -4 10 -10 10 -5 0
-10 -4 -10 -10z"/>
<path d="M4080 633 c0 -15 19 -37 26 -31 3 4 -1 14 -10 23 -9 9 -16 13 -16 8z"/>
<path d="M6673 627 c3 -8 -7 -27 -22 -43 -15 -16 -32 -44 -39 -61 -6 -18 -28
-50 -49 -71 -28 -29 -39 -48 -40 -75 -2 -20 0 -37 3 -37 10 0 34 29 34 42 0 7
14 24 30 37 17 13 30 28 30 35 0 10 11 25 73 97 25 29 27 49 7 69 -23 23 -34
26 -27 7z"/>
<path d="M3950 600 c0 -5 5 -10 10 -10 6 0 10 5 10 10 0 6 -4 10 -10 10 -5 0
-10 -4 -10 -10z"/>
<path d="M4000 530 c0 -5 5 -10 10 -10 6 0 10 5 10 10 0 6 -4 10 -10 10 -5 0
-10 -4 -10 -10z"/>
<path d="M4190 491 c0 -5 5 -13 10 -16 6 -3 10 -2 10 4 0 5 -4 13 -10 16 -5 3
-10 2 -10 -4z"/>
<path d="M4056 461 c-4 -7 -5 -15 -2 -18 9 -9 19 4 14 18 -4 11 -6 11 -12 0z"/>
<path d="M6706 423 c-15 -21 -16 -27 -5 -34 19 -11 31 4 27 34 l-3 25 -19 -25z"/>
<path d="M4236 427 c3 -10 9 -15 12 -12 3 3 0 11 -7 18 -10 9 -11 8 -5 -6z"/>
<path d="M6846 412 c-7 -12 22 -38 31 -28 4 3 0 14 -9 22 -9 10 -18 12 -22 6z"/>
<path d="M4105 380 c3 -5 8 -10 11 -10 2 0 4 5 4 10 0 6 -5 10 -11 10 -5 0 -7
-4 -4 -10z"/>
<path d="M6660 365 c-7 -8 -16 -12 -21 -9 -16 10 -45 -5 -46 -24 -1 -18 8 -20
60 -13 4 1 7 8 7 16 0 8 4 15 9 15 5 0 11 7 15 15 7 19 -8 19 -24 0z"/>
<path d="M4292 318 c-14 -14 -16 -28 -3 -28 5 0 11 9 14 20 6 23 5 24 -11 8z"/>
<path d="M5593 323 c9 -2 23 -2 30 0 6 3 -1 5 -18 5 -16 0 -22 -2 -12 -5z"/>
<path d="M5658 323 c12 -2 30 -2 40 0 9 3 -1 5 -23 4 -22 0 -30 -2 -17 -4z"/>
<path d="M5458 313 c7 -3 16 -2 19 1 4 3 -2 6 -13 5 -11 0 -14 -3 -6 -6z"/>
<path d="M5865 300 c10 -33 -4 -42 -32 -20 -14 11 -33 20 -42 20 -11 0 -7 -6
11 -18 74 -48 112 -129 105 -219 -4 -58 6 -86 16 -46 4 17 5 17 6 1 1 -17 17
-18 191 -18 183 0 190 1 190 20 0 11 -5 20 -11 20 -5 0 -7 4 -4 10 8 13 -11
13 -36 0 -16 -9 -19 -7 -19 9 0 24 -33 34 -120 35 -76 1 -94 15 -162 124 -39
64 -73 101 -91 102 -5 0 -6 -9 -2 -20z"/>
<path d="M5434 276 c-6 -7 -17 -23 -24 -35 -13 -26 -10 -25 43 12 22 15 26 22
15 28 -17 11 -21 11 -34 -5z"/>
<path d="M5545 283 c-84 -21 -175 -143 -175 -234 l0 -49 135 0 c74 0 135 3
135 8 0 4 -8 15 -19 24 -15 12 -40 15 -122 14 l-104 -1 3 30 c9 81 95 175 173
190 l37 7 10 -49 c6 -26 13 -74 15 -106 3 -32 8 -62 13 -67 5 -5 50 -11 101
-13 71 -4 96 -9 110 -22 17 -17 18 -17 25 16 8 42 1 81 -24 136 -21 46 -39 57
-81 54 -25 -2 -28 0 -22 17 5 18 0 21 -42 27 -26 4 -64 11 -83 16 -37 9 -53
10 -85 2z m213 -97 c3 -15 1 -16 -17 -6 -12 6 -19 16 -15 21 9 15 28 5 32 -15z
m52 -66 c0 -5 -2 -10 -4 -10 -3 0 -8 5 -11 10 -3 6 -1 10 4 10 6 0 11 -4 11
-10z"/>
<path d="M9580 285 c0 -5 5 -17 10 -25 5 -8 10 -10 10 -5 0 6 -5 17 -10 25 -5
8 -10 11 -10 5z"/>
<path d="M6586 263 c-3 -8 1 -21 9 -30 8 -8 13 -19 10 -24 -9 -14 2 -11 19 7
22 22 20 37 -8 50 -20 9 -26 9 -30 -3z"/>
<path d="M5290 193 c0 -10 4 -14 8 -8 4 6 11 13 16 18 5 4 2 7 -7 7 -10 0 -17
-8 -17 -17z"/>
<path d="M5380 200 c0 -5 5 -10 10 -10 6 0 10 5 10 10 0 6 -4 10 -10 10 -5 0
-10 -4 -10 -10z"/>
<path d="M6440 145 c0 -8 -6 -12 -14 -9 -19 7 -32 -16 -15 -27 8 -5 17 -3 21
4 5 8 8 4 8 -10 0 -12 -6 -23 -12 -26 -7 -2 -10 -8 -6 -12 12 -13 35 18 30 42
-2 13 1 30 8 38 10 12 9 15 -4 15 -9 0 -16 -7 -16 -15z"/>
<path d="M5315 120 c3 -5 10 -10 16 -10 5 0 9 5 9 10 0 6 -7 10 -16 10 -8 0
-12 -4 -9 -10z"/>
<path d="M9614 95 c-9 -22 1 -29 15 -11 8 10 9 16 1 21 -5 3 -13 -1 -16 -10z"/>
<path d="M4017 93 c-10 -9 -9 -23 2 -23 5 0 11 7 15 15 5 15 -5 20 -17 8z"/>
<path d="M3960 50 c-8 -5 -12 -12 -9 -15 4 -3 12 1 19 10 14 17 11 19 -10 5z"/>
<path d="M6321 34 c0 -11 3 -14 6 -6 3 7 2 16 -1 19 -3 4 -6 -2 -5 -13z"/>
</g>
</svg>
