<svg width="65" height="80" viewBox="0 0 65 80" fill="none" xmlns="http://www.w3.org/2000/svg">
<path id="Vector" d="M8.9 76.8086H56.1C57.6648 76.8086 59.1655 76.031 60.2719 74.6468C61.3784 73.2626 62 71.3853 62 69.4277V10.3809C62 8.42333 61.3784 6.54598 60.2719 5.1618C59.1655 3.77762 57.6648 3 56.1 3H20.7C19.1352 3 17.6345 3.77762 16.5281 5.1618C15.4216 6.54598 14.8 8.42333 14.8 10.3809V69.4277C14.8 71.3853 14.1784 73.2626 13.0719 74.6468C11.9655 76.031 10.4648 76.8086 8.9 76.8086ZM8.9 76.8086C7.33522 76.8086 5.83453 76.031 4.72807 74.6468C3.62161 73.2626 3 71.3853 3 69.4277V36.2139C3 32.1544 5.655 28.833 8.9 28.833H14.8M50.2 47.2852H26.6M41.35 62.0469H26.6" stroke="#060043" stroke-opacity="0.9" stroke-width="5.9" stroke-linecap="round" stroke-linejoin="round"/>
</svg>
