<svg width="88" height="88" viewBox="0 0 88 88" fill="none" xmlns="http://www.w3.org/2000/svg">
<g id="wpf:statistics" clip-path="url(#clip0_77_45)">
<path id="Vector" d="M43.2889 -0.103997C43.147 -0.078382 43.007 -0.0436503 42.8696 -1.7808e-05C42.1123 0.169709 41.4374 0.596767 40.9597 1.20838C40.482 1.82 40.2312 2.57833 40.25 3.35415V6.70832H10.0625C7.39376 6.70832 4.83432 7.76847 2.94724 9.65555C1.06015 11.5426 0 14.1021 0 16.7708L0 60.375C0 65.9295 4.508 70.4375 10.0625 70.4375H40.25V71.6953L22.01 80.8153C21.2041 81.2045 20.5857 81.8979 20.291 82.743C19.9963 83.5881 20.0494 84.5156 20.4386 85.3216C20.8278 86.1276 21.5212 86.7459 22.3663 87.0406C23.2114 87.3353 24.139 87.2822 24.9449 86.893L40.25 79.2422V80.5C40.25 81.3896 40.6034 82.2427 41.2324 82.8717C41.8614 83.5008 42.7146 83.8542 43.6042 83.8542C44.4937 83.8542 45.3469 83.5008 45.9759 82.8717C46.6049 82.2427 46.9583 81.3896 46.9583 80.5V79.2422L62.2634 86.893C63.0694 87.2822 63.9969 87.3353 64.842 87.0406C65.6871 86.7459 66.3805 86.1276 66.7697 85.3216C67.1589 84.5156 67.212 83.5881 66.9173 82.743C66.6226 81.8979 66.0043 81.2045 65.1983 80.8153L46.9583 71.6953V70.4375H77.1458C82.7003 70.4375 87.2083 65.9295 87.2083 60.375V16.7708C87.2083 14.1021 86.1482 11.5426 84.2611 9.65555C82.374 7.76847 79.8146 6.70832 77.1458 6.70832H46.9583V3.35415C46.9753 2.87718 46.8902 2.40209 46.7089 1.96061C46.5275 1.51914 46.254 1.12145 45.9067 0.794121C45.5594 0.466789 45.1462 0.217351 44.6947 0.0624716C44.2433 -0.0924075 43.764 -0.149161 43.2889 -0.103997ZM6.70833 16.7708H80.5V60.375H6.70833V16.7708ZM70.0182 20.125C69.2669 20.2058 68.5648 20.5379 68.0259 21.0675L57.0208 32.0759L49.37 24.4183C49.0036 24.0424 48.554 23.7576 48.0575 23.5871C47.561 23.4165 47.0314 23.3649 46.5113 23.4364C45.9912 23.5078 45.4952 23.7004 45.0631 23.9985C44.631 24.2966 44.2749 24.692 44.0234 25.1529L34.0649 42.5543L29.9762 32.2805C29.7776 31.75 29.448 31.2785 29.018 30.9098C28.588 30.5412 28.0716 30.2874 27.517 30.1722C26.9625 30.057 26.3878 30.0841 25.8465 30.251C25.3053 30.4179 24.8151 30.7191 24.4217 31.1266L14.3592 41.1891C14.042 41.5061 13.7904 41.8824 13.6187 42.2965C13.447 42.7107 13.3585 43.1546 13.3584 43.603C13.3582 44.0513 13.4464 44.4953 13.6178 44.9096C13.7892 45.3239 14.0406 45.7003 14.3575 46.0175C14.6744 46.3346 15.0507 46.5862 15.4649 46.7579C15.879 46.9297 16.323 47.0181 16.7713 47.0183C17.2197 47.0184 17.6637 46.9303 18.078 46.7589C18.4922 46.5874 18.8687 46.3361 19.1858 46.0191L25.5789 39.6261L30.4022 51.5737C30.6298 52.1729 31.0244 52.6943 31.5392 53.0762C32.0539 53.4581 32.6674 53.6845 33.3068 53.7287C33.9463 53.7728 34.585 53.6327 35.1474 53.3251C35.7097 53.0175 36.1722 52.5552 36.4799 51.9929L47.6963 32.3912L54.6125 39.3108C54.9253 39.6344 55.3 39.8917 55.7144 40.0675C56.1287 40.2432 56.5741 40.3338 57.0242 40.3338C57.4742 40.3338 57.9197 40.2432 58.334 40.0675C58.7483 39.8917 59.123 39.6344 59.4358 39.3108L72.8525 25.8941C73.3824 25.4036 73.7398 24.7552 73.8716 24.0453C74.0035 23.3354 73.9027 22.6019 73.5843 21.9538C73.266 21.3058 72.7469 20.7777 72.1045 20.4482C71.462 20.1187 70.7303 20.0054 70.0182 20.125Z" fill="#060043" fill-opacity="0.9"/>
</g>
<defs>
<clipPath id="clip0_77_45">
<rect width="87.2083" height="87.2083" fill="white"/>
</clipPath>
</defs>
</svg>
