<svg width="84" height="66" viewBox="0 0 84 66" fill="none" xmlns="http://www.w3.org/2000/svg">
<path id="Vector" d="M35.1042 0C13.1639 0 0 17.5999 0 26.4007C0 35.2015 4.38738 41.8017 13.1639 41.8017C21.9404 41.8017 26.3295 44.0006 26.3295 50.6007C26.3295 59.3998 32.9105 66 41.687 66C70.2102 66 83.3724 50.6008 83.3724 35.2015C83.3706 8.80081 61.4268 0 35.1042 0ZM29.6191 8.80081C30.3404 8.80172 31.0544 8.94468 31.7203 9.22153C32.3863 9.49837 32.9912 9.90368 33.5006 10.4143C34.0099 10.9249 34.4137 11.5309 34.6888 12.1976C34.964 12.8642 35.1052 13.5786 35.1042 14.2998C35.1042 17.3394 32.6483 19.8005 29.6191 19.8005C26.59 19.8005 24.1341 17.3376 24.1341 14.2998C24.1331 13.5786 24.2743 12.8642 24.5495 12.1976C24.8246 11.5309 25.2284 10.9249 25.7377 10.4143C26.2471 9.90368 26.852 9.49837 27.518 9.22153C28.1839 8.94468 28.8979 8.80172 29.6191 8.80081ZM47.1687 8.80081C47.8899 8.80172 48.6039 8.94468 49.2698 9.22153C49.9358 9.49837 50.5407 9.90368 51.0501 10.4143C51.5594 10.9249 51.9632 11.5309 52.2384 12.1976C52.5135 12.8642 52.6547 13.5786 52.6538 14.2998C52.6549 15.0212 52.5139 15.7357 52.2389 16.4026C51.9638 17.0694 51.5601 17.6756 51.0507 18.1864C50.5413 18.6972 49.9363 19.1027 49.2702 19.3796C48.6042 19.6566 47.89 19.7996 47.1687 19.8005C46.4474 19.7994 45.7335 19.6562 45.0676 19.3791C44.4017 19.1021 43.7969 18.6966 43.2877 18.1858C42.7786 17.675 42.375 17.0689 42.1 16.4022C41.8251 15.7354 41.6842 15.021 41.6853 14.2998C41.6835 12.8435 42.2601 11.4461 43.2884 10.4149C44.3166 9.38371 45.7124 8.80311 47.1687 8.80081ZM64.7216 17.5999C65.4432 17.6006 66.1575 17.7434 66.8238 18.0203C67.4901 18.2971 68.0953 18.7025 68.6048 19.2134C69.1144 19.7242 69.5182 20.3304 69.7934 20.9974C70.0686 21.6644 70.2096 22.3791 70.2085 23.1006C70.2096 23.822 70.0686 24.5366 69.7934 25.2035C69.5182 25.8704 69.1143 26.4765 68.6047 26.9872C68.0951 27.4979 67.4899 27.9032 66.8236 28.1798C66.1574 28.4565 65.4431 28.5991 64.7216 28.5996C64.0004 28.5989 63.2864 28.4561 62.6205 28.1793C61.9545 27.9025 61.3496 27.4972 60.8403 26.9865C60.3311 26.4758 59.9275 25.8698 59.6526 25.203C59.3777 24.5362 59.2369 23.8218 59.2383 23.1006C59.2369 22.3793 59.3777 21.6648 59.6526 20.998C59.9274 20.3311 60.331 19.7249 60.8402 19.2141C61.3494 18.7033 61.9543 18.2978 62.6203 18.0208C63.2863 17.7438 64.0004 17.6008 64.7216 17.5999ZM14.2616 22.0012C14.9826 22.0018 15.6965 22.1446 16.3624 22.4213C17.0282 22.698 17.6331 23.1031 18.1423 23.6136C18.6515 24.1241 19.0552 24.73 19.3301 25.3966C19.6051 26.0631 19.7461 26.7773 19.7449 27.4984C19.7449 30.538 17.289 32.9991 14.2616 32.9991C11.2342 32.9991 8.77649 30.5362 8.77649 27.4984C8.77511 26.0421 9.35217 24.6449 10.3808 23.614C11.4094 22.5832 12.8053 22.003 14.2616 22.0012ZM41.6853 44.0006C45.3206 44.0006 48.2664 46.9533 48.2664 50.6025C48.2664 54.2465 45.3206 57.2009 41.6853 57.2009C38.05 57.2009 35.1042 54.2465 35.1042 50.6025C35.1026 49.7368 35.2716 48.8793 35.6015 48.079C35.9314 47.2786 36.4158 46.5511 37.027 45.938C37.6381 45.325 38.3641 44.8383 39.1634 44.5058C39.9627 44.1734 40.8196 44.0017 41.6853 44.0006Z" fill="#060043" fill-opacity="0.9"/>
</svg>
