<svg width="89" height="89" viewBox="0 0 89 89" fill="none" xmlns="http://www.w3.org/2000/svg">
<g id="mdi:construction-outline">
<path id="Vector" d="M58.8612 33.1094C58.8612 52.7176 29.4306 52.7176 29.4306 33.1094H36.7882C36.7882 42.9319 51.5035 42.9319 51.5035 33.1094M73.5765 66.2188V77.2553H14.7153V66.2188C14.7153 56.3964 34.3234 51.5035 44.1459 51.5035C53.9683 51.5035 73.5765 56.3964 73.5765 66.2188ZM66.5867 66.2188C66.5867 63.8644 55.072 58.4933 44.1459 58.4933C33.2198 58.4933 21.7051 63.8644 21.7051 66.2188V70.2655H66.5867M45.9853 7.35767C47.0154 7.35767 47.8247 8.16701 47.8247 9.19708V20.2335H51.5035V11.0365C54.1071 12.2414 56.2884 14.201 57.7644 16.661C59.2404 19.121 59.9429 21.9678 59.7809 24.8321C59.7809 24.8321 62.3561 25.3471 62.54 29.4306H25.7518C25.7518 25.3471 28.5109 24.8321 28.5109 24.8321C28.3488 21.9678 29.0514 19.121 30.5274 16.661C32.0034 14.201 34.1847 12.2414 36.7882 11.0365V20.2335H40.4671V9.19708C40.4671 8.16701 41.2764 7.35767 42.3065 7.35767" fill="#060043" fill-opacity="0.9"/>
</g>
</svg>
