<svg width="19" height="19" viewBox="0 0 19 19" fill="none" xmlns="http://www.w3.org/2000/svg">
<g id="uil:vk">
<path id="Vector" d="M11.9325 1.58337H7.0748C2.6383 1.58337 1.58301 2.63867 1.58301 7.06725V11.9249C1.58301 16.3606 2.63038 17.4167 7.06688 17.4167H11.9245C16.3603 17.4167 17.4163 16.3693 17.4163 11.9328V7.07517C17.4163 2.63867 16.369 1.58337 11.9325 1.58337ZM14.3653 12.8805H13.2102C12.7732 12.8805 12.6418 12.5266 11.858 11.7428C11.174 11.0834 10.8851 11.001 10.7117 11.001C10.4726 11.001 10.4069 11.0667 10.4069 11.3969V12.4355C10.4069 12.7166 10.3159 12.8812 9.58201 12.8812C8.86978 12.8334 8.17911 12.617 7.5669 12.2499C6.95468 11.8828 6.43843 11.3756 6.06067 10.7699C5.16385 9.65362 4.53984 8.34352 4.23826 6.94375C4.23826 6.77037 4.30397 6.61362 4.63409 6.61362H5.78834C6.08522 6.61362 6.19209 6.74583 6.30847 7.05062C6.86897 8.70046 7.8253 10.135 8.21322 10.135C8.36205 10.135 8.42697 10.0692 8.42697 9.69796V7.99904C8.37788 7.224 7.96622 7.15829 7.96622 6.87804C7.9715 6.80412 8.00538 6.73517 8.06065 6.68581C8.11593 6.63644 8.18826 6.61055 8.2623 6.61362H10.0768C10.3246 6.61362 10.4069 6.73712 10.4069 7.034V9.32667C10.4069 9.57446 10.5138 9.65679 10.5882 9.65679C10.737 9.65679 10.8518 9.57446 11.1242 9.30212C11.7091 8.58879 12.187 7.79406 12.5428 6.94296C12.5792 6.84072 12.648 6.7532 12.7388 6.69373C12.8296 6.63427 12.9373 6.60614 13.0455 6.61362H14.2006C14.5465 6.61362 14.6202 6.787 14.5465 7.034C14.1266 7.97484 13.6069 8.86793 12.9965 9.69796C12.8722 9.88796 12.8223 9.98692 12.9965 10.2094C13.1113 10.3827 13.5158 10.7208 13.7881 11.0422C14.1839 11.437 14.5125 11.8937 14.7611 12.3944C14.86 12.7158 14.6946 12.8805 14.3653 12.8805Z" fill="white"/>
</g>
</svg>
