<svg width="81" height="81" viewBox="0 0 81 81" fill="none" xmlns="http://www.w3.org/2000/svg">
<g id="iconoir:brain-research">
<g id="Group">
<path id="Vector" d="M23.625 47.25C22.1518 47.2522 20.6968 47.5759 19.3615 48.1984C18.0263 48.821 16.843 49.7274 15.8942 50.8545C14.9454 51.9815 14.2541 53.3021 13.8683 54.7239C13.4826 56.1458 13.4118 57.6347 13.6608 59.0867C13.9099 60.5387 14.4728 61.9189 15.3103 63.1309C16.1479 64.343 17.2398 65.3576 18.5099 66.1041C19.7801 66.8505 21.1978 67.3108 22.6642 67.4528C24.1305 67.5948 25.6102 67.4151 27 66.9262" stroke="#060043" stroke-width="5.0625" stroke-linecap="round" stroke-linejoin="round"/>
<path id="Vector_2" d="M14.391 52.6668C12.3713 51.6945 10.6255 50.2345 9.31114 48.4187C7.9968 46.6028 7.1553 44.4883 6.8626 42.2659C6.5699 40.0435 6.8352 37.7832 7.63456 35.6889C8.43392 33.5947 9.74218 31.7325 11.4413 30.2703M11.5425 29.997C10.4357 28.3407 9.95053 26.3462 10.173 24.3666C10.3955 22.3869 11.3112 20.5499 12.7581 19.1806C14.205 17.8113 16.0897 16.9981 18.0786 16.885C20.0674 16.7719 22.0322 17.3661 23.625 18.5625M24.4283 18.7818C23.8899 17.6379 23.6154 16.3875 23.6253 15.1232C23.6351 13.8589 23.9289 12.613 24.4851 11.4775C25.0412 10.3421 25.8454 9.3461 26.8382 8.56326C27.8311 7.78041 28.9871 7.2307 30.221 6.95475C31.4549 6.67881 32.735 6.68368 33.9667 6.96902C35.1984 7.25435 36.3502 7.81285 37.3371 8.60323C38.3239 9.39361 39.1205 10.3957 39.668 11.5353C40.2155 12.675 40.4998 13.9231 40.5 15.1875M40.5 15.1875V67.5M40.5 15.1875C40.5002 13.9231 40.7846 12.675 41.332 11.5353C41.8795 10.3957 42.6761 9.39361 43.6629 8.60323C44.6498 7.81285 45.8016 7.25435 47.0333 6.96902C48.2651 6.68368 49.5452 6.67881 50.779 6.95475C52.0129 7.2307 53.169 7.78041 54.1618 8.56326C55.1546 9.3461 55.9588 10.3421 56.515 11.4775C57.0711 12.613 57.3649 13.8589 57.3748 15.1232C57.3846 16.3875 57.1102 17.6379 56.5718 18.7818M40.5 67.5C40.5 69.2902 39.7889 71.0071 38.523 72.2729C37.2571 73.5388 35.5402 74.25 33.75 74.25C31.9598 74.25 30.2429 73.5388 28.977 72.2729C27.7112 71.0071 27 69.2902 27 67.5M40.5 67.5C40.5 69.2902 41.2112 71.0071 42.477 72.2729C43.7429 73.5388 45.4598 74.25 47.25 74.25M40.5 23.625C40.5 26.3103 41.5667 28.8856 43.4656 30.7844C45.3644 32.6832 47.9397 33.75 50.625 33.75M69.5588 30.2703C71.0323 31.5362 72.2145 33.1058 73.0243 34.8716C73.834 36.6373 74.2522 38.5574 74.25 40.5C74.25 42.8726 73.6391 45.1035 72.5625 47.0407M69.4575 29.997C70.5644 28.3407 71.0495 26.3462 70.827 24.3666C70.6045 22.3869 69.6888 20.5499 68.2419 19.1806C66.795 17.8113 64.9103 16.9981 62.9215 16.885C60.9326 16.7719 58.9678 17.3661 57.375 18.5625M69.1875 69.1875L74.25 74.25M54 62.4375C54 64.6752 54.889 66.8213 56.4713 68.4037C58.0536 69.986 60.1998 70.875 62.4375 70.875C64.6753 70.875 66.8214 69.986 68.4037 68.4037C69.9861 66.8213 70.875 64.6752 70.875 62.4375C70.875 60.1997 69.9861 58.0536 68.4037 56.4712C66.8214 54.8889 64.6753 54 62.4375 54C60.1998 54 58.0536 54.8889 56.4713 56.4712C54.889 58.0536 54 60.1997 54 62.4375Z" stroke="#060043" stroke-width="5.0625" stroke-linecap="round" stroke-linejoin="round"/>
</g>
</g>
</svg>
