<svg width="24" height="24" viewBox="0 0 24 24" fill="none" xmlns="http://www.w3.org/2000/svg">
<g id="mingcute:up-line" clip-path="url(#clip0_124_256)">
<g id="Group">
<path id="Vector" fill-rule="evenodd" clip-rule="evenodd" d="M12.7068 15.707C12.5193 15.8944 12.265 15.9998 11.9998 15.9998C11.7347 15.9998 11.4803 15.8944 11.2928 15.707L5.63582 10.05C5.45366 9.86137 5.35287 9.60876 5.35515 9.34657C5.35742 9.08437 5.46259 8.83356 5.648 8.64815C5.83341 8.46274 6.08422 8.35757 6.34642 8.3553C6.60862 8.35302 6.86122 8.45381 7.04982 8.63597L11.9998 13.586L16.9498 8.63597C17.1384 8.45381 17.391 8.35302 17.6532 8.3553C17.9154 8.35757 18.1662 8.46274 18.3516 8.64815C18.537 8.83356 18.6422 9.08437 18.6445 9.34657C18.6468 9.60876 18.546 9.86137 18.3638 10.05L12.7068 15.707Z" fill="#5C5C5C" fill-opacity="0.62"/>
</g>
</g>
<defs>
<clipPath id="clip0_124_256">
<rect width="24" height="24" fill="white" transform="matrix(-1 0 0 -1 24 24)"/>
</clipPath>
</defs>
</svg>
