<svg width="104" height="104" viewBox="0 0 104 104" fill="none" xmlns="http://www.w3.org/2000/svg">
<g id="map:lawyer" clip-path="url(#clip0_226_80)">
<path id="Vector" d="M0.6136 57.3685C1.03632 60.6014 2.62061 63.5701 5.07097 65.7209C7.52132 67.8717 10.6704 69.0578 13.9308 69.0578C17.1912 69.0578 20.3403 67.8717 22.7906 65.7209C25.241 63.5701 26.8253 60.6014 27.248 57.3685H0.6136ZM73.1786 84.4064C73.1794 84.6797 73.1263 84.9505 73.0224 85.2034C72.9185 85.4562 72.7658 85.686 72.573 85.8798C72.3802 86.0735 72.1511 86.2274 71.8989 86.3325C71.6466 86.4377 71.376 86.4921 71.1027 86.4927H32.2982C31.1584 86.4927 30.2182 85.5567 30.2182 84.4064C30.221 83.857 30.4415 83.331 30.8314 82.9438C31.2213 82.5567 31.7488 82.3399 32.2982 82.341H71.1006C72.2488 82.341 73.1786 83.2645 73.1786 84.4064ZM30.445 87.5555H72.9539V93.5605H30.445V87.5555ZM76.752 57.3685C77.1718 60.6035 78.7547 63.5752 81.2052 65.7286C83.6556 67.882 86.806 69.0699 90.0682 69.0706C93.3299 69.0706 96.48 67.8828 98.9295 65.7291C101.379 63.5754 102.961 60.6034 103.378 57.3685H76.752ZM102.646 53.1898L91.7405 38.168H97.5707C98.9893 38.168 100.131 37.0053 100.131 35.568C100.131 34.1432 98.9872 32.993 97.5707 32.993H66.6869C65.7701 30.4677 64.2043 28.2284 62.1471 26.5006C60.0899 24.7727 57.6139 23.6172 54.9682 23.1504V15.0447C54.9682 13.6032 53.8117 12.453 52.3786 12.453L52.1373 12.48L51.896 12.453C51.5557 12.4522 51.2186 12.5187 50.9042 12.6487C50.5897 12.7787 50.3041 12.9697 50.0638 13.2106C49.8234 13.4515 49.6332 13.7376 49.5039 14.0524C49.3746 14.3671 49.3089 14.7044 49.3106 15.0447V23.1463C46.6652 23.6127 44.1896 24.7682 42.133 26.4961C40.0764 28.2241 38.5115 30.4635 37.596 32.9888H6.70592C5.29776 32.9888 4.1496 34.1391 4.1496 35.5639C4.1496 37.0032 5.29776 38.1639 6.70592 38.1639H12.2699L1.3624 53.1856H0V55.9603H27.8678V53.1856H26.4992L15.5958 38.168H40.9074C40.9074 37.5815 40.9718 37.0053 41.0592 36.4541C41.1486 36.1941 41.209 35.9299 41.209 35.6575C41.6778 33.6814 42.6819 31.8726 44.111 30.4295C45.5401 28.9864 47.3391 27.9648 49.3106 27.4768V55.9666H49.2024C48.9798 66.6827 43.8818 76.0282 36.3189 81.2802H67.964C60.399 76.0282 55.3051 66.6827 55.0701 55.9666H54.9702V27.4768C56.9414 27.965 58.7401 28.9866 60.1688 30.4297C61.5976 31.8728 62.6013 33.6815 63.0698 35.6575C63.0781 35.9299 63.1342 36.1941 63.2258 36.4541C63.309 37.0074 63.361 37.5815 63.361 38.168H88.4083L77.5008 53.1898H76.1405V55.9645H104V53.1898H102.646ZM12.8232 53.1898H4.1184L12.8232 41.1986V53.1898ZM15.0509 53.1898V41.1986L23.7557 53.1898H15.0509ZM88.9574 53.1898H80.2485L88.9574 41.1986V53.1898ZM91.1747 53.1898V41.1986L99.8899 53.1898H91.1747ZM16.5173 29.3779C16.4982 30.0507 16.2175 30.6894 15.735 31.1585C15.2524 31.6276 14.6059 31.8901 13.9329 31.8901C13.2599 31.8901 12.6134 31.6276 12.1308 31.1585C11.6482 30.6894 11.3676 30.0507 11.3485 29.3779C11.3485 27.9511 12.5091 26.7863 13.9381 26.7863C15.3608 26.7842 16.5173 27.9511 16.5173 29.3779ZM92.6536 29.2407C92.6536 30.6779 91.4971 31.8178 90.0702 31.8178C89.7309 31.82 89.3945 31.7549 89.0805 31.6262C88.7665 31.4976 88.4811 31.3079 88.2408 31.0683C88.0006 30.8286 87.8102 30.5437 87.6808 30.23C87.5514 29.9163 87.4855 29.58 87.4869 29.2407C87.4729 28.8927 87.5294 28.5455 87.6529 28.2199C87.7764 27.8943 87.9645 27.597 88.2058 27.3458C88.447 27.0947 88.7365 26.8949 89.0569 26.7584C89.3773 26.6219 89.722 26.5515 90.0702 26.5515C90.4185 26.5515 90.7632 26.6219 91.0835 26.7584C91.4039 26.8949 91.6935 27.0947 91.9347 27.3458C92.176 27.597 92.364 27.8943 92.4876 28.2199C92.6111 28.5455 92.6676 28.8927 92.6536 29.2407Z" fill="#060043"/>
</g>
<defs>
<clipPath id="clip0_226_80">
<rect width="104" height="104" fill="white"/>
</clipPath>
</defs>
</svg>
